<?xml version="1.0" encoding="UTF-8"?>
<svg xmlns="http://www.w3.org/2000/svg" xmlns:xlink="http://www.w3.org/1999/xlink" width="595.275591pt" height="841.889764pt" viewBox="0 0 595.275591 841.889764" version="1.1">
<g id="surface1">
<path style="fill:none;stroke-width:0.264583;stroke-linecap:butt;stroke-linejoin:miter;stroke:rgb(0%,0%,0%);stroke-opacity:1;stroke-miterlimit:4;" d="M 179.916667 229.720345 C 157.993457 194.190386 118.684918 221.405263 120.196625 252.39872 C 118.684918 194.946929 165.553375 164.708637 185.208333 200.238596 " transform="matrix(2.834646,0,0,2.834646,0.000000000000040283,0)"/>
<path style="fill:none;stroke-width:0.264583;stroke-linecap:butt;stroke-linejoin:miter;stroke:rgb(0%,0%,0%);stroke-opacity:1;stroke-miterlimit:4;" d="M 182.184918 163.196929 C 160.261708 135.982053 123.976584 150.345345 120.196625 252.39872 C 121.708333 89.868761 150.434918 95.160428 173.113292 113.303678 " transform="matrix(2.834646,0,0,2.834646,0.000000000000040283,0)"/>
<path style="fill:none;stroke-width:0.264583;stroke-linecap:butt;stroke-linejoin:miter;stroke:rgb(0%,0%,0%);stroke-opacity:1;stroke-miterlimit:4;" d="M 40.821625 127.66697 C 58.964876 49.803678 106.589876 82.310221 120.196625 252.39872 C 86.178375 123.887012 80.886708 134.470345 48.381543 154.125304 " transform="matrix(2.834646,0,0,2.834646,0.000000000000040283,0)"/>
<path style="fill:none;stroke-width:0.264583;stroke-linecap:butt;stroke-linejoin:miter;stroke:rgb(0%,0%,0%);stroke-opacity:1;stroke-miterlimit:4;" d="M 24.190082 207.797135 C 56.696625 151.857053 71.058539 162.440386 120.196625 252.39872 C 68.036502 199.482053 52.916667 208.553678 37.79821 222.91697 " transform="matrix(2.834646,0,0,2.834646,0.000000000000040283,0)"/>
<path style="fill:none;stroke-width:0.264583;stroke-linecap:butt;stroke-linejoin:miter;stroke:rgb(0%,0%,0%);stroke-opacity:1;stroke-miterlimit:4;" d="M 125.488292 39.97551 C 105.833333 10.493761 111.881543 12.760634 120.196625 252.39872 C 87.690082 -1.60128 93.738292 -1.60128 78.619835 33.928678 " transform="matrix(2.834646,0,0,2.834646,0.000000000000040283,0)"/>
</g>
</svg>
