<svg width="160" height="160" viewBox="0 0 160 160" xmlns="http://www.w3.org/2000/svg" xmlns:xlink="http://www.w3.org/1999/xlink">
  <radialGradient id="RadialGradient3" cx="0.35" cy="0.63" r="0.7">
    <stop offset="0%" stop-color="#00FF00" />
    <stop offset="100%" stop-color="#008000" />
  </radialGradient>
  <radialGradient id="RadialGradient4" cx="0.5" cy="0.5" r="0.5">
    <stop offset="0%" stop-color="#40DD40" />
    <stop offset="100%" stop-color="#208020" />
  </radialGradient>
  <path d="M 63,71 C 3,74 57,159 47,124" stroke-width="0.5" fill="none" stroke="brown" />
  <path d="M 50.34,77.96 C 47.26,77.03 44.34,83.32 43.36,85.65 C 42.38,87.98 40.29,93.29 40.44,94.8 C 40.59,96.31 39.54,97.82 39.64,97.94 C 41.77,94.8 46.25,85.06 50.34,77.96" fill="url(#RadialGradient3)" fill-opacity="1" />
  <path d="M 50.34,77.96 C 52.81,80 49.2,85.92 47.8,88.03 C 46.4,90.14 43.15,94.82 41.81,95.53 C 40.47,96.24 39.79,97.96 39.64,97.94 C 41.77,94.8 46.25,85.06 50.34,77.96" fill="url(#RadialGradient4)" fill-opacity="1" />
  <path d="M 53.31,72.4 C 52.91,72.24 50.49,77.97 50.34,77.96" stroke-width="0.5" fill="none" stroke="sandybrown" />
  <path d="M 38.49,73.87 C 39.01,69.63 31.63,65.25 26.81,63.85 C 21.98,62.44 16.93,64.38 13.41,64.35 C 9.9,64.33 9.22,63.74 9.06,64.17 C 14.08,64.99 32.91,72.08 38.49,73.87" fill="url(#RadialGradient3)" fill-opacity="1" />
  <path d="M 38.49,73.87 C 36.39,77.58 27.86,76.72 23.14,74.98 C 18.42,73.24 15.51,68.68 12.67,66.61 C 9.82,64.54 8.93,64.61 9.06,64.17 C 14.08,64.99 32.91,72.08 38.49,73.87" fill="url(#RadialGradient4)" fill-opacity="1" />
  <path d="M 44.86,75.97 C 45.05,75.16 38.36,74.31 38.49,73.87" stroke-width="0.5" fill="none" stroke="sandybrown" />
  <path d="M 40.09,90.62 C 35.67,93.93 37.74,105.14 38.17,108.91 C 38.59,112.67 40.65,119.12 42.07,120.88 C 43.48,122.64 43.47,126.35 43.77,126.42 C 43.57,120.73 41.95,101.85 40.09,90.62" fill="url(#RadialGradient3)" fill-opacity="1" />
  <path d="M 40.09,90.62 C 45.1,92.96 45.36,104.36 45.7,108.13 C 46.05,111.9 45.35,118.64 44.32,120.65 C 43.29,122.66 44.05,126.29 43.77,126.42 C 43.57,120.73 41.95,101.85 40.09,90.62" fill="url(#RadialGradient4)" fill-opacity="1" />
  <path d="M 39.13,81.19 C 38.56,81.32 40.38,90.48 40.09,90.62" stroke-width="0.5" fill="none" stroke="sandybrown" />
  <path d="M 26.57,93.21 C 21.18,89.26 16.47,90.99 11.88,92.93 C 7.28,94.87 4.27,102.08 1.14,104.7 C -1.99,107.32 -1.87,107.21 -1.75,107.78 C 5.22,103.92 17.76,97.84 26.57,93.21" fill="url(#RadialGradient3)" fill-opacity="1" />
  <path d="M 26.57,93.21 C 26.65,99.88 22.5,102.71 18.25,105.32 C 14,107.94 6.38,106.19 2.43,107.21 C -1.52,108.24 -1.36,108.21 -1.75,107.78 C 5.22,103.92 17.76,97.84 26.57,93.21" fill="url(#RadialGradient4)" fill-opacity="1" />
  <path d="M 35.42,88.65 C 35.08,88.16 26.97,93.64 26.57,93.21" stroke-width="0.5" fill="none" stroke="sandybrown" />
  <path d="M 39.66,102.94 C 35.96,107.76 42.09,114.35 45.5,118.01 C 48.91,121.67 56.07,123.19 57.8,124.31 C 59.54,125.43 62.55,128.08 62.84,127.82 C 56.91,121.04 49.09,113.29 39.66,102.94" fill="url(#RadialGradient3)" fill-opacity="1" />
  <path d="M 39.66,102.94 C 44.73,99.58 50.87,106.17 54.28,109.83 C 57.69,113.48 58.7,120.74 59.7,122.55 C 60.69,124.35 63.12,127.55 62.84,127.82 C 56.91,121.04 49.09,113.29 39.66,102.94" fill="url(#RadialGradient4)" fill-opacity="1" />
  <path d="M 34.21,97.09 C 33.84,97.44 39.95,102.67 39.66,102.94" stroke-width="0.5" fill="none" stroke="sandybrown" />
  <path d="M 29.37,111.67 C 24.33,110.22 17.36,114.66 14.25,118.4 C 11.14,122.15 11.95,130.18 10.85,133.02 C 9.74,135.87 9.2,136.44 9.62,137.01 C 18.46,125.39 19.71,122.66 29.37,111.67" fill="url(#RadialGradient3)" fill-opacity="1" />
  <path d="M 29.37,111.67 C 32.01,116.2 29.4,124.04 26.53,127.98 C 23.66,131.91 15.67,133.08 13.18,134.85 C 10.7,136.61 10.27,137.27 9.62,137.01 C 18.46,125.39 19.71,122.66 29.37,111.67" fill="url(#RadialGradient4)" fill-opacity="1" />
  <path d="M 34.75,104.77 C 34.05,104.23 30.02,111.94 29.37,111.67" stroke-width="0.5" fill="none" stroke="sandybrown" />
  <path d="M 45.43,116.95 C 43.7,122.3 50.92,126.45 55.19,128.25 C 59.46,130.05 67.54,130.54 70.31,131.22 C 73.07,131.91 74.85,132.48 74.98,132.25 C 66.92,127.71 51.92,120.49 45.43,116.95" fill="url(#RadialGradient3)" fill-opacity="1" />
  <path d="M 45.43,116.95 C 48.8,112.45 56.35,115.95 60.29,118.39 C 64.23,120.84 69.29,127.16 71.45,129.02 C 73.61,130.88 75.1,132 74.98,132.25 C 66.92,127.71 51.92,120.49 45.43,116.95" fill="url(#RadialGradient4)" fill-opacity="1" />
  <path d="M 36.4,112.27 C 36.1,112.9 45.54,116.7 45.43,116.95" stroke-width="0.5" fill="none" stroke="sandybrown" />
  <path d="M 35.14,126.02 C 30.12,126.29 26.79,135.24 24.03,139.62 C 21.28,144.01 20.65,148.55 20.52,151.4 C 20.39,154.26 19.63,154.8 19.82,154.93 C 25.19,144.13 31.11,132.66 35.14,126.02" fill="url(#RadialGradient3)" fill-opacity="1" />
  <path d="M 35.14,126.02 C 37.73,130.32 32.2,138.1 30.12,142.85 C 28.04,147.59 24.64,150.66 22.35,152.37 C 20.06,154.08 20.04,155.02 19.82,154.93 C 25.19,144.13 31.11,132.66 35.14,126.02" fill="url(#RadialGradient4)" fill-opacity="1" />
  <path d="M 38.76,119.18 C 38.07,118.9 35.35,126.11 35.14,126.02" stroke-width="0.5" fill="none" stroke="sandybrown" />
  <path d="M 47.64,128.32 C 47.49,132.57 50.14,134.37 54.39,136.46 C 58.64,138.55 65.75,138.04 68.85,138.83 C 71.94,139.63 72.7,139.57 72.89,139.44 C 64.08,135.96 57.59,133.12 47.64,128.32" fill="url(#RadialGradient3)" fill-opacity="1" />
  <path d="M 47.64,128.32 C 50.67,125.35 53.79,126.08 58.2,127.81 C 62.61,129.53 67.04,135.12 69.71,136.87 C 72.39,138.62 72.86,139.21 72.89,139.44 C 64.08,135.96 57.59,133.12 47.64,128.32" fill="url(#RadialGradient4)" fill-opacity="1" />
  <path d="M 41.87,125.78 C 41.62,126.36 47.61,128.1 47.64,128.32" stroke-width="0.5" fill="none" stroke="sandybrown" />
  <path d="M 44.57,139.66 C 40.96,139.97 40.7,147.1 40.55,149.94 C 40.41,152.79 40.43,159.95 41.28,161.48 C 42.13,163 41.15,165.74 41.64,165.81 C 41.57,162.22 43.52,143.12 44.57,139.66" fill="url(#RadialGradient3)" fill-opacity="1" />
  <path d="M 44.57,139.66 C 48.03,140.76 46.7,147.77 46.21,150.58 C 45.72,153.39 44.11,160.36 42.94,161.66 C 41.77,162.96 42.12,165.85 41.64,165.81 C 41.57,162.22 43.52,143.12 44.57,139.66" fill="url(#RadialGradient4)" fill-opacity="1" />
  <path d="M 45.52,131.18 C 45.05,131.16 45.06,139.69 44.57,139.66" stroke-width="0.5" fill="none" stroke="sandybrown" />
  <path d="M 42.96,124.64 C 43.82,121.34 42.2,116.08 40.1,114.65 C 38.01,113.22 30.73,113.47 28.29,112.51 C 25.84,111.56 24.88,110.84 24.62,111.08 C 28.43,113.39 38.36,121.27 42.96,124.64" fill="url(#RadialGradient3)" fill-opacity="1" />
  <path d="M 42.96,124.64 C 40.05,126.43 34.55,126.42 32.57,124.84 C 30.59,123.25 28.7,116.22 27.07,114.16 C 25.44,112.1 24.47,111.39 24.62,111.08 C 28.43,113.39 38.36,121.27 42.96,124.64" fill="url(#RadialGradient4)" fill-opacity="1" />
  <path d="M 48.05,128.41 C 48.29,128.04 42.81,124.96 42.96,124.64" stroke-width="0.5" fill="none" stroke="sandybrown" />
  <path d="M 46.76,118.99 C 48.96,118.32 50.47,112.11 50.24,109.89 C 50.01,107.67 47.15,102.22 46.67,100.01 C 46.2,97.8 46.08,97.84 45.76,97.82 C 45.76,100.61 46.27,115.1 46.76,118.99" fill="url(#RadialGradient3)" fill-opacity="1" />
  <path d="M 46.76,118.99 C 44.51,118.53 42.42,112.49 42.44,110.26 C 42.46,108.02 44.8,102.33 45.06,100.08 C 45.32,97.84 45.44,97.87 45.76,97.82 C 45.76,100.61 46.27,115.1 46.76,118.99" fill="url(#RadialGradient4)" fill-opacity="1" />
  <path d="M 47,124 C 47.48,123.95 46.44,119.04 46.76,118.99" stroke-width="0.5" fill="none" stroke="sandybrown" />
  <path d="M 16,112 C 21,98 107,131 115,33" stroke-width="0.5" fill="none" stroke="brown" />
  <path d="M 35.12,112.83 C 33.43,115.56 36.84,122.98 39.12,125.16 C 41.39,127.34 47.66,127.08 49.68,127.68 C 51.7,128.29 52.84,129.77 53.09,129.57 C 47.6,124.38 38.26,115 35.12,112.83" fill="url(#RadialGradient3)" fill-opacity="1" />
  <path d="M 35.12,112.83 C 37.72,110.95 45.37,113.83 47.7,115.95 C 50.04,118.06 50.22,124.33 50.96,126.3 C 51.71,128.27 53.27,129.31 53.09,129.57 C 47.6,124.38 38.26,115 35.12,112.83" fill="url(#RadialGradient4)" fill-opacity="1" />
  <path d="M 29.59,107.68 C 29.2,108.14 35.3,112.57 35.12,112.83" stroke-width="0.5" fill="none" stroke="sandybrown" />
  <path d="M 48.04,100.04 C 51.29,101.21 58.12,93.69 60.61,90.32 C 63.1,86.95 61.03,83.54 62.07,81.22 C 63.11,78.89 64.22,76.77 63.9,76.39 C 61.9,80.09 52.08,92.67 48.04,100.04" fill="url(#RadialGradient3)" fill-opacity="1" />
  <path d="M 48.04,100.04 C 45.72,97.48 50.09,88.31 52.26,84.72 C 54.43,81.14 58.37,81.76 60.13,79.92 C 61.89,78.07 63.43,76.24 63.9,76.39 C 61.9,80.09 52.08,92.67 48.04,100.04" fill="url(#RadialGradient4)" fill-opacity="1" />
  <path d="M 43.37,107 C 43.82,107.23 47.57,99.89 48.04,100.04" stroke-width="0.5" fill="none" stroke="sandybrown" />
  <path d="M 63.79,110.31 C 63.51,115.82 71.78,120.5 75.83,122.96 C 79.89,125.41 82.25,125.29 85.17,126.04 C 88.09,126.78 88.61,127.54 88.96,127.2 C 83.6,123.28 68.89,114.6 63.79,110.31" fill="url(#RadialGradient3)" fill-opacity="1" />
  <path d="M 63.79,110.31 C 68.79,107.96 76.25,113.84 80.06,116.66 C 83.86,119.49 84.65,121.72 86.45,124.14 C 88.24,126.56 89.14,126.75 88.96,127.2 C 83.6,123.28 68.89,114.6 63.79,110.31" fill="url(#RadialGradient4)" fill-opacity="1" />
  <path d="M 56.71,105.56 C 56.46,106.06 63.97,109.86 63.79,110.31" stroke-width="0.5" fill="none" stroke="sandybrown" />
  <path d="M 74.56,95.2 C 78.52,96.27 87.71,87.73 89.76,84.31 C 91.8,80.89 92.03,68.48 92.38,66.39 C 92.73,64.31 93.93,61.77 93.47,61.3 C 90.86,67.82 78.98,87.41 74.56,95.2" fill="url(#RadialGradient3)" fill-opacity="1" />
  <path d="M 74.56,95.2 C 71.57,92.39 74.01,80.08 75.85,76.55 C 77.69,73.01 88.13,66.3 89.72,64.91 C 91.3,63.51 92.84,61.16 93.47,61.3 C 90.86,67.82 78.98,87.41 74.56,95.2" fill="url(#RadialGradient4)" fill-opacity="1" />
  <path d="M 70.68,102.15 C 71.34,102.49 73.93,95.06 74.56,95.2" stroke-width="0.5" fill="none" stroke="sandybrown" />
  <path d="M 93.05,101.01 C 93.71,105.43 100.89,112.41 105.77,113.59 C 110.65,114.77 114.02,110.88 118.24,110.84 C 122.46,110.8 122.36,110.88 122.51,110.65 C 112.98,107.63 103.34,104.93 93.05,101.01" fill="url(#RadialGradient3)" fill-opacity="1" />
  <path d="M 93.05,101.01 C 96.2,97.83 106.12,96.45 110.75,98.38 C 115.37,100.31 115.8,105.44 119.18,107.97 C 122.56,110.5 122.53,110.37 122.51,110.65 C 112.98,107.63 103.34,104.93 93.05,101.01" fill="url(#RadialGradient4)" fill-opacity="1" />
  <path d="M 81.65,97.28 C 81.4,98.12 93.07,100.73 93.05,101.01" stroke-width="0.5" fill="none" stroke="sandybrown" />
  <path d="M 92.08,82.09 C 97,80.27 98.99,74.47 99.24,68.64 C 99.48,62.8 95.25,60.75 94.13,57.8 C 93,54.85 93.36,53.03 92.82,52.9 C 93.01,64.59 92.36,70.41 92.08,82.09" fill="url(#RadialGradient3)" fill-opacity="1" />
  <path d="M 92.08,82.09 C 87.27,80.02 85.57,74.14 85.61,68.3 C 85.66,62.46 89.99,60.62 91.26,57.73 C 92.54,54.84 92.27,53 92.82,52.9 C 93.01,64.59 92.36,70.41 92.08,82.09" fill="url(#RadialGradient4)" fill-opacity="1" />
  <path d="M 91.89,89.87 C 92.81,89.83 91.54,82.19 92.08,82.09" stroke-width="0.5" fill="none" stroke="sandybrown" />
  <path d="M 107.09,79.35 C 109.86,83.49 120.46,84.47 124,83.33 C 127.54,82.2 136.6,75.91 138.14,74.24 C 139.68,72.58 143.16,71.97 143.27,71.7 C 135.2,73.74 113.59,78.79 107.09,79.35" fill="url(#RadialGradient3)" fill-opacity="1" />
  <path d="M 107.09,79.35 C 107.94,74.44 117.24,69.25 120.94,68.86 C 124.63,68.47 135.47,70.55 137.55,71.45 C 139.63,72.35 143.06,71.5 143.27,71.7 C 135.2,73.74 113.59,78.79 107.09,79.35" fill="url(#RadialGradient4)" fill-opacity="1" />
  <path d="M 99.86,80.88 C 100.05,81.69 106.88,79.15 107.09,79.35" stroke-width="0.5" fill="none" stroke="sandybrown" />
  <path d="M 103.4,63.6 C 107.83,60.43 103.17,51.96 101.87,46.95 C 100.58,41.95 97.77,37.41 95.78,35.32 C 93.8,33.23 93.8,30.64 93.26,30.69 C 96.07,37.03 101.93,58.65 103.4,63.6" fill="url(#RadialGradient3)" fill-opacity="1" />
  <path d="M 103.4,63.6 C 97.96,63.47 97.04,53.85 95.29,48.98 C 93.55,44.11 93.32,38.78 93.78,35.93 C 94.25,33.09 92.78,30.95 93.26,30.69 C 96.07,37.03 101.93,58.65 103.4,63.6" fill="url(#RadialGradient4)" fill-opacity="1" />
  <path d="M 105.68,71 C 106.28,70.74 102.92,63.86 103.4,63.6" stroke-width="0.5" fill="none" stroke="sandybrown" />
  <path d="M 116.24,58.41 C 120.2,61.91 127.77,61.7 131.32,59.99 C 134.88,58.27 136.61,52.02 137.93,51.06 C 139.24,50.09 141.1,48.67 141.1,48.4 C 134.97,50.04 122.18,56.26 116.24,58.41" fill="url(#RadialGradient3)" fill-opacity="1" />
  <path d="M 116.24,58.41 C 116.67,53.14 122.27,48.05 126.03,46.83 C 129.78,45.6 135.36,48.9 136.97,48.69 C 138.59,48.48 140.91,48.22 141.1,48.4 C 134.97,50.04 122.18,56.26 116.24,58.41" fill="url(#RadialGradient4)" fill-opacity="1" />
  <path d="M 109.66,61.06 C 109.92,61.58 116.05,58.22 116.24,58.41" stroke-width="0.5" fill="none" stroke="sandybrown" />
  <path d="M 108.98,44.22 C 110.87,41.98 109.17,35.31 107.76,32.82 C 106.36,30.33 101.87,30.93 99.77,29.81 C 97.67,28.7 97.22,27.31 96.91,27.49 C 102.49,34.87 106.22,39.19 108.98,44.22" fill="url(#RadialGradient3)" fill-opacity="1" />
  <path d="M 108.98,44.22 C 106.25,45.31 100.46,41.6 98.54,39.48 C 96.61,37.35 98.6,33.29 98.21,30.94 C 97.81,28.6 96.63,27.73 96.91,27.49 C 102.49,34.87 106.22,39.19 108.98,44.22" fill="url(#RadialGradient4)" fill-opacity="1" />
  <path d="M 112.72,49.41 C 113.23,49.03 108.7,44.46 108.98,44.22" stroke-width="0.5" fill="none" stroke="sandybrown" />
  <path d="M 120.04,34.65 C 122.56,35.95 127.25,32.7 129.2,31.07 C 131.14,29.44 132.1,27.53 133.75,25.5 C 135.4,23.47 135.89,23.22 135.87,23.03 C 128.65,28.18 123.51,31.89 120.04,34.65" fill="url(#RadialGradient3)" fill-opacity="1" />
  <path d="M 120.04,34.65 C 119.56,31.86 124.06,28.36 126.2,26.99 C 128.33,25.62 130.44,25.27 132.87,24.31 C 135.31,23.34 135.69,22.94 135.87,23.03 C 128.65,28.18 123.51,31.89 120.04,34.65" fill="url(#RadialGradient4)" fill-opacity="1" />
  <path d="M 114.42,38.78 C 114.72,39.1 119.86,34.57 120.04,34.65" stroke-width="0.5" fill="none" stroke="sandybrown" />
  <path d="M 113.62,27.6 C 116.18,26.37 115.27,21.99 114.25,18.8 C 113.23,15.61 111.25,12.08 109.9,10.13 C 108.56,8.17 108.63,7.05 108.37,7.06 C 110.39,14.61 112.63,24.4 113.62,27.6" fill="url(#RadialGradient3)" fill-opacity="1" />
  <path d="M 113.62,27.6 C 110.78,27.75 109.48,23.47 108.84,20.18 C 108.21,16.89 108.25,12.85 108.49,10.49 C 108.73,8.12 108.13,7.18 108.37,7.06 C 110.39,14.61 112.63,24.4 113.62,27.6" fill="url(#RadialGradient4)" fill-opacity="1" />
  <path d="M 115,33 C 115.43,32.85 113.38,27.71 113.62,27.6" stroke-width="0.5" fill="none" stroke="sandybrown" />
  <path d="M 106,49 C 94,92 123,5 62,91" stroke-width="0.5" fill="none" stroke="brown" />
  <path d="M 97.29,60.82 C 94.85,57.87 88.31,62.91 85.67,64.64 C 83.03,66.37 79.06,69.56 78.38,70.91 C 77.71,72.26 76.02,72.9 76.03,73.13 C 79.17,71.02 89.67,65.26 97.29,60.82" fill="url(#RadialGradient3)" fill-opacity="1" />
  <path d="M 97.29,60.82 C 98.63,64.41 91,67.57 88.19,69 C 85.38,70.42 80.63,72.28 79.13,72.19 C 77.62,72.11 76.22,73.25 76.03,73.13 C 79.17,71.02 89.67,65.26 97.29,60.82" fill="url(#RadialGradient4)" fill-opacity="1" />
  <path d="M 103.82,57.04 C 103.57,56.67 97.48,60.95 97.29,60.82" stroke-width="0.5" fill="none" stroke="sandybrown" />
  <path d="M 97.06,51.76 C 100.43,47.94 96.2,38.42 93.38,35.32 C 90.57,32.21 84.56,32.78 82.21,31.45 C 79.86,30.13 79.38,29.55 79.08,29.69 C 86.78,38.53 94.91,48.11 97.06,51.76" fill="url(#RadialGradient3)" fill-opacity="1" />
  <path d="M 97.06,51.76 C 92.63,54.29 84.17,48.22 81.69,44.83 C 79.22,41.45 81,35.68 80.18,33.11 C 79.35,30.54 78.88,29.95 79.08,29.69 C 86.78,38.53 94.91,48.11 97.06,51.76" fill="url(#RadialGradient4)" fill-opacity="1" />
  <path d="M 102.87,58.91 C 103.21,58.58 96.86,52.03 97.06,51.76" stroke-width="0.5" fill="none" stroke="sandybrown" />
  <path d="M 100.18,44.29 C 104.67,41.87 108.85,32.81 107.96,29.09 C 107.07,25.38 99.29,16.74 98.15,13.06 C 97,9.38 96.36,7.64 95.95,7.59 C 96.92,12.25 98.33,30.2 100.18,44.29" fill="url(#RadialGradient3)" fill-opacity="1" />
  <path d="M 100.18,44.29 C 95.26,42.95 89.12,35.08 89.14,31.26 C 89.17,27.44 94.78,17.26 95.06,13.42 C 95.34,9.57 95.57,7.73 95.95,7.59 C 96.92,12.25 98.33,30.2 100.18,44.29" fill="url(#RadialGradient4)" fill-opacity="1" />
  <path d="M 101.04,51.82 C 101.8,51.72 99.8,44.43 100.18,44.29" stroke-width="0.5" fill="none" stroke="sandybrown" />
  <path d="M 92.05,61.32 C 87.5,63.34 82.22,65.2 80.66,70.98 C 79.1,76.75 84.82,82.13 84.72,86.19 C 84.62,90.25 84.65,91.08 85.2,91.4 C 86.44,82.5 88.89,74.89 92.05,61.32" fill="url(#RadialGradient3)" fill-opacity="1" />
  <path d="M 92.05,61.32 C 95.27,65.11 99.22,69.07 98.13,74.95 C 97.04,80.83 89.56,83.21 87.9,86.91 C 86.23,90.62 85.84,91.35 85.2,91.4 C 86.44,82.5 88.89,74.89 92.05,61.32" fill="url(#RadialGradient4)" fill-opacity="1" />
  <path d="M 93.81,53.55 C 93.24,53.42 92.68,61.26 92.05,61.32" stroke-width="0.5" fill="none" stroke="sandybrown" />
  <path d="M 76.12,59.1 C 73.8,53.21 65.86,54.44 59.88,54.95 C 53.9,55.47 44.05,58.62 42.1,59.59 C 40.15,60.56 37.19,60.67 37.17,61.17 C 43.16,60.66 66.09,58.79 76.12,59.1" fill="url(#RadialGradient3)" fill-opacity="1" />
  <path d="M 76.12,59.1 C 74.44,65.19 66.41,64.82 60.41,64.94 C 54.41,65.06 44.28,62.98 42.24,62.22 C 40.19,61.46 37.24,61.67 37.17,61.17 C 43.16,60.66 66.09,58.79 76.12,59.1" fill="url(#RadialGradient4)" fill-opacity="1" />
  <path d="M 88.1,58.46 C 88,57.51 76.19,59.59 76.12,59.1" stroke-width="0.5" fill="none" stroke="sandybrown" />
  <path d="M 84.05,71.73 C 79.54,74.4 79.2,82.34 79.72,88.17 C 80.24,94 86.09,99.98 87.74,103.66 C 89.4,107.34 89.1,108.27 89.75,108.27 C 87.55,96.8 85.49,78.4 84.05,71.73" fill="url(#RadialGradient3)" fill-opacity="1" />
  <path d="M 84.05,71.73 C 89.16,72.9 91.9,80.36 93.18,86.07 C 94.46,91.78 90.71,99.26 90.25,103.27 C 89.8,107.28 90.37,108.07 89.75,108.27 C 87.55,96.8 85.49,78.4 84.05,71.73" fill="url(#RadialGradient4)" fill-opacity="1" />
  <path d="M 82.85,64.04 C 82.11,64.18 84.67,71.53 84.05,71.73" stroke-width="0.5" fill="none" stroke="sandybrown" />
  <path d="M 70.06,69.81 C 68.4,65.4 59.59,63.05 55.94,63.69 C 52.3,64.32 44.06,71.27 40.63,73.21 C 37.2,75.15 36.23,74.74 36.3,75.32 C 40.95,75.12 64.54,70.45 70.06,69.81" fill="url(#RadialGradient3)" fill-opacity="1" />
  <path d="M 70.06,69.81 C 69.89,74.52 62.28,79.55 58.62,80.11 C 54.97,80.67 44.95,76.7 41.08,75.95 C 37.21,75.2 36.42,75.89 36.3,75.32 C 40.95,75.12 64.54,70.45 70.06,69.81" fill="url(#RadialGradient4)" fill-opacity="1" />
  <path d="M 79.18,68.33 C 78.99,67.71 70.18,70.38 70.06,69.81" stroke-width="0.5" fill="none" stroke="sandybrown" />
  <path d="M 74.71,82.84 C 70.3,85.25 70.16,88.69 69.98,92.99 C 69.81,97.29 72.26,101.7 72.68,105.16 C 73.1,108.62 73.12,109.38 73.62,109.51 C 73.96,103.49 74.35,95.75 74.71,82.84" fill="url(#RadialGradient3)" fill-opacity="1" />
  <path d="M 74.71,82.84 C 78.9,85.6 78.76,89.04 78.59,93.34 C 78.41,97.64 75.6,101.83 74.9,105.25 C 74.2,108.67 74.12,109.42 73.62,109.51 C 73.96,103.49 74.35,95.75 74.71,82.84" fill="url(#RadialGradient4)" fill-opacity="1" />
  <path d="M 75.09,73.38 C 74.35,73.41 75.21,82.76 74.71,82.84" stroke-width="0.5" fill="none" stroke="sandybrown" />
  <path d="M 63.6,80.55 C 62.25,77.59 54.45,74.47 50.53,74.96 C 46.61,75.44 40.69,82.43 38.57,83.91 C 36.44,85.4 34.22,85.7 34.15,86.01 C 38.93,85.89 58.03,80.82 63.6,80.55" fill="url(#RadialGradient3)" fill-opacity="1" />
  <path d="M 63.6,80.55 C 63.4,83.79 57.24,89.51 53.41,90.46 C 49.58,91.41 41.55,87.01 39.02,86.39 C 36.5,85.76 34.33,86.28 34.15,86.01 C 38.93,85.89 58.03,80.82 63.6,80.55" fill="url(#RadialGradient4)" fill-opacity="1" />
  <path d="M 70.57,79.25 C 70.38,78.59 63.78,80.81 63.6,80.55" stroke-width="0.5" fill="none" stroke="sandybrown" />
  <path d="M 68.27,92.13 C 64.9,93.95 66.13,102.4 66.36,106.67 C 66.59,110.94 68.71,111.41 69.8,113.43 C 70.9,115.45 70.79,116.76 71.11,116.86 C 69.38,107.75 68.9,100.65 68.27,92.13" fill="url(#RadialGradient3)" fill-opacity="1" />
  <path d="M 68.27,92.13 C 71.97,93.14 72.68,101.65 73.43,105.86 C 74.17,110.07 72.21,111.01 71.61,113.23 C 71,115.44 71.4,116.69 71.11,116.86 C 69.38,107.75 68.9,100.65 68.27,92.13" fill="url(#RadialGradient4)" fill-opacity="1" />
  <path d="M 67.3,83.65 C 66.74,83.76 68.57,91.96 68.27,92.13" stroke-width="0.5" fill="none" stroke="sandybrown" />
  <path d="M 58.77,88.91 C 56.65,86.56 53.79,83.11 50.63,83.29 C 47.46,83.47 45.37,88.42 44.17,89.23 C 42.97,90.03 41.76,90.25 41.74,90.46 C 46.8,90.16 55.66,89.59 58.77,88.91" fill="url(#RadialGradient3)" fill-opacity="1" />
  <path d="M 58.77,88.91 C 57.11,91.6 54.92,95.51 51.78,95.91 C 48.63,96.3 45.68,91.81 44.35,91.24 C 43.03,90.67 41.8,90.67 41.74,90.46 C 46.8,90.16 55.66,89.59 58.77,88.91" fill="url(#RadialGradient4)" fill-opacity="1" />
  <path d="M 63.82,88.45 C 63.74,88.08 58.84,89.11 58.77,88.91" stroke-width="0.5" fill="none" stroke="sandybrown" />
  <path d="M 60.33,95.73 C 57.14,96.38 53.89,98.19 52.99,101.42 C 52.1,104.65 54.55,107.89 54.46,109.63 C 54.36,111.37 54.09,112.35 54.38,112.56 C 56.37,108.53 58.15,102.06 60.33,95.73" fill="url(#RadialGradient3)" fill-opacity="1" />
  <path d="M 60.33,95.73 C 62.4,98.24 63.79,101.69 62.46,104.77 C 61.12,107.84 57.18,108.82 56.16,110.23 C 55.14,111.64 54.74,112.58 54.38,112.56 C 56.37,108.53 58.15,102.06 60.33,95.73" fill="url(#RadialGradient4)" fill-opacity="1" />
  <path d="M 62,91 C 61.63,90.89 60.69,95.75 60.33,95.73" stroke-width="0.5" fill="none" stroke="sandybrown" />
  <path d="M 67,96 C 157,137 142,105 138,117" stroke-width="0.5" fill="none" stroke="brown" />
  <path d="M 81.79,96.43 C 84.8,98.53 91.42,96.36 94.83,94.72 C 98.23,93.09 99.75,90.3 100.52,88.95 C 101.29,87.59 103.1,87.11 103.05,86.89 C 99.05,88.76 89.13,92.8 81.79,96.43" fill="url(#RadialGradient3)" fill-opacity="1" />
  <path d="M 81.79,96.43 C 82.22,92.79 88.25,89.29 91.73,87.83 C 95.22,86.37 98.3,87.09 99.83,87.42 C 101.36,87.74 102.92,86.7 103.05,86.89 C 99.05,88.76 89.13,92.8 81.79,96.43" fill="url(#RadialGradient4)" fill-opacity="1" />
  <path d="M 74.9,99.53 C 75.07,99.88 81.66,96.25 81.79,96.43" stroke-width="0.5" fill="none" stroke="sandybrown" />
  <path d="M 88.07,109.35 C 86.54,113.24 85.66,119.69 88.26,123.99 C 90.85,128.3 97.04,128.41 99.28,129.98 C 101.52,131.55 102.53,133.72 103.02,133.58 C 101.03,129.89 94.35,119.25 88.07,109.35" fill="url(#RadialGradient3)" fill-opacity="1" />
  <path d="M 88.07,109.35 C 92.24,109.73 98.4,111.83 101.09,116.08 C 103.77,120.33 101.09,125.92 101.49,128.62 C 101.89,131.33 103.37,133.2 103.02,133.58 C 101.03,129.89 94.35,119.25 88.07,109.35" fill="url(#RadialGradient4)" fill-opacity="1" />
  <path d="M 84.56,103.64 C 84.16,103.9 88.42,108.96 88.07,109.35" stroke-width="0.5" fill="none" stroke="sandybrown" />
  <path d="M 98.81,102.51 C 103.46,105.48 112.61,104.71 117.87,102.53 C 123.13,100.35 121.03,94 123.22,92.04 C 125.42,90.07 126.05,89.32 125.94,88.99 C 118.2,92.57 104.44,98.94 98.81,102.51" fill="url(#RadialGradient3)" fill-opacity="1" />
  <path d="M 98.81,102.51 C 99.24,97 105.35,90.16 110.27,87.27 C 115.18,84.38 118.98,89.89 121.87,89.32 C 124.76,88.75 125.74,88.69 125.94,88.99 C 118.2,92.57 104.44,98.94 98.81,102.51" fill="url(#RadialGradient4)" fill-opacity="1" />
  <path d="M 91.18,106.31 C 91.6,107.05 98.62,102.21 98.81,102.51" stroke-width="0.5" fill="none" stroke="sandybrown" />
  <path d="M 101.64,118.68 C 97.35,123.8 102.67,133.43 105,138.93 C 107.33,144.43 111.46,148.06 113.92,150.25 C 116.39,152.43 116.19,153.47 116.7,153.38 C 114.18,147.97 107.29,129.26 101.64,118.68" fill="url(#RadialGradient3)" fill-opacity="1" />
  <path d="M 101.64,118.68 C 108.31,119.05 111.71,129.51 114.13,134.97 C 116.56,140.42 116.4,145.92 116.31,149.21 C 116.22,152.51 117.11,153.07 116.7,153.38 C 114.18,147.97 107.29,129.26 101.64,118.68" fill="url(#RadialGradient4)" fill-opacity="1" />
  <path d="M 97.29,108.64 C 96.85,108.88 102.05,118.37 101.64,118.68" stroke-width="0.5" fill="none" stroke="sandybrown" />
  <path d="M 114.54,106.41 C 118.98,110.91 125.97,109.27 130.63,107.42 C 135.29,105.57 136.5,98.95 139.44,95.87 C 142.39,92.8 144.23,92.43 144.16,91.87 C 134.58,97.32 125.32,101.14 114.54,106.41" fill="url(#RadialGradient3)" fill-opacity="1" />
  <path d="M 114.54,106.41 C 113.69,100.14 119.26,95.62 123.58,93.06 C 127.89,90.5 133.87,93.6 138.1,93.15 C 142.34,92.7 143.76,91.46 144.16,91.87 C 134.58,97.32 125.32,101.14 114.54,106.41" fill="url(#RadialGradient4)" fill-opacity="1" />
  <path d="M 104.66,111.26 C 105.14,112.04 114.13,106 114.54,106.41" stroke-width="0.5" fill="none" stroke="sandybrown" />
  <path d="M 115.46,123.18 C 111.27,128.18 113.38,133.63 115.53,138 C 117.67,142.38 122.79,146.52 125.09,148.71 C 127.39,150.89 128.22,153.51 128.62,153.54 C 125.77,146.29 117.32,128.74 115.46,123.18" fill="url(#RadialGradient3)" fill-opacity="1" />
  <path d="M 115.46,123.18 C 121.98,123.53 124.51,128.8 126.24,133.36 C 127.97,137.91 127.49,144.48 127.52,147.66 C 127.54,150.83 128.88,153.22 128.62,153.54 C 125.77,146.29 117.32,128.74 115.46,123.18" fill="url(#RadialGradient4)" fill-opacity="1" />
  <path d="M 111.21,113.35 C 110.36,113.77 115.72,122.86 115.46,123.18" stroke-width="0.5" fill="none" stroke="sandybrown" />
  <path d="M 126.25,110.62 C 130.19,113.66 139.43,111.13 144.34,108.54 C 149.25,105.94 154.28,96.28 155.58,94.84 C 156.87,93.39 158.17,92.06 158.1,91.83 C 153.28,94.58 132.62,106.86 126.25,110.62" fill="url(#RadialGradient3)" fill-opacity="1" />
  <path d="M 126.25,110.62 C 125.49,105.7 132.18,98.84 136.82,95.8 C 141.47,92.76 152.36,93.02 154.25,92.59 C 156.14,92.15 157.94,91.67 158.1,91.83 C 153.28,94.58 132.62,106.86 126.25,110.62" fill="url(#RadialGradient4)" fill-opacity="1" />
  <path d="M 118.28,115.32 C 118.63,115.88 126.08,110.45 126.25,110.62" stroke-width="0.5" fill="none" stroke="sandybrown" />
  <path d="M 129.84,124.13 C 126.37,128.33 128.43,135.16 130.37,138 C 132.32,140.85 138.76,141.9 140.58,143.81 C 142.4,145.72 143.56,146.96 143.96,146.77 C 138.54,138.99 135.06,133.05 129.84,124.13" fill="url(#RadialGradient3)" fill-opacity="1" />
  <path d="M 129.84,124.13 C 135.13,122.86 140.36,127.71 142.06,130.71 C 143.76,133.71 141.87,139.96 142.79,142.43 C 143.7,144.9 144.31,146.5 143.96,146.77 C 138.54,138.99 135.06,133.05 129.84,124.13" fill="url(#RadialGradient4)" fill-opacity="1" />
  <path d="M 125.28,116.83 C 124.82,117.12 130.18,123.86 129.84,124.13" stroke-width="0.5" fill="none" stroke="sandybrown" />
  <path d="M 136.36,113.52 C 140.72,114.97 143.57,113.45 147.22,110.44 C 150.86,107.42 150.93,103.87 152.59,100.96 C 154.24,98.04 154.38,98.44 154.31,98.12 C 146.99,104.12 144.8,106.41 136.36,113.52" fill="url(#RadialGradient3)" fill-opacity="1" />
  <path d="M 136.36,113.52 C 135.59,108.99 137.52,106.4 141.06,103.26 C 144.59,100.11 148.11,100.58 151.25,99.39 C 154.38,98.21 154,98.01 154.31,98.12 C 146.99,104.12 144.8,106.41 136.36,113.52" fill="url(#RadialGradient4)" fill-opacity="1" />
  <path d="M 131.57,117.62 C 131.98,117.99 136.05,113.4 136.36,113.52" stroke-width="0.5" fill="none" stroke="sandybrown" />
  <path d="M 144.64,122.14 C 142.88,126.09 145.9,129.25 149,131.01 C 152.1,132.76 156.29,131.59 158.31,132.42 C 160.32,133.25 160.93,133.39 161.24,133.15 C 157.67,130.81 151.44,126.04 144.64,122.14" fill="url(#RadialGradient3)" fill-opacity="1" />
  <path d="M 144.64,122.14 C 147.6,118.98 151.69,120.53 154.51,122.71 C 157.33,124.89 157.88,129.21 159.42,130.74 C 160.96,132.28 161.33,132.78 161.24,133.15 C 157.67,130.81 151.44,126.04 144.64,122.14" fill="url(#RadialGradient4)" fill-opacity="1" />
  <path d="M 137.53,117.42 C 137.35,117.81 144.74,121.76 144.64,122.14" stroke-width="0.5" fill="none" stroke="sandybrown" />
  <path d="M 134.37,118.33 C 131.74,115.52 129.96,118.56 126.63,120.43 C 123.31,122.3 118.72,126.84 118.11,128.2 C 117.49,129.56 115.68,130.27 115.9,130.61 C 119.13,128.6 129.52,121.34 134.37,118.33" fill="url(#RadialGradient3)" fill-opacity="1" />
  <path d="M 134.37,118.33 C 135.94,121.85 132.45,122.31 129.44,124.65 C 126.43,126.99 120.46,129.46 118.97,129.5 C 117.47,129.54 116.12,130.94 115.9,130.61 C 119.13,128.6 129.52,121.34 134.37,118.33" fill="url(#RadialGradient4)" fill-opacity="1" />
  <path d="M 140.7,114.13 C 140.44,113.74 134.59,118.67 134.37,118.33" stroke-width="0.5" fill="none" stroke="sandybrown" />
  <path d="M 134.32,121.91 C 131.42,121.13 127.85,125.42 126.29,127.04 C 124.73,128.66 122.62,135.44 122.37,136.65 C 122.13,137.86 121.48,138.65 121.61,138.86 C 123.55,135.44 131.39,125.29 134.32,121.91" fill="url(#RadialGradient3)" fill-opacity="1" />
  <path d="M 134.32,121.91 C 135.88,124.47 132.76,129.11 131.64,131.06 C 130.52,133 124.61,136.94 123.52,137.51 C 122.42,138.08 121.85,138.92 121.61,138.86 C 123.55,135.44 131.39,125.29 134.32,121.91" fill="url(#RadialGradient4)" fill-opacity="1" />
  <path d="M 138,117 C 137.73,116.82 134.56,121.97 134.32,121.91" stroke-width="0.5" fill="none" stroke="sandybrown" />
  <path d="M 1,135 C 138,40 72,126 151,56" stroke-width="0.5" fill="none" stroke="brown" />
  <path d="M 21.54,125.48 C 21.3,129.31 28.44,132 31.45,132.95 C 34.46,133.89 38.94,131.31 40.35,130.82 C 41.75,130.33 42.87,130.73 43.02,130.45 C 38.1,129.36 25.8,126.66 21.54,125.48" fill="url(#RadialGradient3)" fill-opacity="1" />
  <path d="M 21.54,125.48 C 23.01,121.95 30.6,122.66 33.72,123.13 C 36.84,123.6 39.73,127.89 40.78,128.95 C 41.83,130.01 43.01,130.14 43.02,130.45 C 38.1,129.36 25.8,126.66 21.54,125.48" fill="url(#RadialGradient4)" fill-opacity="1" />
  <path d="M 16.63,124.35 C 16.54,124.78 21.54,125.17 21.54,125.48" stroke-width="0.5" fill="none" stroke="sandybrown" />
  <path d="M 32.09,105.43 C 35.54,105.16 37.41,94.44 38.19,89.47 C 38.96,84.51 38.25,81.84 37.52,79.17 C 36.78,76.49 37.53,75.8 37.11,75.7 C 36.62,83.26 32.14,100.34 32.09,105.43" fill="url(#RadialGradient3)" fill-opacity="1" />
  <path d="M 32.09,105.43 C 28.93,104.04 30.68,93.3 31.58,88.35 C 32.48,83.41 34.03,81.12 35.6,78.84 C 37.17,76.56 36.69,75.66 37.11,75.7 C 36.62,83.26 32.14,100.34 32.09,105.43" fill="url(#RadialGradient4)" fill-opacity="1" />
  <path d="M 30.42,115.34 C 30.95,115.42 31.66,105.39 32.09,105.43" stroke-width="0.5" fill="none" stroke="sandybrown" />
  <path d="M 52.76,107.26 C 55.03,111.41 58.73,112.29 63.47,112.63 C 68.2,112.97 71.26,111.67 73.22,111.34 C 75.18,111 78.93,111.5 79.01,111.05 C 67.73,109.61 57.55,107.2 52.76,107.26" fill="url(#RadialGradient3)" fill-opacity="1" />
  <path d="M 52.76,107.26 C 56.11,103.91 59.91,104.12 64.55,105.13 C 69.19,106.15 71.75,108.26 73.54,109.13 C 75.33,110.01 79.06,110.59 79.01,111.05 C 67.73,109.61 57.55,107.2 52.76,107.26" fill="url(#RadialGradient4)" fill-opacity="1" />
  <path d="M 45.26,106.18 C 45.19,106.83 52.81,106.8 52.76,107.26" stroke-width="0.5" fill="none" stroke="sandybrown" />
  <path d="M 60.31,90.54 C 65.65,90.09 70.3,77.99 71.85,73.25 C 73.39,68.52 70.59,64.54 70.97,60.49 C 71.34,56.44 71.7,54.64 71.38,54.37 C 68.98,61.97 63.88,82.26 60.31,90.54" fill="url(#RadialGradient3)" fill-opacity="1" />
  <path d="M 60.31,90.54 C 56.13,87.18 59.06,74.54 60.43,69.76 C 61.8,64.97 66.35,63.24 68.31,59.68 C 70.26,56.11 70.97,54.42 71.38,54.37 C 68.98,61.97 63.88,82.26 60.31,90.54" fill="url(#RadialGradient4)" fill-opacity="1" />
  <path d="M 57.69,99.11 C 58.33,99.27 59.9,90.59 60.31,90.54" stroke-width="0.5" fill="none" stroke="sandybrown" />
  <path d="M 79.19,94.61 C 79.91,99.03 83.69,100.35 89.46,102 C 95.23,103.66 100.43,103.77 103.67,103.46 C 106.91,103.15 108.57,104.35 108.79,103.84 C 97.57,99.52 85,96.14 79.19,94.61" fill="url(#RadialGradient3)" fill-opacity="1" />
  <path d="M 79.19,94.61 C 82.29,91.39 86.15,92.45 91.84,94.37 C 97.53,96.28 101.87,99.15 104.36,101.24 C 106.85,103.34 108.9,103.3 108.79,103.84 C 97.57,99.52 85,96.14 79.19,94.61" fill="url(#RadialGradient4)" fill-opacity="1" />
  <path d="M 71.56,92.23 C 71.42,92.75 79.3,94.07 79.19,94.61" stroke-width="0.5" fill="none" stroke="sandybrown" />
  <path d="M 90.35,78.74 C 95.06,80.29 101.98,74.13 103.83,70.7 C 105.67,67.28 105.54,57.14 106,54.05 C 106.47,50.96 107.63,49.49 107.09,49.08 C 100.88,61.22 95.08,70.24 90.35,78.74" fill="url(#RadialGradient3)" fill-opacity="1" />
  <path d="M 90.35,78.74 C 86.59,75.5 88.28,66.4 90.26,63.05 C 92.25,59.7 100.99,54.58 103.4,52.58 C 105.8,50.58 106.46,48.83 107.09,49.08 C 100.88,61.22 95.08,70.24 90.35,78.74" fill="url(#RadialGradient4)" fill-opacity="1" />
  <path d="M 85.56,87.22 C 86.35,87.59 89.72,78.5 90.35,78.74" stroke-width="0.5" fill="none" stroke="sandybrown" />
  <path d="M 105.27,94.5 C 102.07,97.97 103.66,108.24 105.94,111.15 C 108.23,114.07 116.46,113.8 119.23,116.36 C 122,118.91 122.94,119.3 123.2,119.18 C 114.63,108.27 112.44,103.01 105.27,94.5" fill="url(#RadialGradient3)" fill-opacity="1" />
  <path d="M 105.27,94.5 C 109.55,92.53 118.84,97.21 120.9,100.29 C 122.96,103.36 120.17,111.1 121.74,114.53 C 123.32,117.95 123.4,118.97 123.2,119.18 C 114.63,108.27 112.44,103.01 105.27,94.5" fill="url(#RadialGradient4)" fill-opacity="1" />
  <path d="M 99.29,86.28 C 98.71,86.71 105.47,94.29 105.27,94.5" stroke-width="0.5" fill="none" stroke="sandybrown" />
  <path d="M 116.34,75.65 C 121.78,75.68 127.87,67.75 129.75,62.93 C 131.64,58.12 127.27,51.18 126.71,49.17 C 126.15,47.16 126.78,45.72 126.59,45.49 C 123.12,53.41 121.12,63.64 116.34,75.65" fill="url(#RadialGradient3)" fill-opacity="1" />
  <path d="M 116.34,75.65 C 112,72.36 112.01,62.36 113.45,57.39 C 114.89,52.43 122.58,49.58 124.25,48.33 C 125.92,47.08 126.3,45.56 126.59,45.49 C 123.12,53.41 121.12,63.64 116.34,75.65" fill="url(#RadialGradient4)" fill-opacity="1" />
  <path d="M 113.29,84.61 C 113.74,84.76 116.05,75.72 116.34,75.65" stroke-width="0.5" fill="none" stroke="sandybrown" />
  <path d="M 131.45,78.13 C 133.16,83.14 137.86,83.66 142.54,84.4 C 147.21,85.14 149.13,82.71 151.62,81.92 C 154.11,81.13 156.33,81.97 156.45,81.5 C 148.67,80.23 142.49,78.85 131.45,78.13" fill="url(#RadialGradient3)" fill-opacity="1" />
  <path d="M 131.45,78.13 C 134.42,73.76 139.1,74.5 143.8,75.02 C 148.5,75.54 149.71,78.39 151.9,79.81 C 154.1,81.23 156.45,81.02 156.45,81.5 C 148.67,80.23 142.49,78.85 131.45,78.13" fill="url(#RadialGradient4)" fill-opacity="1" />
  <path d="M 125.2,77.29 C 125.17,77.71 131.46,77.65 131.45,78.13" stroke-width="0.5" fill="none" stroke="sandybrown" />
  <path d="M 137.51,61.62 C 140.44,61.41 145.32,51.43 145.56,48.58 C 145.8,45.74 142.86,40.89 142.55,38.67 C 142.24,36.45 142.6,35.11 142.15,34.99 C 140.98,45.62 138.96,54.65 137.51,61.62" fill="url(#RadialGradient3)" fill-opacity="1" />
  <path d="M 137.51,61.62 C 134.83,60.43 133.61,49.39 134.35,46.63 C 135.08,43.87 139.48,40.3 140.52,38.32 C 141.57,36.33 141.68,34.95 142.15,34.99 C 140.98,45.62 138.96,54.65 137.51,61.62" fill="url(#RadialGradient4)" fill-opacity="1" />
  <path d="M 136.29,68.63 C 136.95,68.68 137.05,61.58 137.51,61.62" stroke-width="0.5" fill="none" stroke="sandybrown" />
  <path d="M 151.45,60.3 C 153.23,62.92 154.96,66.36 158.77,66.36 C 162.57,66.36 165.3,62.4 167.86,62 C 170.41,61.6 171,61.45 171.07,61.24 C 166.61,61.62 158.42,60.48 151.45,60.3" fill="url(#RadialGradient3)" fill-opacity="1" />
  <path d="M 151.45,60.3 C 153.47,57.86 155.53,54.6 159.32,54.97 C 163.1,55.33 165.44,59.53 167.95,60.18 C 170.45,60.82 171.02,61.02 171.07,61.24 C 166.61,61.62 158.42,60.48 151.45,60.3" fill="url(#RadialGradient4)" fill-opacity="1" />
  <path d="M 146.39,60.05 C 146.39,60.54 151.4,60.08 151.45,60.3" stroke-width="0.5" fill="none" stroke="sandybrown" />
  <path d="M 153.24,52.14 C 156.49,52.1 157.46,48.79 158.81,47 C 160.17,45.2 162.03,39.83 162.23,38.01 C 162.42,36.19 162.95,35.96 162.77,35.75 C 158.58,42.99 155.33,49.49 153.24,52.14" fill="url(#RadialGradient3)" fill-opacity="1" />
  <path d="M 153.24,52.14 C 151.67,49.29 154.07,46.82 154.96,44.75 C 155.85,42.69 159.59,38.42 161.08,37.34 C 162.56,36.27 162.5,35.7 162.77,35.75 C 158.58,42.99 155.33,49.49 153.24,52.14" fill="url(#RadialGradient4)" fill-opacity="1" />
  <path d="M 151,56 C 151.32,56.14 152.97,52.1 153.24,52.14" stroke-width="0.5" fill="none" stroke="sandybrown" />
</svg>
