<svg width="640" height="640" viewBox="0 0 640 640" xmlns="http://www.w3.org/2000/svg" xmlns:xlink="http://www.w3.org/1999/xlink">
  <radialGradient id="RadialGradient3" cx="0.35" cy="0.63" r="0.7">
    <stop offset="0%" stop-color="#00FF00" />
    <stop offset="100%" stop-color="#008000" />
  </radialGradient>
  <radialGradient id="RadialGradient4" cx="0.5" cy="0.5" r="0.5">
    <stop offset="0%" stop-color="#40DD40" />
    <stop offset="100%" stop-color="#208020" />
  </radialGradient>
  <path d="M 319,502 C 161,604 426,464 528,261" stroke-width="2" fill="none" stroke="brown" />
  <path d="M 273.16,556.42 C 260.35,555.5 245.98,569.83 243.28,579.54 C 240.58,589.25 251.08,610.43 251.94,618.51 C 252.8,626.58 252.49,628.65 253.08,629.27 C 258.43,602.01 266.29,588.5 273.16,556.42" fill="url(#RadialGradient3)" fill-opacity="1" />
  <path d="M 273.16,556.42 C 284.64,562.2 289.64,581.87 286.99,591.59 C 284.33,601.31 264.45,614.12 259.58,620.61 C 254.71,627.11 253.91,629.04 253.08,629.27 C 258.43,602.01 266.29,588.5 273.16,556.42" fill="url(#RadialGradient4)" fill-opacity="1" />
  <path d="M 281.2,527.28 C 278.9,526.86 273.99,556.19 273.16,556.42" stroke-width="2" fill="none" stroke="sandybrown" />
  <path d="M 319.81,525.27 C 326.38,546.76 355.85,553.33 372.63,554.55 C 389.41,555.77 420.86,550.54 434.65,549.36 C 448.44,548.18 454.58,549.24 455.25,548.08 C 432.42,542.46 366.15,532.5 319.81,525.27" fill="url(#RadialGradient3)" fill-opacity="1" />
  <path d="M 319.81,525.27 C 333.06,507.12 363.05,510.56 379.3,514.91 C 395.56,519.25 423.57,534.5 436.21,540.13 C 448.85,545.76 455,546.76 455.25,548.08 C 432.42,542.46 366.15,532.5 319.81,525.27" fill="url(#RadialGradient4)" fill-opacity="1" />
  <path d="M 293.38,520.82 C 293.03,523 319.56,523.95 319.81,525.27" stroke-width="2" fill="none" stroke="sandybrown" />
  <path d="M 335.37,453.44 C 354.69,453.15 374.85,422.2 379.23,403.74 C 383.6,385.28 362.94,366.06 360.03,353.96 C 357.11,341.86 358.52,338.69 356.7,337.93 C 353.63,360.48 343.01,397.05 335.37,453.44" fill="url(#RadialGradient3)" fill-opacity="1" />
  <path d="M 335.37,453.44 C 317.43,446.27 309.66,410.16 312.16,391.36 C 314.66,372.55 340.83,361.97 347.88,351.72 C 354.92,341.46 354.74,337.99 356.7,337.93 C 353.63,360.48 343.01,397.05 335.37,453.44" fill="url(#RadialGradient4)" fill-opacity="1" />
  <path d="M 327.81,494.42 C 331.2,494.78 333.41,453.49 335.37,453.44" stroke-width="2" fill="none" stroke="sandybrown" />
  <path d="M 398.44,473.75 C 406.86,499.1 426.21,504.38 445.7,508.71 C 465.19,513.04 491.7,496.5 507.97,495.22 C 524.25,493.95 523.6,494.03 524.54,491.9 C 492.88,488.33 437.9,479.06 398.44,473.75" fill="url(#RadialGradient3)" fill-opacity="1" />
  <path d="M 398.44,473.75 C 413.66,451.81 433.72,452.2 453.64,453.54 C 473.56,454.88 494.33,478.23 509.58,484.04 C 524.84,489.84 524.24,489.58 524.54,491.9 C 492.88,488.33 437.9,479.06 398.44,473.75" fill="url(#RadialGradient4)" fill-opacity="1" />
  <path d="M 359.03,468.08 C 359,470.51 398.13,471.44 398.44,473.75" stroke-width="2" fill="none" stroke="sandybrown" />
  <path d="M 389.87,408.62 C 413.97,405.3 414.97,369.31 415.54,349.32 C 416.12,329.33 399.97,304.86 398.18,296.81 C 396.4,288.76 395.24,272.73 393.68,272.67 C 391.57,308.63 392.07,352.66 389.87,408.62" fill="url(#RadialGradient3)" fill-opacity="1" />
  <path d="M 389.87,408.62 C 365.99,403.95 367.01,367.96 367.56,347.97 C 368.11,327.98 385.61,304.46 387.84,296.52 C 390.07,288.58 392.13,272.64 393.68,272.67 C 391.57,308.63 392.07,352.66 389.87,408.62" fill="url(#RadialGradient4)" fill-opacity="1" />
  <path d="M 388.97,440.61 C 391.01,440.65 388.31,408.59 389.87,408.62" stroke-width="2" fill="none" stroke="sandybrown" />
  <path d="M 450.48,410.76 C 460.07,429.4 492.13,437.46 511.56,436.23 C 531,435 552.14,410.56 563.43,405.96 C 574.73,401.37 577.87,401.36 578.37,398.59 C 520.3,404.79 508.94,408.65 450.48,410.76" fill="url(#RadialGradient3)" fill-opacity="1" />
  <path d="M 450.48,410.76 C 456.38,390.64 486.34,376.68 505.66,374.22 C 524.98,371.76 550.35,391.78 562.31,394.16 C 574.27,396.54 577.35,395.96 578.37,398.59 C 520.3,404.79 508.94,408.65 450.48,410.76" fill="url(#RadialGradient4)" fill-opacity="1" />
  <path d="M 415.6,414.07 C 415.97,417.61 449.46,408.12 450.48,410.76" stroke-width="2" fill="none" stroke="sandybrown" />
  <path d="M 435.58,349.43 C 457.52,344.49 457.1,311.18 454.61,292.8 C 452.11,274.42 437.35,245.62 434.09,234.69 C 430.83,223.77 429.17,216.5 428.09,216.51 C 428.88,253.51 434.54,319.86 435.58,349.43" fill="url(#RadialGradient3)" fill-opacity="1" />
  <path d="M 435.58,349.43 C 413.22,346.98 409.89,313.84 410.3,295.29 C 410.72,276.75 422.15,246.48 424.16,235.25 C 426.18,224.03 427,216.62 428.09,216.51 C 428.88,253.51 434.54,319.86 435.58,349.43" fill="url(#RadialGradient4)" fill-opacity="1" />
  <path d="M 437.86,390.04 C 440.61,389.78 434.49,349.54 435.58,349.43" stroke-width="2" fill="none" stroke="sandybrown" />
  <path d="M 494.78,355.46 C 507.06,371.34 544.09,361.95 564.79,361.05 C 585.48,360.14 601.85,351.89 611.53,345.83 C 621.21,339.76 624.75,341.01 624.72,340.09 C 576.99,346.99 525.76,353.59 494.78,355.46" fill="url(#RadialGradient3)" fill-opacity="1" />
  <path d="M 494.78,355.46 C 503.02,337.15 541.21,337.64 561.55,333.69 C 581.89,329.74 599.72,333.95 610.56,337.59 C 621.39,341.23 624.53,339.19 624.72,340.09 C 576.99,346.99 525.76,353.59 494.78,355.46" fill="url(#RadialGradient4)" fill-opacity="1" />
  <path d="M 464,359.1 C 464.66,362.01 494.59,354.56 494.78,355.46" stroke-width="2" fill="none" stroke="sandybrown" />
  <path d="M 483.57,306.53 C 499.02,299.48 500.76,286.77 500.67,267.84 C 500.58,248.9 486.05,224.34 483.37,211.84 C 480.69,199.34 479.13,196.73 478.33,196.3 C 481.59,234.02 482.99,262.36 483.57,306.53" fill="url(#RadialGradient3)" fill-opacity="1" />
  <path d="M 483.57,306.53 C 467.52,300.98 464.58,288.49 462.88,269.63 C 461.18,250.77 473.31,224.95 474.79,212.25 C 476.27,199.55 477.58,196.81 478.33,196.3 C 481.59,234.02 482.99,262.36 483.57,306.53" fill="url(#RadialGradient4)" fill-opacity="1" />
  <path d="M 484.77,331.72 C 487.27,331.59 482.82,307.03 483.57,306.53" stroke-width="2" fill="none" stroke="sandybrown" />
  <path d="M 537.55,296.11 C 543.23,309.46 570.65,301.55 581.65,298.57 C 592.66,295.59 619.84,286.58 624.59,281.44 C 629.33,276.31 640.94,276.62 640.62,274.69 C 627.07,279.4 552.02,295.81 537.55,296.11" fill="url(#RadialGradient3)" fill-opacity="1" />
  <path d="M 537.55,296.11 C 537.45,281.6 565.74,277.93 577.02,276.28 C 588.3,274.64 616.83,272.07 623.23,274.89 C 629.63,277.71 640.15,272.81 640.62,274.69 C 627.07,279.4 552.02,295.81 537.55,296.11" fill="url(#RadialGradient4)" fill-opacity="1" />
  <path d="M 504.13,303.05 C 504.68,304.88 537.08,294.22 537.55,296.11" stroke-width="2" fill="none" stroke="sandybrown" />
  <path d="M 512.24,254.67 C 523.33,246.72 531.77,226.38 528.98,216.62 C 526.19,206.87 503.14,189.05 498.06,179.86 C 492.98,170.68 491.84,166.01 490.45,166.08 C 496.25,182.92 506.69,232.55 512.24,254.67" fill="url(#RadialGradient3)" fill-opacity="1" />
  <path d="M 512.24,254.67 C 498.73,252.77 481.82,238.66 479.76,228.73 C 477.71,218.8 489.86,192.32 490.1,181.82 C 490.34,171.32 489.19,166.67 490.45,166.08 C 496.25,182.92 506.69,232.55 512.24,254.67" fill="url(#RadialGradient4)" fill-opacity="1" />
  <path d="M 518.29,279.28 C 520.01,278.75 510.98,255.26 512.24,254.67" stroke-width="2" fill="none" stroke="sandybrown" />
  <path d="M 542.72,247.35 C 550.42,252.37 573.31,240.96 579.51,234.52 C 585.71,228.08 594.98,205.28 600.53,198.14 C 606.07,190.99 605.63,190.76 604.87,189.7 C 596.34,196.9 553.34,235.83 542.72,247.35" fill="url(#RadialGradient3)" fill-opacity="1" />
  <path d="M 542.72,247.35 C 538.29,239.29 551.38,217.32 558.27,211.62 C 565.15,205.92 588.59,198.38 596.13,193.39 C 603.67,188.4 603.87,188.86 604.87,189.7 C 596.34,196.9 553.34,235.83 542.72,247.35" fill="url(#RadialGradient4)" fill-opacity="1" />
  <path d="M 528,261 C 529.37,262.34 541.72,246.51 542.72,247.35" stroke-width="2" fill="none" stroke="sandybrown" />
  <path d="M 21,421 C 107,603 371,352 606,137" stroke-width="2" fill="none" stroke="brown" />
  <path d="M 80.74,504.36 C 69.49,510.56 66.77,543.12 70.4,555.18 C 74.02,567.25 96.38,578.67 102.21,584.75 C 108.05,590.83 109.11,598.24 110.36,598.03 C 101.46,569.14 87.41,518.1 80.74,504.36" fill="url(#RadialGradient3)" fill-opacity="1" />
  <path d="M 80.74,504.36 C 93.51,502.96 114.46,528.04 118.43,539.99 C 122.4,551.95 110.67,574.15 109.4,582.48 C 108.12,590.81 111.51,597.48 110.36,598.03 C 101.46,569.14 87.41,518.1 80.74,504.36" fill="url(#RadialGradient4)" fill-opacity="1" />
  <path d="M 71.63,475.54 C 69.39,476.38 81.89,503.82 80.74,504.36" stroke-width="2" fill="none" stroke="sandybrown" />
  <path d="M 157.24,450.16 C 170.74,453.07 193.81,419.62 201.89,404.92 C 209.96,390.23 199.93,377.83 202.82,368.05 C 205.71,358.27 208.97,349.27 207.5,347.95 C 201.55,363.69 169.34,418.78 157.24,450.16" fill="url(#RadialGradient3)" fill-opacity="1" />
  <path d="M 157.24,450.16 C 146.69,441.24 159.1,402.55 165.81,387.18 C 172.52,371.82 188.47,372.19 194.44,363.93 C 200.42,355.67 205.57,347.6 207.5,347.95 C 201.55,363.69 169.34,418.78 157.24,450.16" fill="url(#RadialGradient4)" fill-opacity="1" />
  <path d="M 142.46,480.22 C 144.35,480.9 155.3,449.81 157.24,450.16" stroke-width="2" fill="none" stroke="sandybrown" />
  <path d="M 237.3,467.74 C 242.54,489.2 279.59,497.67 297.95,502.43 C 316.31,507.19 325.23,504.01 337.27,503.54 C 349.32,503.07 352.16,505.36 353.1,503.67 C 328.09,494.77 261.79,478.33 237.3,467.74" fill="url(#RadialGradient3)" fill-opacity="1" />
  <path d="M 237.3,467.74 C 253.77,453.02 289.1,467.01 306.93,473.48 C 324.76,479.95 330.31,487.61 339.98,494.82 C 349.64,502.03 353.28,501.75 353.1,503.67 C 328.09,494.77 261.79,478.33 237.3,467.74" fill="url(#RadialGradient4)" fill-opacity="1" />
  <path d="M 204.73,457.64 C 204.38,459.84 237.49,465.82 237.3,467.74" stroke-width="2" fill="none" stroke="sandybrown" />
  <path d="M 269.19,395.09 C 285.6,395.42 313.02,353.36 317.65,338.11 C 322.27,322.86 311.17,274.47 310.52,266.04 C 309.88,257.62 312.04,246.6 309.84,245.23 C 305.98,273.06 278.83,360.58 269.19,395.09" fill="url(#RadialGradient3)" fill-opacity="1" />
  <path d="M 269.19,395.09 C 254.86,387.08 252.45,336.92 256.17,321.43 C 259.88,305.94 293.92,269.79 298.73,262.85 C 303.55,255.9 307.25,245.3 309.84,245.23 C 305.98,273.06 278.83,360.58 269.19,395.09" fill="url(#RadialGradient4)" fill-opacity="1" />
  <path d="M 260.85,425.83 C 263.74,426.48 266.6,395.16 269.19,395.09" stroke-width="2" fill="none" stroke="sandybrown" />
  <path d="M 367.82,392.93 C 372.82,410.1 405.07,433.87 425.03,435.9 C 444.99,437.94 456.27,420.71 472.98,418.27 C 489.69,415.84 489.34,416.22 489.8,415.2 C 450.38,408.41 410.73,402.91 367.82,392.93" fill="url(#RadialGradient3)" fill-opacity="1" />
  <path d="M 367.82,392.93 C 378.57,378.62 417.14,367.79 436.53,372.94 C 455.92,378.1 460.38,398.2 475.15,406.39 C 489.92,414.57 489.73,414.09 489.8,415.2 C 450.38,408.41 410.73,402.91 367.82,392.93" fill="url(#RadialGradient4)" fill-opacity="1" />
  <path d="M 320.6,384.3 C 320.1,387.78 367.74,391.81 367.82,392.93" stroke-width="2" fill="none" stroke="sandybrown" />
  <path d="M 371.26,315.57 C 391.24,309.21 400.31,286.45 402.39,263.18 C 404.48,239.91 387.98,230.91 384.03,218.91 C 380.08,206.91 381.87,199.69 379.73,199.08 C 378.29,245.81 374.57,268.97 371.26,315.57" fill="url(#RadialGradient3)" fill-opacity="1" />
  <path d="M 371.26,315.57 C 352.41,306.39 346.73,282.55 348.03,259.23 C 349.34,235.9 366.96,229.38 372.61,218.08 C 378.26,206.78 377.53,199.37 379.73,199.08 C 378.29,245.81 374.57,268.97 371.26,315.57" fill="url(#RadialGradient4)" fill-opacity="1" />
  <path d="M 369,346.63 C 372.69,346.62 369.06,315.86 371.26,315.57" stroke-width="2" fill="none" stroke="sandybrown" />
  <path d="M 441.03,312.13 C 447.99,330.79 488.35,344.37 503.18,343.2 C 518,342.02 559.07,325.88 566.59,320.82 C 574.11,315.76 588.22,316.58 588.9,315.64 C 555.6,316.15 466.83,315.93 441.03,312.13" fill="url(#RadialGradient3)" fill-opacity="1" />
  <path d="M 441.03,312.13 C 448.86,293.82 489.83,282.17 504.58,284.05 C 519.33,285.92 559.59,303.99 566.86,309.4 C 574.13,314.81 588.27,314.66 588.9,315.64 C 555.6,316.15 466.83,315.93 441.03,312.13" fill="url(#RadialGradient4)" fill-opacity="1" />
  <path d="M 411.46,311.43 C 411.46,314.78 440.39,311.16 441.03,312.13" stroke-width="2" fill="none" stroke="sandybrown" />
  <path d="M 464.42,236.97 C 485.6,231.9 481.1,193.49 483.82,172.99 C 486.54,152.49 482.96,131.44 478.74,120.7 C 474.53,109.96 478.46,100.38 476.37,99.76 C 477.25,127.48 466.41,216.41 464.42,236.97" fill="url(#RadialGradient3)" fill-opacity="1" />
  <path d="M 464.42,236.97 C 444.44,228.32 455.51,191.26 456.38,170.6 C 457.24,149.94 464.41,129.82 470.41,119.97 C 476.42,110.13 474.21,100.01 476.37,99.76 C 477.25,127.48 466.41,216.41 464.42,236.97" fill="url(#RadialGradient4)" fill-opacity="1" />
  <path d="M 461.73,267.84 C 464.37,267.77 462.26,237.22 464.42,236.97" stroke-width="2" fill="none" stroke="sandybrown" />
  <path d="M 533.31,232.57 C 540.34,252.51 567.2,266.46 582.97,267.37 C 598.74,268.29 616.94,249.81 623.4,248.98 C 629.86,248.15 639.13,246.79 639.68,245.87 C 615.03,239.68 558.23,236.57 533.31,232.57" fill="url(#RadialGradient3)" fill-opacity="1" />
  <path d="M 533.31,232.57 C 545.04,214.97 574.5,208.06 590.01,211.06 C 605.53,214.06 618.61,236.45 624.67,238.84 C 630.72,241.24 639.38,244.85 639.68,245.87 C 615.03,239.68 558.23,236.57 533.31,232.57" fill="url(#RadialGradient4)" fill-opacity="1" />
  <path d="M 505.15,229.05 C 505.05,231.38 533,231.54 533.31,232.57" stroke-width="2" fill="none" stroke="sandybrown" />
  <path d="M 541.21,170.57 C 552.57,167.66 562.54,142 563.75,130.62 C 564.96,119.23 548.96,110.78 544.69,102.27 C 540.43,93.76 542.2,88.17 540.76,88.06 C 541.82,125.05 543.92,147.8 541.21,170.57" fill="url(#RadialGradient3)" fill-opacity="1" />
  <path d="M 541.21,170.57 C 529.81,167.79 519.56,142.24 518.23,130.86 C 516.9,119.49 532.81,110.87 536.98,102.31 C 541.15,93.75 539.31,88.18 540.76,88.06 C 541.82,125.05 543.92,147.8 541.21,170.57" fill="url(#RadialGradient4)" fill-opacity="1" />
  <path d="M 541.35,196.18 C 543.89,196.11 539.76,170.69 541.21,170.57" stroke-width="2" fill="none" stroke="sandybrown" />
  <path d="M 612.38,158.49 C 616.76,168.95 639.47,171.11 649.63,171.15 C 659.78,171.19 667.63,167.82 677.92,165.85 C 688.21,163.89 690.34,164.42 690.76,163.75 C 655.39,160.89 630.12,158.97 612.38,158.49" fill="url(#RadialGradient3)" fill-opacity="1" />
  <path d="M 612.38,158.49 C 618.11,148.72 640.91,149.61 650.98,150.92 C 661.05,152.24 668.38,156.63 678.31,159.94 C 688.25,163.26 690.43,163.02 690.76,163.75 C 655.39,160.89 630.12,158.97 612.38,158.49" fill="url(#RadialGradient4)" fill-opacity="1" />
  <path d="M 584.56,156.63 C 584.64,158.36 612.05,157.77 612.38,158.49" stroke-width="2" fill="none" stroke="sandybrown" />
  <path d="M 616.47,117.3 C 627.37,120.57 636.45,105.18 642.03,92.99 C 647.62,80.8 651.26,65.05 652.56,55.64 C 653.86,46.23 657.07,43.11 656.27,42.45 C 641.94,70.21 622.16,105.17 616.47,117.3" fill="url(#RadialGradient3)" fill-opacity="1" />
  <path d="M 616.47,117.3 C 607.67,110.1 615.35,93.97 622.33,82.52 C 629.32,71.07 640.34,59.25 647.41,52.9 C 654.49,46.56 655.28,42.16 656.27,42.45 C 641.94,70.21 622.16,105.17 616.47,117.3" fill="url(#RadialGradient4)" fill-opacity="1" />
  <path d="M 606,137 C 607.68,137.7 615.48,117 616.47,117.3" stroke-width="2" fill="none" stroke="sandybrown" />
  <path d="M 200,361 C 422,450 635,373 62,496" stroke-width="2" fill="none" stroke="brown" />
  <path d="M 274.07,408.05 C 261.96,417.43 281.31,444.2 287.89,454.96 C 294.48,465.72 306.75,482 312.06,484.86 C 317.38,487.72 319.73,494.57 320.65,494.54 C 312.6,481.71 290.86,439.05 274.07,408.05" fill="url(#RadialGradient3)" fill-opacity="1" />
  <path d="M 274.07,408.05 C 288.57,403.1 300.28,433.99 305.63,445.41 C 310.99,456.83 317.83,476.03 317.3,482.04 C 316.76,488.05 321.18,493.79 320.65,494.54 C 312.6,481.71 290.86,439.05 274.07,408.05" fill="url(#RadialGradient4)" fill-opacity="1" />
  <path d="M 259.74,381.43 C 258.22,382.42 274.6,407.3 274.07,408.05" stroke-width="2" fill="none" stroke="sandybrown" />
  <path d="M 353.16,377.91 C 366.18,393.58 406.41,382.77 420.43,373.56 C 434.45,364.35 435.91,340.26 442.6,331.79 C 449.29,323.32 451.88,321.78 451.53,320.5 C 411.79,345.47 368.92,371.69 353.16,377.91" fill="url(#RadialGradient3)" fill-opacity="1" />
  <path d="M 353.16,377.91 C 345.92,358.87 375.13,329.16 390.04,321.48 C 404.95,313.8 426.64,324.38 437.31,322.72 C 447.97,321.06 450.59,319.57 451.53,320.5 C 411.79,345.47 368.92,371.69 353.16,377.91" fill="url(#RadialGradient4)" fill-opacity="1" />
  <path d="M 321.33,396.49 C 322.41,398 352.22,376.98 353.16,377.91" stroke-width="2" fill="none" stroke="sandybrown" />
  <path d="M 391.94,429.54 C 381.7,447.19 386.37,486.85 397.16,497.64 C 407.95,508.44 452.56,521.63 464.16,531.79 C 475.77,541.95 481.59,546.54 483.07,545.86 C 470.05,531.99 427.69,473.73 391.94,429.54" fill="url(#RadialGradient3)" fill-opacity="1" />
  <path d="M 391.94,429.54 C 411.52,423.82 448.91,437.85 456.81,450.91 C 464.72,463.97 466.85,510.44 473.93,524.14 C 481.02,537.84 484.08,544.59 483.07,545.86 C 470.05,531.99 427.69,473.73 391.94,429.54" fill="url(#RadialGradient4)" fill-opacity="1" />
  <path d="M 373.24,405.68 C 370.87,407.62 392.95,428.27 391.94,429.54" stroke-width="2" fill="none" stroke="sandybrown" />
  <path d="M 459.58,407.3 C 475.23,419.6 491.67,434.83 514.99,429.58 C 538.32,424.33 546.71,394.07 561.27,386.86 C 575.82,379.64 578.68,377.97 578.82,375.42 C 544.99,387.65 513.49,393.14 459.58,407.3" fill="url(#RadialGradient3)" fill-opacity="1" />
  <path d="M 459.58,407.3 C 467.01,388.83 473.65,367.44 496.48,360.34 C 519.31,353.25 541.69,375.27 557.9,374.26 C 574.11,373.25 577.42,373.27 578.82,375.42 C 544.99,387.65 513.49,393.14 459.58,407.3" fill="url(#RadialGradient4)" fill-opacity="1" />
  <path d="M 428.81,415.53 C 429.42,417.79 458.19,405.15 459.58,407.3" stroke-width="2" fill="none" stroke="sandybrown" />
  <path d="M 335.28,407.85 C 340.06,383.01 310.58,370.15 289.27,359.08 C 267.96,348.01 227.95,337.58 219.28,336.68 C 210.61,335.77 200.37,329.82 199.26,331.49 C 220.55,342.57 302.06,385.33 335.28,407.85" fill="url(#RadialGradient3)" fill-opacity="1" />
  <path d="M 335.28,407.85 C 316.56,424.86 290.23,406.39 269.69,393.96 C 249.14,381.53 219.4,352.81 214.11,345.88 C 208.83,338.95 198.42,333.3 199.26,331.49 C 220.55,342.57 302.06,385.33 335.28,407.85" fill="url(#RadialGradient4)" fill-opacity="1" />
  <path d="M 377.14,431.35 C 378.83,427.92 334.45,409.67 335.28,407.85" stroke-width="2" fill="none" stroke="sandybrown" />
  <path d="M 313.31,468.72 C 292.47,466.44 272.31,490.99 259.98,510.89 C 247.64,530.78 251.98,563.97 248.43,579.73 C 244.89,595.48 241.69,597.72 243.76,599.3 C 264.3,557.3 301.88,493.51 313.31,468.72" fill="url(#RadialGradient3)" fill-opacity="1" />
  <path d="M 313.31,468.72 C 326.83,484.74 317.71,515.17 308.08,536.51 C 298.46,557.85 268.5,572.77 257.4,584.5 C 246.3,596.24 246.23,600.14 243.76,599.3 C 264.3,557.3 301.88,493.51 313.31,468.72" fill="url(#RadialGradient4)" fill-opacity="1" />
  <path d="M 327.95,441.23 C 325.24,439.92 315.78,469.57 313.31,468.72" stroke-width="2" fill="none" stroke="sandybrown" />
  <path d="M 238.81,434.44 C 244.67,416.51 223.01,387.16 210.05,380.02 C 197.09,372.89 154.01,374.01 138.45,371.5 C 122.88,368.99 120.87,365.29 119.62,367.26 C 134.65,378.24 220,422.62 238.81,434.44" fill="url(#RadialGradient3)" fill-opacity="1" />
  <path d="M 238.81,434.44 C 226.51,448.73 190.18,445.4 177.37,438.01 C 164.56,430.62 143.2,393.19 133,381.17 C 122.79,369.16 118.58,369.35 119.62,367.26 C 134.65,378.24 220,422.62 238.81,434.44" fill="url(#RadialGradient4)" fill-opacity="1" />
  <path d="M 271.02,452.59 C 271.97,450.19 237.77,436.53 238.81,434.44" stroke-width="2" fill="none" stroke="sandybrown" />
  <path d="M 199.42,489.88 C 179.74,485.91 170.45,496.08 158.85,508.8 C 147.25,521.53 143.43,541.34 135.79,553.02 C 128.16,564.7 126.28,567.09 127.47,568.74 C 144.01,551.19 165.11,528.5 199.42,489.88" fill="url(#RadialGradient3)" fill-opacity="1" />
  <path d="M 199.42,489.88 C 205.18,509.12 195.9,519.3 184.29,532.01 C 172.68,544.72 153.29,550.34 142.36,559.01 C 131.43,567.68 129.22,569.78 127.47,568.74 C 144.01,551.19 165.11,528.5 199.42,489.88" fill="url(#RadialGradient4)" fill-opacity="1" />
  <path d="M 224.95,461.91 C 222.6,460.1 201.17,490.92 199.42,489.88" stroke-width="2" fill="none" stroke="sandybrown" />
  <path d="M 147.61,458.34 C 151.31,445.87 136.04,415.96 122.95,407.12 C 109.86,398.29 73.65,403.76 63.32,402.65 C 52.99,401.54 45.52,396.6 44.48,397.35 C 59.23,409.58 130.14,444.52 147.61,458.34" fill="url(#RadialGradient3)" fill-opacity="1" />
  <path d="M 147.61,458.34 C 138.47,467.59 104.9,468.62 90.85,461.4 C 76.8,454.19 64.15,419.83 58.2,411.31 C 52.25,402.79 44.32,398.62 44.48,397.35 C 59.23,409.58 130.14,444.52 147.61,458.34" fill="url(#RadialGradient4)" fill-opacity="1" />
  <path d="M 172.03,472.78 C 173.19,470.26 147.45,459.6 147.61,458.34" stroke-width="2" fill="none" stroke="sandybrown" />
  <path d="M 108.01,509.97 C 93.1,506.43 74.29,534.94 63.62,548.31 C 52.95,561.67 58.03,568.73 55.91,577.68 C 53.79,586.62 49.99,590.23 50.69,591.4 C 69.75,559.58 87.21,537.08 108.01,509.97" fill="url(#RadialGradient3)" fill-opacity="1" />
  <path d="M 108.01,509.97 C 116.36,522.81 95.87,550.13 86.89,564.68 C 77.91,579.24 69.55,576.84 61.84,581.85 C 54.14,586.86 52.03,591.66 50.69,591.4 C 69.75,559.58 87.21,537.08 108.01,509.97" fill="url(#RadialGradient4)" fill-opacity="1" />
  <path d="M 127.66,482.05 C 125.7,480.88 109.34,510.23 108.01,509.97" stroke-width="2" fill="none" stroke="sandybrown" />
  <path d="M 62.92,480.15 C 62.94,467.47 63.72,449.57 53.86,441.61 C 43.99,433.65 24.49,442.71 18.78,441.87 C 13.06,441.04 8.88,438.45 8.25,439.01 C 24.07,451.71 51.85,473.79 62.92,480.15" fill="url(#RadialGradient3)" fill-opacity="1" />
  <path d="M 62.92,480.15 C 50.75,483.68 33.77,489.39 23.39,482.11 C 13,474.84 16.3,453.6 13.92,448.34 C 11.53,443.08 7.88,439.78 8.25,439.01 C 24.07,451.71 51.85,473.79 62.92,480.15" fill="url(#RadialGradient4)" fill-opacity="1" />
  <path d="M 79.12,492.33 C 79.88,491.03 62.56,480.91 62.92,480.15" stroke-width="2" fill="none" stroke="sandybrown" />
  <path d="M 44.29,505.46 C 33.13,498.78 18.65,495.33 7.28,502.47 C -4.08,509.61 -5.55,525.78 -10.54,530.66 C -15.52,535.54 -18.98,537.69 -18.67,539.1 C -1.92,532.59 20.78,518.27 44.29,505.46" fill="url(#RadialGradient3)" fill-opacity="1" />
  <path d="M 44.29,505.46 C 43.64,518.45 38.45,532.41 26.2,537.88 C 13.95,543.36 -0.31,535.59 -7.14,537.02 C -13.96,538.45 -17.67,540.13 -18.67,539.1 C -1.92,532.59 20.78,518.27 44.29,505.46" fill="url(#RadialGradient4)" fill-opacity="1" />
  <path d="M 62,496 C 61.2,494.66 45.29,506.49 44.29,505.46" stroke-width="2" fill="none" stroke="sandybrown" />
  <path d="M 579,453 C 138,135 513,40 394,56" stroke-width="2" fill="none" stroke="brown" />
  <path d="M 499.67,420.7 C 490.08,409.58 462.28,411.44 447.45,414.4 C 432.63,417.36 424.01,426.66 419.68,431.15 C 415.34,435.64 407.84,435.69 407.84,436.6 C 425.17,433.34 467.62,427.51 499.67,420.7" fill="url(#RadialGradient3)" fill-opacity="1" />
  <path d="M 499.67,420.7 C 494.37,434.4 467.57,441.99 452.61,444.19 C 437.65,446.38 426.41,440.53 420.82,437.76 C 415.23,434.99 408.15,437.46 407.84,436.6 C 425.17,433.34 467.62,427.51 499.67,420.7" fill="url(#RadialGradient4)" fill-opacity="1" />
  <path d="M 529.46,415.54 C 529.11,414.02 499.98,421.56 499.67,420.7" stroke-width="2" fill="none" stroke="sandybrown" />
  <path d="M 481.35,354.11 C 492.14,341.3 503.71,317.99 499.4,298.36 C 495.09,278.73 471.74,270.37 465.26,261.55 C 458.78,252.74 457.75,243.24 455.69,243.14 C 458.51,259.68 470.22,308.55 481.35,354.11" fill="url(#RadialGradient3)" fill-opacity="1" />
  <path d="M 481.35,354.11 C 466.03,347.33 445.4,331.47 440.65,311.94 C 435.91,292.41 453.22,274.65 455.17,263.89 C 457.13,253.12 453.89,244.14 455.69,243.14 C 458.51,259.68 470.22,308.55 481.35,354.11" fill="url(#RadialGradient4)" fill-opacity="1" />
  <path d="M 487.38,380.22 C 489.21,379.77 479.54,355.11 481.35,354.11" stroke-width="2" fill="none" stroke="sandybrown" />
  <path d="M 418.22,348.92 C 405.81,330.64 371,319.01 348.21,318.72 C 325.42,318.43 323.14,345.1 311.96,348.84 C 300.79,352.58 297.26,354.36 297.17,355.76 C 331.27,354.8 391.9,353.16 418.22,348.92" fill="url(#RadialGradient3)" fill-opacity="1" />
  <path d="M 418.22,348.92 C 407.95,368.47 374.67,383.95 352.06,386.81 C 329.45,389.67 324.17,363.43 312.65,360.97 C 301.12,358.51 297.42,357.14 297.17,355.76 C 331.27,354.8 391.9,353.16 418.22,348.92" fill="url(#RadialGradient4)" fill-opacity="1" />
  <path d="M 452.27,346.99 C 451.91,343.6 418.47,350.3 418.22,348.92" stroke-width="2" fill="none" stroke="sandybrown" />
  <path d="M 427.49,272.2 C 452.35,262.43 452.07,218.43 454.41,194.66 C 456.75,170.88 449.21,150.22 444.72,137.83 C 440.24,125.44 442.9,122.17 440.96,121.5 C 439.47,145.35 427.89,224.26 427.49,272.2" fill="url(#RadialGradient3)" fill-opacity="1" />
  <path d="M 427.49,272.2 C 404.76,258.17 412.84,214.93 414.75,191.11 C 416.66,167.3 427.75,148.3 434.36,136.9 C 440.97,125.5 438.94,121.81 440.96,121.5 C 439.47,145.35 427.89,224.26 427.49,272.2" fill="url(#RadialGradient4)" fill-opacity="1" />
  <path d="M 423.59,315.82 C 425.59,315.82 425.47,272.51 427.49,272.2" stroke-width="2" fill="none" stroke="sandybrown" />
  <path d="M 352.72,271.78 C 349.15,246.74 322.76,235.4 303.36,230.27 C 283.97,225.13 264.35,243.56 247.56,246.45 C 230.77,249.35 223.97,246.13 222.86,248.13 C 266.63,253.35 305.51,263.12 352.72,271.78" fill="url(#RadialGradient3)" fill-opacity="1" />
  <path d="M 352.72,271.78 C 340.55,293.96 311.85,295.26 291.89,293.23 C 271.93,291.2 260.07,267.04 245.38,258.41 C 230.69,249.77 223.19,250.39 222.86,248.13 C 266.63,253.35 305.51,263.12 352.72,271.78" fill="url(#RadialGradient4)" fill-opacity="1" />
  <path d="M 396.01,279.67 C 396.34,276.02 353.06,274.05 352.72,271.78" stroke-width="2" fill="none" stroke="sandybrown" />
  <path d="M 391.21,201.23 C 417.3,200.12 427.68,179.18 434.82,161.05 C 441.95,142.91 440.37,116.6 440.62,103.92 C 440.87,91.23 446.36,81.73 445.35,80.44 C 431.64,108.43 402.62,180.75 391.21,201.23" fill="url(#RadialGradient3)" fill-opacity="1" />
  <path d="M 391.21,201.23 C 374.67,181.02 383.4,159.33 392.18,141.94 C 400.97,124.54 421.67,108.22 430.97,99.59 C 440.27,90.96 443.71,80.54 445.35,80.44 C 431.64,108.43 402.62,180.75 391.21,201.23" fill="url(#RadialGradient4)" fill-opacity="1" />
  <path d="M 373.69,240.31 C 377.19,241.67 389.57,201.33 391.21,201.23" stroke-width="2" fill="none" stroke="sandybrown" />
  <path d="M 329.28,179.62 C 333.13,160.08 307.57,131.52 289.52,118.59 C 271.46,105.65 227.9,104.87 220.42,102.82 C 212.93,100.76 205.84,98.51 205.16,99.15 C 223.6,111.49 304.46,163.52 329.28,179.62" fill="url(#RadialGradient3)" fill-opacity="1" />
  <path d="M 329.28,179.62 C 313.01,191.11 276.51,179.43 257.33,168.23 C 238.15,157.03 219.66,117.58 214.73,111.59 C 209.8,105.59 204.85,100.04 205.16,99.15 C 223.6,111.49 304.46,163.52 329.28,179.62" fill="url(#RadialGradient4)" fill-opacity="1" />
  <path d="M 360.31,199.73 C 361.7,197.5 328.97,180.5 329.28,179.62" stroke-width="2" fill="none" stroke="sandybrown" />
  <path d="M 386.95,135.77 C 404.51,148.66 431.3,138.83 442.21,130.4 C 453.13,121.98 455.83,96 463.03,88.29 C 470.23,80.58 474.92,75.65 474.08,74.1 C 444.28,97.56 421.33,112.83 386.95,135.77" fill="url(#RadialGradient3)" fill-opacity="1" />
  <path d="M 386.95,135.77 C 380.64,114.93 398.81,92.93 410.38,85.44 C 421.95,77.94 447.36,84.03 457.02,79.8 C 466.68,75.57 472.9,72.78 474.08,74.1 C 444.28,97.56 421.33,112.83 386.95,135.77" fill="url(#RadialGradient4)" fill-opacity="1" />
  <path d="M 358.85,155.67 C 360.11,157.44 385.77,134.46 386.95,135.77" stroke-width="2" fill="none" stroke="sandybrown" />
  <path d="M 363.34,92.9 C 375.3,78.94 373.96,66.09 368.3,48.03 C 362.64,29.98 349.59,24.36 341.28,13.84 C 332.97,3.32 334.67,3.41 333.38,3.18 C 344.58,39.33 349.76,50.9 363.34,92.9" fill="url(#RadialGradient3)" fill-opacity="1" />
  <path d="M 363.34,92.9 C 345.39,88.92 338.74,77.85 332.42,60.02 C 326.09,42.18 333.15,29.85 333.47,16.45 C 333.79,3.05 332.48,4.14 333.38,3.18 C 344.58,39.33 349.76,50.9 363.34,92.9" fill="url(#RadialGradient4)" fill-opacity="1" />
  <path d="M 371.33,116.83 C 373.32,115.87 362.45,93.86 363.34,92.9" stroke-width="2" fill="none" stroke="sandybrown" />
  <path d="M 426.78,81.7 C 431.56,98.34 448.96,100.23 462.98,97.6 C 476.99,94.96 486.8,80.58 495.08,77.92 C 503.37,75.25 505.6,74.13 505.93,72.62 C 488.98,74.62 457.64,76.11 426.78,81.7" fill="url(#RadialGradient3)" fill-opacity="1" />
  <path d="M 426.78,81.7 C 427.66,64.42 444.18,58.63 458.43,58.02 C 472.68,57.42 485.49,69.19 494.16,69.91 C 502.84,70.63 505.26,71.22 505.93,72.62 C 488.98,74.62 457.64,76.11 426.78,81.7" fill="url(#RadialGradient4)" fill-opacity="1" />
  <path d="M 392.87,85.6 C 393.32,87.27 426.12,80.31 426.78,81.7" stroke-width="2" fill="none" stroke="sandybrown" />
  <path d="M 406.01,29.69 C 418.83,21.13 407.97,12.13 402.75,-2.2 C 397.54,-16.52 382.57,-37.58 377.6,-40.89 C 372.63,-44.21 371.02,-51.82 369.55,-51.16 C 375.39,-37.11 397.28,8.61 406.01,29.69" fill="url(#RadialGradient3)" fill-opacity="1" />
  <path d="M 406.01,29.69 C 391.11,33.63 391.56,19.53 384.27,6.14 C 376.98,-7.25 371.11,-32.4 371.92,-38.33 C 372.72,-44.25 368.08,-50.49 369.55,-51.16 C 375.39,-37.11 397.28,8.61 406.01,29.69" fill="url(#RadialGradient4)" fill-opacity="1" />
  <path d="M 418.52,57.41 C 420.23,56.64 404.54,30.36 406.01,29.69" stroke-width="2" fill="none" stroke="sandybrown" />
  <path d="M 369.82,51.79 C 367.34,40.04 345.56,35.09 336.95,32.49 C 328.35,29.88 300.35,34.64 295.59,35.98 C 290.83,37.32 286.85,36.43 286.31,37.26 C 302.03,37.98 352.46,47.48 369.82,51.79" fill="url(#RadialGradient3)" fill-opacity="1" />
  <path d="M 369.82,51.79 C 363.52,62.02 341.34,59.31 332.37,58.86 C 323.39,58.41 298.64,44.47 294.61,41.6 C 290.58,38.73 286.54,38.23 286.31,37.26 C 302.03,37.98 352.46,47.48 369.82,51.79" fill="url(#RadialGradient4)" fill-opacity="1" />
  <path d="M 394,56 C 394.17,54.72 370.05,52.76 369.82,51.79" stroke-width="2" fill="none" stroke="sandybrown" />
  <path d="M 424,458 C 636,428 368,50 462,562" stroke-width="2" fill="none" stroke="brown" />
  <path d="M 494.04,444.11 C 493.06,459.4 521.58,470.22 533.62,474.03 C 545.67,477.83 563.59,467.53 569.22,465.58 C 574.85,463.63 579.33,465.23 579.9,464.12 C 560.24,459.7 511.05,448.82 494.04,444.11" fill="url(#RadialGradient3)" fill-opacity="1" />
  <path d="M 494.04,444.11 C 499.93,429.96 530.29,432.86 542.77,434.78 C 555.26,436.69 566.78,453.86 570.96,458.09 C 575.15,462.33 579.88,462.88 579.9,464.12 C 560.24,459.7 511.05,448.82 494.04,444.11" fill="url(#RadialGradient4)" fill-opacity="1" />
  <path d="M 474.42,439.53 C 474.02,441.25 494.02,442.86 494.04,444.11" stroke-width="2" fill="none" stroke="sandybrown" />
  <path d="M 484.83,367.48 C 495.47,358.68 476.93,319.27 468.04,301.25 C 459.15,283.22 450.68,276.12 442.14,269.07 C 433.59,262.01 434.45,258.02 432.85,258.66 C 448.63,284.53 473.26,350.73 484.83,367.48" fill="url(#RadialGradient3)" fill-opacity="1" />
  <path d="M 484.83,367.48 C 471.29,370.23 452.29,331.04 443.86,312.8 C 435.42,294.55 435.23,283.51 435.11,272.43 C 434.99,261.34 431.35,259.5 432.85,258.66 C 448.63,284.53 473.26,350.73 484.83,367.48" fill="url(#RadialGradient4)" fill-opacity="1" />
  <path d="M 502.15,403.75 C 504.09,402.79 483.33,368.32 484.83,367.48" stroke-width="2" fill="none" stroke="sandybrown" />
  <path d="M 523.9,332.57 C 542.81,331.44 552.31,319.55 561.61,302.99 C 570.91,286.43 571.43,273.15 573.57,265.48 C 575.72,257.82 583.9,245.11 582.4,244.06 C 557.96,282.41 531.88,315.13 523.9,332.57" fill="url(#RadialGradient3)" fill-opacity="1" />
  <path d="M 523.9,332.57 C 517.52,314.73 524.74,301.33 536.33,286.28 C 547.92,271.23 559.94,265.55 566.15,260.57 C 572.36,255.59 580.84,243.09 582.4,244.06 C 557.96,282.41 531.88,315.13 523.9,332.57" fill="url(#RadialGradient4)" fill-opacity="1" />
  <path d="M 507.19,357.85 C 509.45,359.2 522.34,331.59 523.9,332.57" stroke-width="2" fill="none" stroke="sandybrown" />
  <path d="M 456.6,304.22 C 453.42,283.01 403.87,267.62 384.58,262.7 C 365.29,257.77 350.13,270.01 333.87,269.57 C 317.61,269.13 310.33,268.18 309.34,269.51 C 340.27,277.12 422.63,292.15 456.6,304.22" fill="url(#RadialGradient3)" fill-opacity="1" />
  <path d="M 456.6,304.22 C 444.28,321.77 393.08,313.41 373.62,309.2 C 354.16,304.99 346.06,287.27 331.32,280.4 C 316.57,273.53 309.64,271.13 309.34,269.51 C 340.27,277.12 422.63,292.15 456.6,304.22" fill="url(#RadialGradient4)" fill-opacity="1" />
  <path d="M 491.48,312.44 C 491.98,309.84 456.9,305.84 456.6,304.22" stroke-width="2" fill="none" stroke="sandybrown" />
  <path d="M 425.5,301.79 C 417.01,286.04 401.01,285.97 377.03,287.25 C 353.06,288.53 333.24,294.9 321.4,300.3 C 309.56,305.7 301.71,303.34 301.55,305.55 C 349.63,307.23 401.54,303.59 425.5,301.79" fill="url(#RadialGradient3)" fill-opacity="1" />
  <path d="M 425.5,301.79 C 417.99,318.02 402.01,319.06 378,319.23 C 354,319.41 333.83,314.25 321.68,309.58 C 309.54,304.91 301.85,307.74 301.55,305.55 C 349.63,307.23 401.54,303.59 425.5,301.79" fill="url(#RadialGradient4)" fill-opacity="1" />
  <path d="M 457.48,300.81 C 457.33,298.66 425.79,303.98 425.5,301.79" stroke-width="2" fill="none" stroke="sandybrown" />
  <path d="M 467.38,374.86 C 454.64,390.08 467.23,424.91 477.22,436.86 C 487.22,448.81 525.06,463.36 535.84,469.68 C 546.63,476 550.37,482.48 552.69,481.11 C 516.83,440.01 491.95,405.06 467.38,374.86" fill="url(#RadialGradient3)" fill-opacity="1" />
  <path d="M 467.38,374.86 C 485,365.71 516.29,385.52 525.79,397.86 C 535.3,410.2 541.33,450.29 545.17,462.19 C 549.01,474.09 554.54,479.14 552.69,481.11 C 516.83,440.01 491.95,405.06 467.38,374.86" fill="url(#RadialGradient4)" fill-opacity="1" />
  <path d="M 443.01,344.5 C 440.47,346.87 469.23,372.88 467.38,374.86" stroke-width="2" fill="none" stroke="sandybrown" />
  <path d="M 411.2,413.65 C 396.02,402.48 355.86,413.3 345.3,423.67 C 334.73,434.04 339.43,466.65 330.48,478.79 C 321.52,490.92 320.39,494.84 320.99,495.83 C 360.6,456.94 380.56,445.91 411.2,413.65" fill="url(#RadialGradient3)" fill-opacity="1" />
  <path d="M 411.2,413.65 C 420.92,429.81 406.41,468.79 395.1,478.34 C 383.8,487.9 351.76,480.19 338.85,487.98 C 325.93,495.76 321.92,496.53 320.99,495.83 C 360.6,456.94 380.56,445.91 411.2,413.65" fill="url(#RadialGradient4)" fill-opacity="1" />
  <path d="M 441.28,386.26 C 439.3,384.15 412.14,414.35 411.2,413.65" stroke-width="2" fill="none" stroke="sandybrown" />
  <path d="M 473.61,456.08 C 466.36,476.62 488.36,510.01 504.08,523.45 C 519.81,536.88 551.75,529.49 560.08,530 C 568.4,530.51 573.02,534.76 574.14,534.35 C 548.78,510.87 512.74,489.91 473.61,456.08" fill="url(#RadialGradient3)" fill-opacity="1" />
  <path d="M 473.61,456.08 C 491.74,444.01 529.51,457.16 546.39,469.11 C 563.27,481.06 563.93,513.84 566.47,521.79 C 569.01,529.73 574.26,533.17 574.14,534.35 C 548.78,510.87 512.74,489.91 473.61,456.08" fill="url(#RadialGradient4)" fill-opacity="1" />
  <path d="M 443.73,432.81 C 442.56,434.34 473.73,454.9 473.61,456.08" stroke-width="2" fill="none" stroke="sandybrown" />
  <path d="M 432.09,486.51 C 411.28,482.76 400.31,498.18 388.63,513.07 C 376.94,527.95 381.71,539.38 379.61,549.63 C 377.52,559.87 370.3,566 371.69,567.33 C 391.28,542.6 408.1,523.68 432.09,486.51" fill="url(#RadialGradient3)" fill-opacity="1" />
  <path d="M 432.09,486.51 C 441.58,505.41 429.9,520.3 418.93,535.72 C 407.97,551.14 395.66,549.81 386.43,554.72 C 377.2,559.63 373.36,568.29 371.69,567.33 C 391.28,542.6 408.1,523.68 432.09,486.51" fill="url(#RadialGradient4)" fill-opacity="1" />
  <path d="M 447.19,466.3 C 445.79,465.38 433.76,487.47 432.09,486.51" stroke-width="2" fill="none" stroke="sandybrown" />
  <path d="M 473.82,522.85 C 468.52,533.31 492.66,570.62 501.91,577.32 C 511.17,584.02 533.83,583.94 542.07,587.46 C 550.32,590.98 554.18,594.95 555.52,593.66 C 521.52,567.73 494.73,542.17 473.82,522.85" fill="url(#RadialGradient3)" fill-opacity="1" />
  <path d="M 473.82,522.85 C 483.43,516.12 523.78,534.71 531.73,542.92 C 539.67,551.13 542.81,573.58 547.46,581.24 C 552.12,588.9 556.61,592.16 555.52,593.66 C 521.52,567.73 494.73,542.17 473.82,522.85" fill="url(#RadialGradient4)" fill-opacity="1" />
  <path d="M 452.32,504.22 C 450.78,506.36 474.91,521.34 473.82,522.85" stroke-width="2" fill="none" stroke="sandybrown" />
  <path d="M 447.94,563.57 C 435.29,564.22 419.93,563.04 412.04,576.07 C 404.15,589.09 412.05,606.62 408.13,616.2 C 404.21,625.78 403.49,628.07 404.07,628.74 C 412,612.69 432.89,587.05 447.94,563.57" fill="url(#RadialGradient3)" fill-opacity="1" />
  <path d="M 447.94,563.57 C 452.1,575.54 458.97,589.33 449.88,601.54 C 440.78,613.74 421.57,613.03 414.17,620.27 C 406.77,627.5 404.92,629.03 404.07,628.74 C 412,612.69 432.89,587.05 447.94,563.57" fill="url(#RadialGradient4)" fill-opacity="1" />
  <path d="M 459.26,546.76 C 457.59,545.76 448.78,563.86 447.94,563.57" stroke-width="2" fill="none" stroke="sandybrown" />
  <path d="M 470.54,577.67 C 463.95,588.88 473.25,599.06 476.58,607.41 C 479.9,615.76 494.4,633.26 500.22,637.71 C 506.03,642.17 505.74,644.43 506.83,644.27 C 490.77,614.92 475.29,590.33 470.54,577.67" fill="url(#RadialGradient3)" fill-opacity="1" />
  <path d="M 470.54,577.67 C 483.53,578.21 487.04,591.55 492.25,598.87 C 497.46,606.19 504.31,627.86 504.9,635.16 C 505.48,642.47 507.55,643.45 506.83,644.27 C 490.77,614.92 475.29,590.33 470.54,577.67" fill="url(#RadialGradient4)" fill-opacity="1" />
  <path d="M 462,562 C 460.86,562.81 471.26,576.84 470.54,577.67" stroke-width="2" fill="none" stroke="sandybrown" />
</svg>
