<svg width="160" height="160" viewBox="0 0 160 160" xmlns="http://www.w3.org/2000/svg" xmlns:xlink="http://www.w3.org/1999/xlink">
  <radialGradient id="RadialGradient3" cx="0.35" cy="0.63" r="0.7">
    <stop offset="0%" stop-color="#00FF00" />
    <stop offset="100%" stop-color="#008000" />
  </radialGradient>
  <radialGradient id="RadialGradient4" cx="0.5" cy="0.5" r="0.5">
    <stop offset="0%" stop-color="#40DD40" />
    <stop offset="100%" stop-color="#208020" />
  </radialGradient>
  <path d="M 159,43 C 14,103 50,117 118,76" stroke-width="0.5" fill="none" stroke="brown" />
  <path d="M 137.84,61.19 C 131.9,59.89 131.67,66.26 129.3,71.77 C 126.94,77.29 125.42,87.45 125.25,89.54 C 125.07,91.62 124.58,93.48 124.84,93.69 C 128.02,84.19 131.54,74.82 137.84,61.19" fill="url(#RadialGradient3)" fill-opacity="1" />
  <path d="M 137.84,61.19 C 143.04,64.35 138.82,69.12 136.73,74.74 C 134.64,80.37 128.73,88.78 127.42,90.41 C 126.11,92.04 125.18,93.72 124.84,93.69 C 128.02,84.19 131.54,74.82 137.84,61.19" fill="url(#RadialGradient4)" fill-opacity="1" />
  <path d="M 142.3,50.05 C 141.71,49.89 138.18,61.22 137.84,61.19" stroke-width="0.5" fill="none" stroke="sandybrown" />
  <path d="M 116.44,55.43 C 116.33,50.11 108.17,46.56 102.47,44.89 C 96.77,43.22 95.96,45.36 91.92,44.87 C 87.88,44.39 88.13,44.07 87.79,44.63 C 99.74,49.32 106.52,50.94 116.44,55.43" fill="url(#RadialGradient3)" fill-opacity="1" />
  <path d="M 116.44,55.43 C 112.85,59.35 104.37,56.64 98.99,54.13 C 93.6,51.62 94.41,49.47 91.05,47.17 C 87.7,44.87 87.68,45.27 87.79,44.63 C 99.74,49.32 106.52,50.94 116.44,55.43" fill="url(#RadialGradient4)" fill-opacity="1" />
  <path d="M 123.83,58.22 C 123.99,57.57 116.32,56.07 116.44,55.43" stroke-width="0.5" fill="none" stroke="sandybrown" />
  <path d="M 104.62,75.07 C 98.6,75.83 93.04,84.44 90.94,89.46 C 88.83,94.48 93.89,98.18 93.71,101.95 C 93.53,105.73 93.45,105.51 93.83,105.84 C 95.52,99.71 100.46,87.05 104.62,75.07" fill="url(#RadialGradient3)" fill-opacity="1" />
  <path d="M 104.62,75.07 C 108.85,79.43 107.81,89.63 106.32,94.86 C 104.83,100.1 98.56,99.82 96.35,102.88 C 94.13,105.94 94.32,105.82 93.83,105.84 C 95.52,99.71 100.46,87.05 104.62,75.07" fill="url(#RadialGradient4)" fill-opacity="1" />
  <path d="M 107.92,65.67 C 107.42,65.52 105.12,75.05 104.62,75.07" stroke-width="0.5" fill="none" stroke="sandybrown" />
  <path d="M 86.06,69.71 C 85.76,65.4 81.26,63.67 77.36,62.71 C 73.46,61.75 67.53,61.86 65,61.89 C 62.46,61.92 60.98,61.34 60.87,61.64 C 69.98,64.74 82.21,68.6 86.06,69.71" fill="url(#RadialGradient3)" fill-opacity="1" />
  <path d="M 86.06,69.71 C 83.31,73.04 78.65,71.83 74.92,70.35 C 71.18,68.86 66.42,65.32 64.38,63.83 C 62.33,62.33 60.78,61.94 60.87,61.64 C 69.98,64.74 82.21,68.6 86.06,69.71" fill="url(#RadialGradient4)" fill-opacity="1" />
  <path d="M 94.46,72.4 C 94.6,71.92 85.98,70.01 86.06,69.71" stroke-width="0.5" fill="none" stroke="sandybrown" />
  <path d="M 79.17,87.54 C 75.94,88.81 73.53,94.63 72.51,98.67 C 71.48,102.7 72.21,107.22 72.24,109.39 C 72.27,111.56 71.68,113.52 71.98,113.64 C 73.15,108.92 76.75,96.23 79.17,87.54" fill="url(#RadialGradient3)" fill-opacity="1" />
  <path d="M 79.17,87.54 C 81.29,90.28 80.38,96.51 79.2,100.51 C 78.01,104.5 75.08,108.01 73.94,109.86 C 72.81,111.71 72.31,113.69 71.98,113.64 C 73.15,108.92 76.75,96.23 79.17,87.54" fill="url(#RadialGradient4)" fill-opacity="1" />
  <path d="M 81.38,79.51 C 80.82,79.4 79.49,87.59 79.17,87.54" stroke-width="0.5" fill="none" stroke="sandybrown" />
  <path d="M 62.37,87.26 C 61.13,84.05 55.24,79.96 51.73,79.41 C 48.23,78.86 45.74,82.77 44.47,83.16 C 43.21,83.55 42.08,83.49 41.98,83.72 C 48.93,85.18 56.61,85.87 62.37,87.26" fill="url(#RadialGradient3)" fill-opacity="1" />
  <path d="M 62.37,87.26 C 60.12,89.87 53.19,91.73 49.7,91.06 C 46.22,90.4 45.2,85.87 44.14,85.08 C 43.08,84.29 42,83.96 41.98,83.72 C 48.93,85.18 56.61,85.87 62.37,87.26" fill="url(#RadialGradient4)" fill-opacity="1" />
  <path d="M 67.62,88.18 C 67.62,87.81 62.4,87.51 62.37,87.26" stroke-width="0.5" fill="none" stroke="sandybrown" />
  <path d="M 63.57,100.73 C 63.29,103.39 67.9,106.38 70.54,107.79 C 73.17,109.2 75.32,108.32 77.33,108.79 C 79.34,109.25 79.66,109.55 79.85,109.34 C 73.46,105.46 67.86,103.27 63.57,100.73" fill="url(#RadialGradient3)" fill-opacity="1" />
  <path d="M 63.57,100.73 C 65.62,98.99 70.68,101.12 73.33,102.51 C 75.98,103.9 76.46,106.17 77.98,107.56 C 79.49,108.96 79.92,109.06 79.85,109.34 C 73.46,105.46 67.86,103.27 63.57,100.73" fill="url(#RadialGradient4)" fill-opacity="1" />
  <path d="M 58.73,98.17 C 58.55,98.55 63.64,100.45 63.57,100.73" stroke-width="0.5" fill="none" stroke="sandybrown" />
  <path d="M 76.52,99.66 C 76.08,101.32 78.54,104.59 80.36,105.58 C 82.18,106.57 85.77,106.07 86.76,106.01 C 87.74,105.94 89.15,106.79 89.22,106.69 C 85.08,104.75 81.77,102.17 76.52,99.66" fill="url(#RadialGradient3)" fill-opacity="1" />
  <path d="M 76.52,99.66 C 77.69,98.41 81.76,98.76 83.57,99.77 C 85.38,100.79 86.86,104.1 87.33,104.97 C 87.8,105.84 89.26,106.58 89.22,106.69 C 85.08,104.75 81.77,102.17 76.52,99.66" fill="url(#RadialGradient4)" fill-opacity="1" />
  <path d="M 72.53,97.46 C 72.39,97.76 76.56,99.55 76.52,99.66" stroke-width="0.5" fill="none" stroke="sandybrown" />
  <path d="M 87.72,89.45 C 89.44,89.78 92.93,86.02 93.36,84.72 C 93.79,83.41 92.76,79.66 92.63,78.86 C 92.49,78.07 93,77.16 92.78,77.07 C 90.93,81.87 89.5,84.62 87.72,89.45" fill="url(#RadialGradient3)" fill-opacity="1" />
  <path d="M 87.72,89.45 C 86.27,88.48 86.41,83.36 87.01,82.12 C 87.62,80.89 90.98,78.93 91.63,78.46 C 92.29,77.98 92.56,76.98 92.78,77.07 C 90.93,81.87 89.5,84.62 87.72,89.45" fill="url(#RadialGradient4)" fill-opacity="1" />
  <path d="M 86.55,92.3 C 86.73,92.36 87.5,89.36 87.72,89.45" stroke-width="0.5" fill="none" stroke="sandybrown" />
  <path d="M 100.92,87.56 C 100.74,88.98 104.25,90.02 105.36,90.25 C 106.47,90.48 109.28,90.93 109.87,90.94 C 110.46,90.96 110.97,91.04 111.04,90.98 C 109.8,90.27 104.7,88.67 100.92,87.56" fill="url(#RadialGradient3)" fill-opacity="1" />
  <path d="M 100.92,87.56 C 101.64,86.32 105.06,87.63 106.08,88.12 C 107.1,88.61 109.61,89.96 110.09,90.3 C 110.56,90.64 111.02,90.9 111.04,90.98 C 109.8,90.27 104.7,88.67 100.92,87.56" fill="url(#RadialGradient4)" fill-opacity="1" />
  <path d="M 98.53,86.75 C 98.47,86.99 100.9,87.48 100.92,87.56" stroke-width="0.5" fill="none" stroke="sandybrown" />
  <path d="M 112.46,77.59 C 113.41,77.61 114.73,76.55 114.96,75.43 C 115.19,74.3 114.36,72.65 114.37,71.94 C 114.38,71.23 114.35,70.99 114.29,70.96 C 113.29,73.78 112.73,75.76 112.46,77.59" fill="url(#RadialGradient3)" fill-opacity="1" />
  <path d="M 112.46,77.59 C 111.64,77.12 111.04,75.53 111.43,74.45 C 111.81,73.37 113.37,72.37 113.73,71.76 C 114.09,71.15 114.23,70.96 114.29,70.96 C 113.29,73.78 112.73,75.76 112.46,77.59" fill="url(#RadialGradient4)" fill-opacity="1" />
  <path d="M 111.91,79.58 C 112.06,79.6 112.4,77.58 112.46,77.59" stroke-width="0.5" fill="none" stroke="sandybrown" />
  <path d="M 119.44,76.36 C 119.75,77.4 120.76,77.98 121.46,78.21 C 122.17,78.44 123.12,77.73 123.52,77.64 C 123.93,77.56 124.27,77.65 124.3,77.59 C 121.99,76.87 120.38,76.42 119.44,76.36" fill="url(#RadialGradient3)" fill-opacity="1" />
  <path d="M 119.44,76.36 C 120.21,75.6 121.37,75.56 122.1,75.69 C 122.83,75.82 123.33,76.9 123.64,77.17 C 123.96,77.43 124.3,77.51 124.3,77.59 C 121.99,76.87 120.38,76.42 119.44,76.36" fill="url(#RadialGradient4)" fill-opacity="1" />
  <path d="M 118,76 C 117.98,76.1 119.44,76.29 119.44,76.36" stroke-width="0.5" fill="none" stroke="sandybrown" />
  <path d="M 43,143 C 14,32 118,109 153,7" stroke-width="0.5" fill="none" stroke="brown" />
  <path d="M 45.99,112.56 C 49.79,114.16 61.33,105.33 63.81,102.19 C 66.29,99.05 67.12,88.41 68.14,85.42 C 69.16,82.44 70.28,80.97 70.04,80.6 C 65.76,86.14 49.54,107.72 45.99,112.56" fill="url(#RadialGradient3)" fill-opacity="1" />
  <path d="M 45.99,112.56 C 43.39,109.35 48.69,95.82 51.02,92.56 C 53.35,89.31 63.34,85.56 65.93,83.76 C 68.52,81.95 69.62,80.47 70.04,80.6 C 65.76,86.14 49.54,107.72 45.99,112.56" fill="url(#RadialGradient4)" fill-opacity="1" />
  <path d="M 38.77,122.14 C 39.26,122.49 45.57,112.43 45.99,112.56" stroke-width="0.5" fill="none" stroke="sandybrown" />
  <path d="M 31.85,93.78 C 34.71,87.81 29.43,78.16 25.97,73.34 C 22.52,68.52 14.69,68.34 11.8,65.58 C 8.91,62.83 7.92,62.55 7.62,62.58 C 11.89,66.77 25.06,85.3 31.85,93.78" fill="url(#RadialGradient3)" fill-opacity="1" />
  <path d="M 31.85,93.78 C 25.35,95.08 17.31,87.57 13.49,83.03 C 9.68,78.49 11.45,70.86 9.49,67.38 C 7.54,63.89 7.51,62.86 7.62,62.58 C 11.89,66.77 25.06,85.3 31.85,93.78" fill="url(#RadialGradient4)" fill-opacity="1" />
  <path d="M 38.51,102.36 C 38.91,101.99 31.74,94.06 31.85,93.78" stroke-width="0.5" fill="none" stroke="sandybrown" />
  <path d="M 55.62,85.19 C 58.16,90.33 69.31,91.66 72.88,91.03 C 76.46,90.4 86.45,83.35 88.11,82.12 C 89.77,80.89 92.36,80.43 92.4,80.1 C 87.86,80.36 61.93,84.52 55.62,85.19" fill="url(#RadialGradient3)" fill-opacity="1" />
  <path d="M 55.62,85.19 C 56.67,79.56 67.04,75.25 70.65,74.88 C 74.25,74.51 85.79,78.58 87.72,79.31 C 89.65,80.05 92.27,79.78 92.4,80.1 C 87.86,80.36 61.93,84.52 55.62,85.19" fill="url(#RadialGradient4)" fill-opacity="1" />
  <path d="M 44.85,86.69 C 44.94,87.15 55.49,84.88 55.62,85.19" stroke-width="0.5" fill="none" stroke="sandybrown" />
  <path d="M 63.21,67.38 C 67.82,66.62 72.48,65.02 74.21,61.4 C 75.94,57.77 71.38,53.37 71.55,49.99 C 71.71,46.6 71.89,46.72 71.5,46.52 C 67.14,56.86 66.5,58.33 63.21,67.38" fill="url(#RadialGradient3)" fill-opacity="1" />
  <path d="M 63.21,67.38 C 60.37,63.66 58.08,59.3 59.31,55.48 C 60.54,51.65 66.88,51.58 69.08,49.01 C 71.28,46.43 71.07,46.39 71.5,46.52 C 67.14,56.86 66.5,58.33 63.21,67.38" fill="url(#RadialGradient4)" fill-opacity="1" />
  <path d="M 59.66,76.32 C 60.25,76.55 62.78,67.26 63.21,67.38" stroke-width="0.5" fill="none" stroke="sandybrown" />
  <path d="M 81.87,74.06 C 81.61,78.71 84.87,82.8 87.8,84.66 C 90.74,86.51 96.59,84.68 98.25,84.58 C 99.9,84.48 101.59,85.56 101.75,85.45 C 98.63,83.92 85.45,76.2 81.87,74.06" fill="url(#RadialGradient3)" fill-opacity="1" />
  <path d="M 81.87,74.06 C 85.75,71.48 90.93,72.22 94.01,73.82 C 97.1,75.41 98.48,81.38 99.23,82.86 C 99.98,84.34 101.76,85.26 101.75,85.45 C 98.63,83.92 85.45,76.2 81.87,74.06" fill="url(#RadialGradient4)" fill-opacity="1" />
  <path d="M 76.45,70.96 C 76.24,71.34 81.89,73.87 81.87,74.06" stroke-width="0.5" fill="none" stroke="sandybrown" />
  <path d="M 96.9,59.8 C 100.32,60.91 104.46,57.07 105.45,54.92 C 106.45,52.77 105.26,47.48 105.41,45.55 C 105.55,43.63 106.07,42.7 105.93,42.49 C 102.14,49.85 98.81,56.12 96.9,59.8" fill="url(#RadialGradient3)" fill-opacity="1" />
  <path d="M 96.9,59.8 C 94.03,57.63 94.82,52.04 96.01,50 C 97.2,47.95 102.22,45.89 103.71,44.67 C 105.21,43.45 105.68,42.49 105.93,42.49 C 102.14,49.85 98.81,56.12 96.9,59.8" fill="url(#RadialGradient4)" fill-opacity="1" />
  <path d="M 93.62,66.09 C 93.97,66.23 96.65,59.8 96.9,59.8" stroke-width="0.5" fill="none" stroke="sandybrown" />
  <path d="M 113.31,61.1 C 113.26,64.25 118.84,64.91 121.58,66.12 C 124.32,67.33 126.49,67.17 128.14,66.96 C 129.8,66.76 130.11,67.2 130.22,67.05 C 124.48,65.36 115.98,62.53 113.31,61.1" fill="url(#RadialGradient3)" fill-opacity="1" />
  <path d="M 113.31,61.1 C 115.24,58.62 120,61.59 122.9,62.36 C 125.79,63.13 127.38,64.62 128.54,65.81 C 129.71,67.01 130.23,66.87 130.22,67.05 C 124.48,65.36 115.98,62.53 113.31,61.1" fill="url(#RadialGradient4)" fill-opacity="1" />
  <path d="M 109.56,59.78 C 109.42,60.18 113.32,60.92 113.31,61.1" stroke-width="0.5" fill="none" stroke="sandybrown" />
  <path d="M 123.87,47.55 C 126.51,46.67 126.64,43.34 126.92,40.87 C 127.21,38.39 126.62,34.96 126.43,33.25 C 126.24,31.55 126.46,30.77 126.28,30.72 C 126.16,34.05 124.29,43.01 123.87,47.55" fill="url(#RadialGradient3)" fill-opacity="1" />
  <path d="M 123.87,47.55 C 121.58,45.97 122.39,42.73 122.82,40.28 C 123.24,37.83 124.77,34.69 125.42,33.11 C 126.08,31.53 126.09,30.72 126.28,30.72 C 126.16,34.05 124.29,43.01 123.87,47.55" fill="url(#RadialGradient4)" fill-opacity="1" />
  <path d="M 123.34,51.25 C 123.59,51.25 123.68,47.55 123.87,47.55" stroke-width="0.5" fill="none" stroke="sandybrown" />
  <path d="M 138,40.36 C 139.13,42.01 143.32,43.13 144.69,43.05 C 146.06,42.97 148.33,40.73 148.98,40.22 C 149.64,39.7 150.28,39.83 150.32,39.62 C 146.56,39.96 141.06,39.85 138,40.36" fill="url(#RadialGradient3)" fill-opacity="1" />
  <path d="M 138,40.36 C 138.93,38.59 142.95,36.98 144.32,36.89 C 145.69,36.81 148.21,38.75 148.92,39.18 C 149.63,39.61 150.26,39.41 150.32,39.62 C 146.56,39.96 141.06,39.85 138,40.36" fill="url(#RadialGradient4)" fill-opacity="1" />
  <path d="M 134.58,40.57 C 134.62,40.81 137.94,40.16 138,40.36" stroke-width="0.5" fill="none" stroke="sandybrown" />
  <path d="M 142.61,25.68 C 143.64,25.15 144.46,21.48 144.1,19.83 C 143.74,18.18 141.47,17.57 140.9,16.55 C 140.33,15.53 140.19,15.28 140.12,15.29 C 140.56,16.92 141.61,22.16 142.61,25.68" fill="url(#RadialGradient3)" fill-opacity="1" />
  <path d="M 142.61,25.68 C 141.46,25.67 139.06,22.77 138.64,21.14 C 138.21,19.51 139.96,17.93 140.01,16.77 C 140.05,15.6 140.06,15.32 140.12,15.29 C 140.56,16.92 141.61,22.16 142.61,25.68" fill="url(#RadialGradient4)" fill-opacity="1" />
  <path d="M 143.27,28.41 C 143.52,28.35 142.55,25.7 142.61,25.68" stroke-width="0.5" fill="none" stroke="sandybrown" />
  <path d="M 151.98,14.88 C 152.69,16.08 154.77,15.08 156.03,14.54 C 157.29,13.99 157.27,13.29 158.07,12.83 C 158.87,12.37 159.24,12.14 159.25,12.06 C 156.95,13.11 154.13,14.09 151.98,14.88" fill="url(#RadialGradient3)" fill-opacity="1" />
  <path d="M 151.98,14.88 C 151.7,13.51 153.9,12.85 155.2,12.4 C 156.5,11.95 156.95,12.49 157.86,12.29 C 158.76,12.09 159.19,12.01 159.25,12.06 C 156.95,13.11 154.13,14.09 151.98,14.88" fill="url(#RadialGradient4)" fill-opacity="1" />
  <path d="M 149.63,15.79 C 149.72,15.98 151.93,14.83 151.98,14.88" stroke-width="0.5" fill="none" stroke="sandybrown" />
  <path d="M 152.12,5.16 C 152.72,4.25 152.63,3.48 152.18,2.67 C 151.72,1.85 150.81,1.26 150.35,0.86 C 149.89,0.46 149.86,0.27 149.82,0.29 C 150.23,1.53 150.78,2.71 152.12,5.16" fill="url(#RadialGradient3)" fill-opacity="1" />
  <path d="M 152.12,5.16 C 151.05,5.05 150.5,4.49 150.16,3.62 C 149.82,2.75 149.94,1.67 149.92,1.07 C 149.9,0.46 149.77,0.31 149.82,0.29 C 150.23,1.53 150.78,2.71 152.12,5.16" fill="url(#RadialGradient4)" fill-opacity="1" />
  <path d="M 153,7 C 153.12,6.93 152.08,5.18 152.12,5.16" stroke-width="0.5" fill="none" stroke="sandybrown" />
  <path d="M 90,137 C 91,74 91,23 92,155" stroke-width="0.5" fill="none" stroke="brown" />
  <path d="M 82.56,114.16 C 85.47,108.55 80.91,100.43 77.84,97.83 C 74.78,95.23 65.16,92.03 62.03,90.89 C 58.9,89.75 57.91,88.12 57.47,88.35 C 65.8,96.98 78.03,108.8 82.56,114.16" fill="url(#RadialGradient3)" fill-opacity="1" />
  <path d="M 82.56,114.16 C 76.86,116.91 68.88,112.12 66.37,108.98 C 63.86,105.84 60.93,96.14 59.88,92.98 C 58.83,89.81 57.23,88.78 57.47,88.35 C 65.8,96.98 78.03,108.8 82.56,114.16" fill="url(#RadialGradient4)" fill-opacity="1" />
  <path d="M 90.22,122.05 C 90.8,121.41 82.32,114.6 82.56,114.16" stroke-width="0.5" fill="none" stroke="sandybrown" />
  <path d="M 97.51,99.58 C 101.68,101.04 109.41,100.47 112.2,97.68 C 115,94.89 114.01,86.8 114.82,84.8 C 115.63,82.8 117.4,80.62 117.32,80.29 C 106.93,90.85 104.27,92.37 97.51,99.58" fill="url(#RadialGradient3)" fill-opacity="1" />
  <path d="M 97.51,99.58 C 96.17,95.37 96.94,87.67 99.8,84.95 C 102.66,82.22 110.73,83.43 112.75,82.68 C 114.77,81.92 117,80.2 117.32,80.29 C 106.93,90.85 104.27,92.37 97.51,99.58" fill="url(#RadialGradient4)" fill-opacity="1" />
  <path d="M 90.44,106.47 C 90.92,106.92 97.19,99.49 97.51,99.58" stroke-width="0.5" fill="none" stroke="sandybrown" />
  <path d="M 85.56,87.75 C 87.53,84.58 85.35,76.59 82.54,74.26 C 79.74,71.93 69.86,68.92 67.53,67.39 C 65.19,65.87 63.74,64.86 63.46,65.04 C 67.86,70.86 77.35,80.59 85.56,87.75" fill="url(#RadialGradient3)" fill-opacity="1" />
  <path d="M 85.56,87.75 C 82.34,89.63 74.41,87.23 72.16,84.37 C 69.91,81.5 67.16,71.54 65.7,69.17 C 64.24,66.8 63.28,65.32 63.46,65.04 C 67.86,70.86 77.35,80.59 85.56,87.75" fill="url(#RadialGradient4)" fill-opacity="1" />
  <path d="M 90.62,92.94 C 91.18,92.3 85.38,88.03 85.56,87.75" stroke-width="0.5" fill="none" stroke="sandybrown" />
  <path d="M 96.57,74.75 C 99.38,76.5 106.79,73.79 109.68,71.01 C 112.57,68.23 111.77,62.79 112.95,60.55 C 114.12,58.3 114.79,57.87 114.45,57.48 C 108.7,63.07 104.36,67.81 96.57,74.75" fill="url(#RadialGradient3)" fill-opacity="1" />
  <path d="M 96.57,74.75 C 94.92,71.89 97.89,64.57 100.77,61.78 C 103.64,58.99 109.05,59.97 111.33,58.87 C 113.62,57.78 114.07,57.13 114.45,57.48 C 108.7,63.07 104.36,67.81 96.57,74.75" fill="url(#RadialGradient4)" fill-opacity="1" />
  <path d="M 90.81,80.32 C 91.11,80.62 96.2,74.4 96.57,74.75" stroke-width="0.5" fill="none" stroke="sandybrown" />
  <path d="M 95.76,82 C 93.86,84.98 99.06,93.59 100.94,95.64 C 102.83,97.68 111.46,99.72 113.1,100.02 C 114.73,100.32 115.64,101.3 115.78,101.23 C 110.74,95.46 99.56,86.06 95.76,82" fill="url(#RadialGradient3)" fill-opacity="1" />
  <path d="M 95.76,82 C 98.67,79.97 107.48,84.83 109.6,86.63 C 111.72,88.43 114.1,96.98 114.46,98.6 C 114.83,100.22 115.84,101.09 115.78,101.23 C 110.74,95.46 99.56,86.06 95.76,82" fill="url(#RadialGradient4)" fill-opacity="1" />
  <path d="M 91.26,77.67 C 90.9,78.11 95.82,81.85 95.76,82" stroke-width="0.5" fill="none" stroke="sandybrown" />
  <path d="M 86.89,95.14 C 84.79,93.91 78.5,98.51 76.09,101.12 C 73.68,103.73 73.28,107.47 72.68,108.55 C 72.09,109.62 71,110.95 71.19,111.22 C 76.04,106.86 80.93,100.89 86.89,95.14" fill="url(#RadialGradient3)" fill-opacity="1" />
  <path d="M 86.89,95.14 C 88.17,97.22 83.72,103.61 81.17,106.08 C 78.61,108.55 74.88,109.04 73.82,109.66 C 72.76,110.28 71.46,111.4 71.19,111.22 C 76.04,106.86 80.93,100.89 86.89,95.14" fill="url(#RadialGradient4)" fill-opacity="1" />
  <path d="M 91.44,90.49 C 91.11,90.2 87.17,95.33 86.89,95.14" stroke-width="0.5" fill="none" stroke="sandybrown" />
  <path d="M 95.47,106.16 C 94.09,108.28 95.12,111.5 96.95,113.18 C 98.78,114.87 102.12,114.31 103.46,115.07 C 104.81,115.84 105.29,115.95 105.42,115.92 C 103.21,113.9 96.98,108.17 95.47,106.16" fill="url(#RadialGradient3)" fill-opacity="1" />
  <path d="M 95.47,106.16 C 97.57,104.73 100.8,105.7 102.53,107.5 C 104.25,109.29 103.75,112.65 104.54,113.97 C 105.33,115.3 105.46,115.78 105.42,115.92 C 103.21,113.9 96.98,108.17 95.47,106.16" fill="url(#RadialGradient4)" fill-opacity="1" />
  <path d="M 91.56,102.32 C 91.28,102.63 95.51,106.02 95.47,106.16" stroke-width="0.5" fill="none" stroke="sandybrown" />
  <path d="M 88.48,118.02 C 86.42,117.74 82.28,118.91 81.16,120.13 C 80.05,121.36 79.91,125.3 79.61,126.17 C 79.32,127.04 78.2,128.17 78.3,128.37 C 81.15,125.93 85.87,120.68 88.48,118.02" fill="url(#RadialGradient3)" fill-opacity="1" />
  <path d="M 88.48,118.02 C 88.79,120.07 87.7,124.23 86.49,125.37 C 85.28,126.51 81.35,126.71 80.48,127.02 C 79.61,127.33 78.51,128.47 78.3,128.37 C 81.15,125.93 85.87,120.68 88.48,118.02" fill="url(#RadialGradient4)" fill-opacity="1" />
  <path d="M 91.68,114.76 C 91.45,114.57 88.68,118.11 88.48,118.02" stroke-width="0.5" fill="none" stroke="sandybrown" />
  <path d="M 94.46,129.14 C 94.24,130.84 94.34,133.17 95.48,134.46 C 96.61,135.75 99.18,135.1 99.96,135.28 C 100.75,135.45 101.38,136.27 101.55,136.11 C 98.49,132.87 97.26,132.16 94.46,129.14" fill="url(#RadialGradient3)" fill-opacity="1" />
  <path d="M 94.46,129.14 C 96.16,128.88 98.5,128.95 99.8,130.06 C 101.11,131.18 100.5,133.75 100.69,134.54 C 100.88,135.32 101.71,135.94 101.55,136.11 C 98.49,132.87 97.26,132.16 94.46,129.14" fill="url(#RadialGradient4)" fill-opacity="1" />
  <path d="M 91.78,126.49 C 91.56,126.75 94.62,128.97 94.46,129.14" stroke-width="0.5" fill="none" stroke="sandybrown" />
  <path d="M 89.71,142.09 C 88.31,141.11 85.04,143.8 84.17,144.52 C 83.29,145.23 82.4,148.69 81.91,149.4 C 81.42,150.1 81.02,150.83 81.04,150.9 C 83.28,148.77 88.12,144.07 89.71,142.09" fill="url(#RadialGradient3)" fill-opacity="1" />
  <path d="M 89.71,142.09 C 90.72,143.47 88.08,146.79 87.37,147.67 C 86.67,148.56 83.22,149.51 82.53,150.01 C 81.84,150.51 81.11,150.92 81.04,150.9 C 83.28,148.77 88.12,144.07 89.71,142.09" fill="url(#RadialGradient4)" fill-opacity="1" />
  <path d="M 91.88,139.88 C 91.69,139.7 89.79,142.1 89.71,142.09" stroke-width="0.5" fill="none" stroke="sandybrown" />
  <path d="M 93.28,152.34 C 92.96,153.32 93.54,155.01 94.44,155.74 C 95.33,156.46 97.3,157.07 98.11,157.55 C 98.93,158.03 99.22,158.33 99.32,158.29 C 97.96,156.73 95.53,154.62 93.28,152.34" fill="url(#RadialGradient3)" fill-opacity="1" />
  <path d="M 93.28,152.34 C 94.25,152.01 95.95,152.57 96.69,153.45 C 97.43,154.33 98.06,156.3 98.56,157.1 C 99.05,157.9 99.35,158.2 99.32,158.29 C 97.96,156.73 95.53,154.62 93.28,152.34" fill="url(#RadialGradient4)" fill-opacity="1" />
  <path d="M 91.97,151.06 C 91.83,151.22 93.31,152.25 93.28,152.34" stroke-width="0.5" fill="none" stroke="sandybrown" />
  <path d="M 90.83,156.19 C 89.77,155.67 87.95,156.48 87.16,157.27 C 86.37,158.06 86.45,159.95 86.07,160.63 C 85.7,161.3 85.59,161.43 85.62,161.48 C 87.11,159.83 89.13,157.9 90.83,156.19" fill="url(#RadialGradient3)" fill-opacity="1" />
  <path d="M 90.83,156.19 C 91.36,157.24 90.58,159.07 89.81,159.87 C 89.03,160.67 87.13,160.63 86.46,161.01 C 85.79,161.39 85.66,161.51 85.62,161.48 C 87.11,159.83 89.13,157.9 90.83,156.19" fill="url(#RadialGradient4)" fill-opacity="1" />
  <path d="M 92,155 C 91.9,154.91 90.87,156.21 90.83,156.19" stroke-width="0.5" fill="none" stroke="sandybrown" />
  <path d="M 137,53 C 99,135 72,53 26,155" stroke-width="0.5" fill="none" stroke="brown" />
  <path d="M 121.34,70.04 C 118.17,65.7 113.59,67.97 107.76,69.4 C 101.93,70.82 94.74,74.98 91.98,76.29 C 89.22,77.6 86.54,78.64 86.47,78.98 C 99.03,75.63 115.7,72.17 121.34,70.04" fill="url(#RadialGradient3)" fill-opacity="1" />
  <path d="M 121.34,70.04 C 120.65,75.38 115.54,75.59 109.74,77.15 C 103.95,78.7 95.64,78.52 92.59,78.69 C 89.54,78.87 86.7,79.24 86.47,78.98 C 99.03,75.63 115.7,72.17 121.34,70.04" fill="url(#RadialGradient4)" fill-opacity="1" />
  <path d="M 129.09,68.06 C 128.91,67.52 121.57,70.31 121.34,70.04" stroke-width="0.5" fill="none" stroke="sandybrown" />
  <path d="M 121.07,89.05 C 116.38,92.39 115.33,104.36 115.64,108.3 C 115.96,112.23 121.67,121.69 122.41,124.61 C 123.16,127.52 123.72,130.36 124.31,130.4 C 123.52,119.57 121.48,99.91 121.07,89.05" fill="url(#RadialGradient3)" fill-opacity="1" />
  <path d="M 121.07,89.05 C 126.23,91.62 129.13,103.28 129.43,107.22 C 129.73,111.16 125.55,121.39 125.27,124.38 C 124.99,127.38 124.88,130.27 124.31,130.4 C 123.52,119.57 121.48,99.91 121.07,89.05" fill="url(#RadialGradient4)" fill-opacity="1" />
  <path d="M 120.38,80.19 C 119.67,80.33 121.64,88.92 121.07,89.05" stroke-width="0.5" fill="none" stroke="sandybrown" />
  <path d="M 100.01,87.78 C 98.25,83.61 96.04,77.5 91.66,76.36 C 87.27,75.22 83.95,81.06 81.02,81.57 C 78.09,82.09 76.43,81.37 76.28,81.86 C 85.83,84.72 94.92,85.72 100.01,87.78" fill="url(#RadialGradient3)" fill-opacity="1" />
  <path d="M 100.01,87.78 C 96.49,90.64 91.67,94.99 87.27,93.93 C 82.86,92.88 82.67,86.16 80.33,84.33 C 77.99,82.5 76.19,82.35 76.28,81.86 C 85.83,84.72 94.92,85.72 100.01,87.78" fill="url(#RadialGradient4)" fill-opacity="1" />
  <path d="M 108.79,89.98 C 108.92,89.28 99.91,88.28 100.01,87.78" stroke-width="0.5" fill="none" stroke="sandybrown" />
  <path d="M 90.54,102.21 C 87.42,101.12 80.48,106.15 78.15,109.42 C 75.82,112.69 75.85,121.33 75.11,123.73 C 74.38,126.12 73.27,128.22 73.41,128.36 C 76.53,124.66 85.03,112.01 90.54,102.21" fill="url(#RadialGradient3)" fill-opacity="1" />
  <path d="M 90.54,102.21 C 92.79,104.64 90.95,113.01 88.88,116.45 C 86.81,119.89 78.88,123.32 76.97,124.95 C 75.07,126.58 73.59,128.43 73.41,128.36 C 76.53,124.66 85.03,112.01 90.54,102.21" fill="url(#RadialGradient4)" fill-opacity="1" />
  <path d="M 95.38,94.83 C 94.78,94.49 90.73,102.27 90.54,102.21" stroke-width="0.5" fill="none" stroke="sandybrown" />
  <path d="M 75.13,92.02 C 75.07,88.55 70.23,83.4 68.02,81.73 C 65.8,80.05 58.74,77.97 56.54,77.46 C 54.34,76.95 53.95,76.39 53.77,76.55 C 60.2,80.68 71.21,89.15 75.13,92.02" fill="url(#RadialGradient3)" fill-opacity="1" />
  <path d="M 75.13,92.02 C 71.82,93.05 65.42,90.05 63.13,88.47 C 60.85,86.89 56.67,80.83 55.5,78.9 C 54.32,76.97 53.68,76.77 53.77,76.55 C 60.2,80.68 71.21,89.15 75.13,92.02" fill="url(#RadialGradient4)" fill-opacity="1" />
  <path d="M 81.88,96.9 C 82.08,96.55 75.04,92.24 75.13,92.02" stroke-width="0.5" fill="none" stroke="sandybrown" />
  <path d="M 65.96,105.88 C 62.77,105.91 60.18,112.52 59.34,114.73 C 58.5,116.94 59.33,119.17 59.08,121.61 C 58.83,124.05 58.1,125.01 58.46,125.18 C 60.43,121.5 63.53,113.19 65.96,105.88" fill="url(#RadialGradient3)" fill-opacity="1" />
  <path d="M 65.96,105.88 C 68.29,108.05 65.73,114.68 64.86,116.88 C 63.98,119.07 61.87,120.16 60.4,122.12 C 58.94,124.09 58.84,125.29 58.46,125.18 C 60.43,121.5 63.53,113.19 65.96,105.88" fill="url(#RadialGradient4)" fill-opacity="1" />
  <path d="M 67.89,100.92 C 67.4,100.75 66.34,106 65.96,105.88" stroke-width="0.5" fill="none" stroke="sandybrown" />
  <path d="M 51.08,107.82 C 49.85,104.72 44.92,103.98 41.96,103.53 C 39,103.08 37.8,105.41 36.26,105.81 C 34.73,106.21 33.75,106.07 33.72,106.3 C 39.18,106.71 45.6,107.57 51.08,107.82" fill="url(#RadialGradient3)" fill-opacity="1" />
  <path d="M 51.08,107.82 C 49.33,110.67 44.34,110.54 41.35,110.47 C 38.36,110.4 37.58,107.89 36.14,107.23 C 34.7,106.57 33.71,106.54 33.72,106.3 C 39.18,106.71 45.6,107.57 51.08,107.82" fill="url(#RadialGradient4)" fill-opacity="1" />
  <path d="M 56.53,108.3 C 56.56,107.82 51.06,108.06 51.08,107.82" stroke-width="0.5" fill="none" stroke="sandybrown" />
  <path d="M 48.45,120.28 C 46.87,121.24 45.94,125.07 46.13,127.14 C 46.32,129.2 48.61,132.75 49.12,134.37 C 49.62,136 49.75,136.35 49.85,136.39 C 49.66,131.41 48.89,126.48 48.45,120.28" fill="url(#RadialGradient3)" fill-opacity="1" />
  <path d="M 48.45,120.28 C 50.18,120.96 51.75,124.57 51.92,126.64 C 52.08,128.71 50.43,132.59 50.22,134.28 C 50,135.96 49.94,136.34 49.85,136.39 C 49.66,131.41 48.89,126.48 48.45,120.28" fill="url(#RadialGradient4)" fill-opacity="1" />
  <path d="M 48.17,116.97 C 47.81,117 48.55,120.22 48.45,120.28" stroke-width="0.5" fill="none" stroke="sandybrown" />
  <path d="M 37.99,127.89 C 37.04,126.69 34.25,126.74 32.53,126.92 C 30.82,127.1 29.12,129.01 28.16,129.46 C 27.2,129.9 26.56,130.07 26.58,130.26 C 30.9,129.16 35.33,128.58 37.99,127.89" fill="url(#RadialGradient3)" fill-opacity="1" />
  <path d="M 37.99,127.89 C 37.59,129.38 35.01,130.44 33.37,130.95 C 31.73,131.47 29.4,130.4 28.35,130.37 C 27.29,130.34 26.64,130.43 26.58,130.26 C 30.9,129.16 35.33,128.58 37.99,127.89" fill="url(#RadialGradient4)" fill-opacity="1" />
  <path d="M 40.67,127.34 C 40.62,127.16 38.05,128.07 37.99,127.89" stroke-width="0.5" fill="none" stroke="sandybrown" />
  <path d="M 34.94,141.1 C 34.1,142.23 34.62,145 34.93,146.09 C 35.24,147.17 36.38,148.88 36.94,149.31 C 37.5,149.73 37.69,150.79 37.77,150.82 C 37.35,148.9 35.81,144.07 34.94,141.1" fill="url(#RadialGradient3)" fill-opacity="1" />
  <path d="M 34.94,141.1 C 36.26,141.6 37.31,144.22 37.63,145.3 C 37.94,146.38 37.9,148.44 37.65,149.1 C 37.41,149.76 37.82,150.76 37.77,150.82 C 37.35,148.9 35.81,144.07 34.94,141.1" fill="url(#RadialGradient4)" fill-opacity="1" />
  <path d="M 34.16,138.4 C 33.97,138.49 34.99,141.04 34.94,141.1" stroke-width="0.5" fill="none" stroke="sandybrown" />
  <path d="M 26.17,149.94 C 25.07,148.87 23.06,149.37 21.75,149.78 C 20.43,150.19 19.05,151.8 18.49,152.26 C 17.92,152.72 17.49,152.87 17.51,152.95 C 20.51,151.81 24.07,150.88 26.17,149.94" fill="url(#RadialGradient3)" fill-opacity="1" />
  <path d="M 26.17,149.94 C 25.97,151.47 24.08,152.32 22.8,152.81 C 21.51,153.3 19.43,152.89 18.7,152.88 C 17.97,152.87 17.54,153.01 17.51,152.95 C 20.51,151.81 24.07,150.88 26.17,149.94" fill="url(#RadialGradient4)" fill-opacity="1" />
  <path d="M 28.76,149.04 C 28.69,148.84 26.2,150.01 26.17,149.94" stroke-width="0.5" fill="none" stroke="sandybrown" />
  <path d="M 26.52,156.39 C 25.67,157.3 25.8,159.43 26.25,160.45 C 26.7,161.47 28.11,161.74 28.4,162.23 C 28.7,162.71 28.98,163.18 29.04,163.18 C 28.45,161.22 26.98,157.41 26.52,156.39" fill="url(#RadialGradient3)" fill-opacity="1" />
  <path d="M 26.52,156.39 C 27.76,156.53 29.05,158.22 29.38,159.29 C 29.7,160.36 28.81,161.48 28.91,162.04 C 29,162.6 29.09,163.14 29.04,163.18 C 28.45,161.22 26.98,157.41 26.52,156.39" fill="url(#RadialGradient4)" fill-opacity="1" />
  <path d="M 26,155 C 25.86,155.05 26.57,156.35 26.52,156.39" stroke-width="0.5" fill="none" stroke="sandybrown" />
  <path d="M 7,34 C 137,69 78,72 81,76" stroke-width="0.5" fill="none" stroke="brown" />
  <path d="M 28.75,31.18 C 33.82,34.05 37.43,32.31 41.65,29.62 C 45.88,26.93 52.5,20.37 55.46,17.47 C 58.42,14.58 60.2,13.76 60.07,13.44 C 52.27,17.92 38.61,26.28 28.75,31.18" fill="url(#RadialGradient3)" fill-opacity="1" />
  <path d="M 28.75,31.18 C 28.89,25.35 32.25,23.16 36.73,20.92 C 41.2,18.68 50.24,16.37 54.24,15.33 C 58.25,14.28 59.87,13.17 60.07,13.44 C 52.27,17.92 38.61,26.28 28.75,31.18" fill="url(#RadialGradient4)" fill-opacity="1" />
  <path d="M 18.3,37.09 C 18.81,37.87 28.55,30.91 28.75,31.18" stroke-width="0.5" fill="none" stroke="sandybrown" />
  <path d="M 32.44,46.93 C 29.55,51.91 30.72,62.56 33.27,66.79 C 35.82,71.02 44.07,72.1 46.02,74.4 C 47.97,76.71 49.34,78.08 49.65,78.04 C 47.72,73.46 35.18,51.06 32.44,46.93" fill="url(#RadialGradient3)" fill-opacity="1" />
  <path d="M 32.44,46.93 C 38.19,47.13 46.59,53.77 48.82,58.18 C 51.05,62.59 47.59,70.15 48.51,73.03 C 49.42,75.91 49.86,77.8 49.65,78.04 C 47.72,73.46 35.18,51.06 32.44,46.93" fill="url(#RadialGradient4)" fill-opacity="1" />
  <path d="M 28.61,40.02 C 28.15,40.28 32.64,46.69 32.44,46.93" stroke-width="0.5" fill="none" stroke="sandybrown" />
  <path d="M 47.52,37.62 C 51.7,41.54 58.85,41.46 62.18,40 C 65.51,38.54 68.61,29.01 71.27,26.32 C 73.94,23.64 74.78,23.51 74.63,23 C 62.5,29.13 55.53,33.39 47.52,37.62" fill="url(#RadialGradient3)" fill-opacity="1" />
  <path d="M 47.52,37.62 C 46.54,31.98 50.54,26.04 53.59,24.06 C 56.63,22.08 66.3,24.73 70.01,23.98 C 73.72,23.23 74.29,22.59 74.63,23 C 62.5,29.13 55.53,33.39 47.52,37.62" fill="url(#RadialGradient4)" fill-opacity="1" />
  <path d="M 37.96,42.78 C 38.34,43.4 47.18,37.21 47.52,37.62" stroke-width="0.5" fill="none" stroke="sandybrown" />
  <path d="M 53.42,54.75 C 50.26,59.1 50.18,63.65 51.8,67.32 C 53.43,71 58.37,69.34 60.78,71.71 C 63.19,74.07 63.88,75.52 64.11,75.4 C 61.05,70.67 55.54,59.07 53.42,54.75" fill="url(#RadialGradient3)" fill-opacity="1" />
  <path d="M 53.42,54.75 C 58.8,54.68 62.56,57.25 64.62,60.69 C 66.68,64.14 62.48,67.22 63.01,70.55 C 63.55,73.88 64.33,75.28 64.11,75.4 C 61.05,70.67 55.54,59.07 53.42,54.75" fill="url(#RadialGradient4)" fill-opacity="1" />
  <path d="M 49,46.21 C 48.63,46.45 53.65,54.63 53.42,54.75" stroke-width="0.5" fill="none" stroke="sandybrown" />
  <path d="M 61.87,45.82 C 65.59,48.62 74.32,47.46 76.77,46.15 C 79.22,44.84 81.93,37.83 84.12,36 C 86.31,34.16 86.17,34.01 86.1,33.75 C 79.51,37.63 69.52,42.49 61.87,45.82" fill="url(#RadialGradient3)" fill-opacity="1" />
  <path d="M 61.87,45.82 C 61.88,41.16 68.06,34.89 70.58,33.72 C 73.1,32.56 80.33,34.61 83.11,33.97 C 85.9,33.33 85.94,33.54 86.1,33.75 C 79.51,37.63 69.52,42.49 61.87,45.82" fill="url(#RadialGradient4)" fill-opacity="1" />
  <path d="M 56.28,48.6 C 56.61,49.2 61.71,45.61 61.87,45.82" stroke-width="0.5" fill="none" stroke="sandybrown" />
  <path d="M 66.97,56.39 C 64.54,58.18 66.16,62.65 67.52,65.93 C 68.88,69.21 73.15,72.43 74.05,73.32 C 74.94,74.21 75.6,75.15 75.74,75.14 C 73.69,70.88 70.71,63.13 66.97,56.39" fill="url(#RadialGradient3)" fill-opacity="1" />
  <path d="M 66.97,56.39 C 69.9,55.67 72.3,59.77 73.95,62.92 C 75.59,66.07 75.33,71.42 75.44,72.67 C 75.55,73.93 75.84,75.03 75.74,75.14 C 73.69,70.88 70.71,63.13 66.97,56.39" fill="url(#RadialGradient4)" fill-opacity="1" />
  <path d="M 64.72,51.57 C 64.44,51.72 67.07,56.28 66.97,56.39" stroke-width="0.5" fill="none" stroke="sandybrown" />
  <path d="M 77.04,53.38 C 79.38,55.1 85.46,54.15 87.76,53.2 C 90.07,52.26 92.14,48.19 93.4,47.34 C 94.66,46.49 95.43,45.9 95.4,45.68 C 90.28,47.61 81.98,50.99 77.04,53.38" fill="url(#RadialGradient3)" fill-opacity="1" />
  <path d="M 77.04,53.38 C 77.46,50.51 82.39,46.84 84.68,45.86 C 86.97,44.88 91.32,46.24 92.81,45.94 C 94.31,45.64 95.27,45.5 95.4,45.68 C 90.28,47.61 81.98,50.99 77.04,53.38" fill="url(#RadialGradient4)" fill-opacity="1" />
  <path d="M 73.37,54.92 C 73.53,55.24 76.91,53.21 77.04,53.38" stroke-width="0.5" fill="none" stroke="sandybrown" />
  <path d="M 82.3,61.62 C 80.47,62.68 82.09,66.95 82.74,69.36 C 83.39,71.77 85.39,73.71 86.35,75.14 C 87.3,76.57 87.39,77.37 87.64,77.33 C 85.64,72.32 82.67,63.69 82.3,61.62" fill="url(#RadialGradient3)" fill-opacity="1" />
  <path d="M 82.3,61.62 C 84.4,61.35 85.71,65.72 86.67,68.02 C 87.62,70.33 87.22,73.09 87.33,74.81 C 87.44,76.52 87.86,77.21 87.64,77.33 C 85.64,72.32 82.67,63.69 82.3,61.62" fill="url(#RadialGradient4)" fill-opacity="1" />
  <path d="M 81.23,58.48 C 80.99,58.58 82.52,61.5 82.3,61.62" stroke-width="0.5" fill="none" stroke="sandybrown" />
  <path d="M 90.7,62.04 C 91.93,63.23 96.24,64.09 97.56,63.71 C 98.89,63.32 102.31,60.86 103.29,60.51 C 104.28,60.16 104.55,59.99 104.57,59.79 C 100.2,60.73 94.81,61.71 90.7,62.04" fill="url(#RadialGradient3)" fill-opacity="1" />
  <path d="M 90.7,62.04 C 91.49,60.53 95.3,58.35 96.68,58.29 C 98.06,58.24 102.09,59.49 103.13,59.51 C 104.18,59.53 104.48,59.6 104.57,59.79 C 100.2,60.73 94.81,61.71 90.7,62.04" fill="url(#RadialGradient4)" fill-opacity="1" />
  <path d="M 87.99,62.48 C 88.04,62.67 90.61,61.86 90.7,62.04" stroke-width="0.5" fill="none" stroke="sandybrown" />
  <path d="M 88.62,70.07 C 87.21,68.82 84.14,69.46 82.83,69.96 C 81.51,70.46 81.57,72.14 80.9,72.73 C 80.23,73.33 79.97,73.39 80,73.5 C 82.37,72.61 85.47,71.28 88.62,70.07" fill="url(#RadialGradient3)" fill-opacity="1" />
  <path d="M 88.62,70.07 C 88.46,71.95 85.79,73.6 84.49,74.14 C 83.19,74.68 82.08,73.41 81.19,73.44 C 80.29,73.46 80.06,73.61 80,73.5 C 82.37,72.61 85.47,71.28 88.62,70.07" fill="url(#RadialGradient4)" fill-opacity="1" />
  <path d="M 91.49,68.93 C 91.39,68.71 88.68,70.18 88.62,70.07" stroke-width="0.5" fill="none" stroke="sandybrown" />
  <path d="M 84.2,75.4 C 83.1,75.69 82.04,77.49 81.68,78.58 C 81.32,79.67 81.61,80.28 81.6,81.02 C 81.6,81.76 81.41,81.91 81.54,81.98 C 82.63,79.45 83.66,76.41 84.2,75.4" fill="url(#RadialGradient3)" fill-opacity="1" />
  <path d="M 84.2,75.4 C 84.8,76.38 84.31,78.41 83.81,79.44 C 83.3,80.47 82.68,80.71 82.16,81.25 C 81.65,81.78 81.69,82.02 81.54,81.98 C 82.63,79.45 83.66,76.41 84.2,75.4" fill="url(#RadialGradient4)" fill-opacity="1" />
  <path d="M 85.06,73.27 C 84.89,73.21 84.35,75.44 84.2,75.4" stroke-width="0.5" fill="none" stroke="sandybrown" />
  <path d="M 80.59,77.62 C 79.73,77.98 78.32,79.15 78.11,79.87 C 77.9,80.58 78.96,81.99 78.99,82.77 C 79.02,83.54 78.94,83.89 79,83.92 C 79.11,82.99 79.85,80.11 80.59,77.62" fill="url(#RadialGradient3)" fill-opacity="1" />
  <path d="M 80.59,77.62 C 81.17,78.34 81.86,80.05 81.71,80.77 C 81.56,81.5 79.95,82.24 79.56,82.91 C 79.16,83.58 79.07,83.92 79,83.92 C 79.11,82.99 79.85,80.11 80.59,77.62" fill="url(#RadialGradient4)" fill-opacity="1" />
  <path d="M 81,76 C 80.87,75.98 80.66,77.62 80.59,77.62" stroke-width="0.5" fill="none" stroke="sandybrown" />
</svg>
