<svg width="160" height="160" viewBox="0 0 160 160" xmlns="http://www.w3.org/2000/svg" xmlns:xlink="http://www.w3.org/1999/xlink">
  <radialGradient id="RadialGradient3" cx="0.35" cy="0.63" r="0.7">
    <stop offset="0%" stop-color="#00FF00" />
    <stop offset="100%" stop-color="#008000" />
  </radialGradient>
  <radialGradient id="RadialGradient4" cx="0.5" cy="0.5" r="0.5">
    <stop offset="0%" stop-color="#40DD40" />
    <stop offset="100%" stop-color="#208020" />
  </radialGradient>
  <path d="M 63,71 C 3,74 57,159 47,124" stroke-width="0.5" fill="none" stroke="brown" />
  <path d="M 48.6,80.08 C 44.67,78.84 37.51,83.83 35.84,87.5 C 34.17,91.17 35.97,96.96 34.88,99.81 C 33.79,102.67 33,104.31 33.45,104.8 C 41.43,92.1 45,84.91 48.6,80.08" fill="url(#RadialGradient3)" fill-opacity="1" />
  <path d="M 48.6,80.08 C 51.49,83.02 50.29,91.66 47.78,94.82 C 45.27,97.97 39.29,99 37.24,101.26 C 35.19,103.52 34.08,104.97 33.45,104.8 C 41.43,92.1 45,84.91 48.6,80.08" fill="url(#RadialGradient4)" fill-opacity="1" />
  <path d="M 53.31,72.4 C 52.46,71.94 49.24,80.25 48.6,80.08" stroke-width="0.5" fill="none" stroke="sandybrown" />
  <path d="M 36.23,73.82 C 35.27,69.51 26.05,61.57 22.32,60.18 C 18.6,58.79 9.09,64.27 6.89,64.96 C 4.68,65.66 1.96,64.64 1.73,65.24 C 15.23,68.23 30.63,71.78 36.23,73.82" fill="url(#RadialGradient3)" fill-opacity="1" />
  <path d="M 36.23,73.82 C 33.36,77.18 21.5,79.87 17.56,79.35 C 13.61,78.83 7.78,69.54 6.16,67.9 C 4.53,66.25 1.66,65.87 1.73,65.24 C 15.23,68.23 30.63,71.78 36.23,73.82" fill="url(#RadialGradient4)" fill-opacity="1" />
  <path d="M 44.86,75.97 C 45.02,75.27 36.16,74.45 36.23,73.82" stroke-width="0.5" fill="none" stroke="sandybrown" />
  <path d="M 39.92,88.39 C 35.52,89.79 34.53,99.01 35.31,104.39 C 36.09,109.77 40.27,113.87 41.83,117.34 C 43.38,120.81 43.11,121.75 43.6,121.7 C 42.15,116.39 40.67,94.69 39.92,88.39" fill="url(#RadialGradient3)" fill-opacity="1" />
  <path d="M 39.92,88.39 C 44.52,88.8 47.5,97.58 47.91,103 C 48.33,108.42 45.15,113.33 44.39,117.06 C 43.63,120.79 44.1,121.64 43.6,121.7 C 42.15,116.39 40.67,94.69 39.92,88.39" fill="url(#RadialGradient4)" fill-opacity="1" />
  <path d="M 39.13,81.19 C 38.24,81.36 40.42,88.33 39.92,88.39" stroke-width="0.5" fill="none" stroke="sandybrown" />
  <path d="M 28.31,92.35 C 24.33,89.91 16.15,95.03 13.32,96.54 C 10.49,98.05 6.05,101.68 5.11,103.34 C 4.17,105.01 1.24,106.16 1.28,106.41 C 5.7,104.48 20.05,97.32 28.31,92.35" fill="url(#RadialGradient3)" fill-opacity="1" />
  <path d="M 28.31,92.35 C 28.03,97.02 19.14,100.78 16.28,102.23 C 13.42,103.68 7.89,105.23 5.99,105.04 C 4.09,104.86 1.47,106.59 1.28,106.41 C 5.7,104.48 20.05,97.32 28.31,92.35" fill="url(#RadialGradient4)" fill-opacity="1" />
  <path d="M 35.42,88.65 C 35.14,88.25 28.5,92.53 28.31,92.35" stroke-width="0.5" fill="none" stroke="sandybrown" />
  <path d="M 38.96,102.15 C 37.35,106.52 39.41,109.34 41.59,112.05 C 43.78,114.76 49.19,115.4 51.54,116.99 C 53.9,118.59 53.8,118.53 54.16,118.34 C 50.24,114.41 43.76,107.17 38.96,102.15" fill="url(#RadialGradient3)" fill-opacity="1" />
  <path d="M 38.96,102.15 C 43.42,100.82 46.11,103.05 48.68,105.4 C 51.25,107.75 51.53,113.19 52.98,115.64 C 54.43,118.1 54.37,117.99 54.16,118.34 C 50.24,114.41 43.76,107.17 38.96,102.15" fill="url(#RadialGradient4)" fill-opacity="1" />
  <path d="M 34.21,97.09 C 33.94,97.42 39.17,101.8 38.96,102.15" stroke-width="0.5" fill="none" stroke="sandybrown" />
  <path d="M 31.9,108.54 C 28.71,106.88 25.51,111.13 23.73,113.49 C 21.95,115.85 21.8,120.18 21.32,121.31 C 20.85,122.43 19.61,124.46 19.8,124.6 C 23.13,120.45 26.84,115.1 31.9,108.54" fill="url(#RadialGradient3)" fill-opacity="1" />
  <path d="M 31.9,108.54 C 34.38,111.15 31.18,115.4 29.4,117.76 C 27.62,120.13 23.49,121.46 22.54,122.23 C 21.6,122.99 19.98,124.74 19.8,124.6 C 23.13,120.45 26.84,115.1 31.9,108.54" fill="url(#RadialGradient4)" fill-opacity="1" />
  <path d="M 34.75,104.77 C 34.51,104.59 32.09,108.68 31.9,108.54" stroke-width="0.5" fill="none" stroke="sandybrown" />
  <path d="M 40.29,114.48 C 39.93,117.14 42.69,120.34 44.82,121.64 C 46.94,122.93 50.95,121.93 52.47,122.28 C 53.99,122.62 54.32,122.85 54.57,122.6 C 48.04,118.99 46.57,118.56 40.29,114.48" fill="url(#RadialGradient3)" fill-opacity="1" />
  <path d="M 40.29,114.48 C 42.39,112.81 46.55,113.55 48.75,114.71 C 50.95,115.87 52.14,119.83 53.22,120.96 C 54.29,122.08 54.66,122.25 54.57,122.6 C 48.04,118.99 46.57,118.56 40.29,114.48" fill="url(#RadialGradient4)" fill-opacity="1" />
  <path d="M 36.4,112.27 C 36.18,112.67 40.38,114.13 40.29,114.48" stroke-width="0.5" fill="none" stroke="sandybrown" />
  <path d="M 36.94,123.36 C 34.5,122.75 32.86,126.11 32.18,128.08 C 31.51,130.04 31.53,133.67 31.31,134.93 C 31.08,136.19 30.88,137 30.99,137.06 C 32.78,133.31 35.56,126.38 36.94,123.36" fill="url(#RadialGradient3)" fill-opacity="1" />
  <path d="M 36.94,123.36 C 39.06,124.73 37.72,128.22 36.75,130.06 C 35.77,131.9 33.1,134.35 32.33,135.38 C 31.56,136.4 31.11,137.1 30.99,137.06 C 32.78,133.31 35.56,126.38 36.94,123.36" fill="url(#RadialGradient4)" fill-opacity="1" />
  <path d="M 38.76,119.18 C 38.47,119.06 37.06,123.4 36.94,123.36" stroke-width="0.5" fill="none" stroke="sandybrown" />
  <path d="M 44.82,126.67 C 45.32,128.6 49.07,129.21 50.99,129.95 C 52.92,130.69 54.74,130.58 55.87,130.41 C 56.99,130.24 57.26,130.49 57.3,130.41 C 52.67,129.15 47.73,127.72 44.82,126.67" fill="url(#RadialGradient3)" fill-opacity="1" />
  <path d="M 44.82,126.67 C 46.3,125.32 49.77,126.88 51.78,127.32 C 53.8,127.77 55.26,128.86 56.1,129.62 C 56.95,130.38 57.32,130.32 57.3,130.41 C 52.67,129.15 47.73,127.72 44.82,126.67" fill="url(#RadialGradient4)" fill-opacity="1" />
  <path d="M 41.87,125.78 C 41.81,126.07 44.84,126.58 44.82,126.67" stroke-width="0.5" fill="none" stroke="sandybrown" />
  <path d="M 45.4,133.42 C 43.97,133.91 43.7,135.02 43.53,136.7 C 43.37,138.38 44.44,140.69 44.56,141.82 C 44.68,142.95 44.8,143.2 44.86,143.25 C 44.92,139.87 45.05,137.34 45.4,133.42" fill="url(#RadialGradient3)" fill-opacity="1" />
  <path d="M 45.4,133.42 C 46.77,134.06 46.92,135.19 46.9,136.88 C 46.88,138.57 45.57,140.75 45.32,141.86 C 45.08,142.98 44.94,143.21 44.86,143.25 C 44.92,139.87 45.05,137.34 45.4,133.42" fill="url(#RadialGradient4)" fill-opacity="1" />
  <path d="M 45.52,131.18 C 45.3,131.16 45.47,133.38 45.4,133.42" stroke-width="0.5" fill="none" stroke="sandybrown" />
  <path d="M 45.83,126.79 C 46.32,125.73 44.37,124.51 43.6,124.02 C 42.83,123.52 40.82,122.38 40.26,122.37 C 39.7,122.36 39.09,121.65 38.99,121.78 C 40,122.33 45.03,125.94 45.83,126.79" fill="url(#RadialGradient3)" fill-opacity="1" />
  <path d="M 45.83,126.79 C 44.97,127.57 43.22,126.08 42.52,125.49 C 41.81,124.91 40.12,123.34 39.94,122.81 C 39.77,122.27 38.9,121.91 38.99,121.78 C 40,122.33 45.03,125.94 45.83,126.79" fill="url(#RadialGradient4)" fill-opacity="1" />
  <path d="M 48.05,128.41 C 48.13,128.28 45.74,126.92 45.83,126.79" stroke-width="0.5" fill="none" stroke="sandybrown" />
  <path d="M 47.91,122.38 C 48.91,122.52 50.38,121.86 50.72,121.2 C 51.06,120.54 50.73,118.43 50.92,117.69 C 51.11,116.94 51.28,116.64 51.21,116.57 C 50.67,117.76 48.73,120.93 47.91,122.38" fill="url(#RadialGradient3)" fill-opacity="1" />
  <path d="M 47.91,122.38 C 47.29,121.6 47.1,120 47.49,119.37 C 47.88,118.74 49.86,117.94 50.4,117.39 C 50.94,116.84 51.11,116.54 51.21,116.57 C 50.67,117.76 48.73,120.93 47.91,122.38" fill="url(#RadialGradient4)" fill-opacity="1" />
  <path d="M 47,124 C 47.12,124.06 47.82,122.35 47.91,122.38" stroke-width="0.5" fill="none" stroke="sandybrown" />
  <path d="M 16,112 C 21,98 107,131 115,33" stroke-width="0.5" fill="none" stroke="brown" />
  <path d="M 36.33,113.64 C 34.42,117.3 40.52,127.01 43.66,129.49 C 46.81,131.97 57.39,135.11 60.82,137.27 C 64.25,139.43 64.33,139.22 64.77,138.84 C 61.19,135.35 41.93,117.88 36.33,113.64" fill="url(#RadialGradient3)" fill-opacity="1" />
  <path d="M 36.33,113.64 C 39.73,111.31 50.1,116.19 52.95,119.01 C 55.79,121.83 60.18,131.95 62.74,135.1 C 65.3,138.25 65.1,138.35 64.77,138.84 C 61.19,135.35 41.93,117.88 36.33,113.64" fill="url(#RadialGradient4)" fill-opacity="1" />
  <path d="M 29.59,107.68 C 29.05,108.35 36.65,113.16 36.33,113.64" stroke-width="0.5" fill="none" stroke="sandybrown" />
  <path d="M 50.56,98.85 C 54.92,101.38 64.38,91.29 67.34,87.32 C 70.3,83.35 71.9,78.17 73.75,74.54 C 75.6,70.9 76.92,69.45 76.72,69.25 C 71.55,75.23 56.44,93.5 50.56,98.85" fill="url(#RadialGradient3)" fill-opacity="1" />
  <path d="M 50.56,98.85 C 47.52,94.85 56.36,84.21 59.94,80.78 C 63.52,77.35 68.46,75.13 71.84,72.84 C 75.22,70.56 76.5,69.08 76.72,69.25 C 71.55,75.23 56.44,93.5 50.56,98.85" fill="url(#RadialGradient4)" fill-opacity="1" />
  <path d="M 43.37,107 C 44.03,107.5 50.35,98.68 50.56,98.85" stroke-width="0.5" fill="none" stroke="sandybrown" />
  <path d="M 65.48,111.97 C 63.54,116.16 69.68,126.18 73.3,128.91 C 76.91,131.63 85.82,130.18 88.81,130.71 C 91.79,131.23 93.68,133.15 93.99,132.82 C 85.27,126.34 70.34,114.54 65.48,111.97" fill="url(#RadialGradient3)" fill-opacity="1" />
  <path d="M 65.48,111.97 C 68.88,108.85 80.29,111.66 83.99,114.28 C 87.68,116.9 89,125.83 90.41,128.52 C 91.81,131.21 94.21,132.42 93.99,132.82 C 85.27,126.34 70.34,114.54 65.48,111.97" fill="url(#RadialGradient4)" fill-opacity="1" />
  <path d="M 56.71,105.56 C 56.24,106.28 65.7,111.57 65.48,111.97" stroke-width="0.5" fill="none" stroke="sandybrown" />
  <path d="M 74.29,95 C 77.51,95.73 83.11,87.78 85.08,84.28 C 87.05,80.78 84.68,77.79 85.4,75.46 C 86.11,73.13 86.91,70.98 86.57,70.66 C 85.1,74.41 77.26,87.52 74.29,95" fill="url(#RadialGradient3)" fill-opacity="1" />
  <path d="M 74.29,95 C 71.79,92.84 74.85,83.61 76.49,79.95 C 78.14,76.29 81.95,76.41 83.4,74.45 C 84.85,72.49 86.1,70.57 86.57,70.66 C 85.1,74.41 77.26,87.52 74.29,95" fill="url(#RadialGradient4)" fill-opacity="1" />
  <path d="M 70.68,102.15 C 71.13,102.32 73.82,94.91 74.29,95" stroke-width="0.5" fill="none" stroke="sandybrown" />
  <path d="M 87.64,99.02 C 88.67,102.94 95.48,104.37 98.86,105.18 C 102.24,106 103.86,105.39 106.07,105.26 C 108.27,105.14 108.8,105.55 108.97,105.24 C 104.36,103.69 92.16,100.88 87.64,99.02" fill="url(#RadialGradient3)" fill-opacity="1" />
  <path d="M 87.64,99.02 C 90.61,96.27 97.13,98.72 100.41,99.85 C 103.7,100.98 104.74,102.37 106.54,103.66 C 108.33,104.95 109,104.88 108.97,105.24 C 104.36,103.69 92.16,100.88 87.64,99.02" fill="url(#RadialGradient4)" fill-opacity="1" />
  <path d="M 81.65,97.28 C 81.59,97.68 87.67,98.67 87.64,99.02" stroke-width="0.5" fill="none" stroke="sandybrown" />
  <path d="M 92.17,85.15 C 94.57,84.7 97.29,77.76 97.51,75.4 C 97.72,73.04 94.65,66.34 94.3,65.13 C 93.95,63.93 93.94,62.26 93.58,62.13 C 93.85,66.29 92.54,79.84 92.17,85.15" fill="url(#RadialGradient3)" fill-opacity="1" />
  <path d="M 92.17,85.15 C 89.85,84.42 87.99,77.19 88.06,74.83 C 88.14,72.46 92,66.18 92.49,65.02 C 92.98,63.87 93.2,62.21 93.58,62.13 C 93.85,66.29 92.54,79.84 92.17,85.15" fill="url(#RadialGradient4)" fill-opacity="1" />
  <path d="M 91.89,89.87 C 92.33,89.88 91.8,85.24 92.17,85.15" stroke-width="0.5" fill="none" stroke="sandybrown" />
  <path d="M 105.76,79.99 C 107.04,81.82 111.8,83.32 114.23,82.75 C 116.66,82.19 117.3,79.71 119.17,78.75 C 121.04,77.79 121.01,77.85 121.03,77.71 C 116.11,78.5 111.22,79.44 105.76,79.99" fill="url(#RadialGradient3)" fill-opacity="1" />
  <path d="M 105.76,79.99 C 106.45,77.88 110.56,75.05 113.05,74.88 C 115.54,74.7 116.88,76.89 118.95,77.26 C 121.01,77.63 120.97,77.58 121.03,77.71 C 116.11,78.5 111.22,79.44 105.76,79.99" fill="url(#RadialGradient4)" fill-opacity="1" />
  <path d="M 99.86,80.88 C 99.94,81.31 105.71,79.87 105.76,79.99" stroke-width="0.5" fill="none" stroke="sandybrown" />
  <path d="M 104.63,67.85 C 106.33,66.41 106.29,63.8 105.54,61.43 C 104.79,59.05 102.8,58.84 101.92,57.83 C 101.04,56.81 100.92,56.02 100.68,56.05 C 102.46,60.71 103.04,63.14 104.63,67.85" fill="url(#RadialGradient3)" fill-opacity="1" />
  <path d="M 104.63,67.85 C 102.4,67.72 100.86,65.61 100.03,63.27 C 99.21,60.92 100.67,59.55 100.76,58.21 C 100.86,56.87 100.48,56.17 100.68,56.05 C 102.46,60.71 103.04,63.14 104.63,67.85" fill="url(#RadialGradient4)" fill-opacity="1" />
  <path d="M 105.68,71 C 106.04,70.85 104.42,67.97 104.63,67.85" stroke-width="0.5" fill="none" stroke="sandybrown" />
  <path d="M 112.13,59.85 C 113.49,61.09 117.39,60.48 118.56,59.75 C 119.73,59.02 122.42,55.94 122.82,55.2 C 123.23,54.47 124.42,53.93 124.44,53.82 C 121.72,55.29 114.41,59.06 112.13,59.85" fill="url(#RadialGradient3)" fill-opacity="1" />
  <path d="M 112.13,59.85 C 111.99,58.01 114.86,55.3 116.15,54.83 C 117.45,54.35 121.53,54.12 122.36,54.25 C 123.19,54.39 124.34,53.77 124.44,53.82 C 121.72,55.29 114.41,59.06 112.13,59.85" fill="url(#RadialGradient4)" fill-opacity="1" />
  <path d="M 109.66,61.06 C 109.81,61.33 112.03,59.8 112.13,59.85" stroke-width="0.5" fill="none" stroke="sandybrown" />
  <path d="M 111.35,47.29 C 112.46,45.9 110.25,43.65 109.4,42.19 C 108.54,40.73 107.26,39.56 106.45,39.07 C 105.64,38.59 105.41,37.78 105.25,37.84 C 106.69,39.59 110.45,45.86 111.35,47.29" fill="url(#RadialGradient3)" fill-opacity="1" />
  <path d="M 111.35,47.29 C 109.63,47.73 108.49,44.79 107.51,43.41 C 106.53,42.04 105.98,40.38 105.88,39.44 C 105.77,38.51 105.12,37.97 105.25,37.84 C 106.69,39.59 110.45,45.86 111.35,47.29" fill="url(#RadialGradient4)" fill-opacity="1" />
  <path d="M 112.72,49.41 C 112.89,49.28 111.22,47.41 111.35,47.29" stroke-width="0.5" fill="none" stroke="sandybrown" />
  <path d="M 116.05,37.52 C 117.44,38.19 119.54,37.54 120.4,36.78 C 121.26,36.02 121.25,34.13 121.54,33.76 C 121.83,33.39 122.24,32.84 122.22,32.77 C 120.64,33.71 117.54,36.45 116.05,37.52" fill="url(#RadialGradient3)" fill-opacity="1" />
  <path d="M 116.05,37.52 C 115.76,36.01 116.93,34.15 117.88,33.51 C 118.83,32.87 120.65,33.36 121.09,33.17 C 121.52,32.98 122.16,32.73 122.22,32.77 C 120.64,33.71 117.54,36.45 116.05,37.52" fill="url(#RadialGradient4)" fill-opacity="1" />
  <path d="M 114.42,38.78 C 114.54,38.91 115.99,37.48 116.05,37.52" stroke-width="0.5" fill="none" stroke="sandybrown" />
  <path d="M 113.93,31.72 C 114.38,31.1 113.82,29.39 113.41,28.77 C 113,28.15 111.84,28.38 111.27,28.13 C 110.7,27.88 110.56,27.53 110.48,27.58 C 112.07,29.4 113.12,30.46 113.93,31.72" fill="url(#RadialGradient3)" fill-opacity="1" />
  <path d="M 113.93,31.72 C 113.24,32.05 111.66,31.19 111.13,30.67 C 110.59,30.15 111.03,29.06 110.88,28.46 C 110.74,27.85 110.42,27.65 110.48,27.58 C 112.07,29.4 113.12,30.46 113.93,31.72" fill="url(#RadialGradient4)" fill-opacity="1" />
  <path d="M 115,33 C 115.13,32.89 113.86,31.78 113.93,31.72" stroke-width="0.5" fill="none" stroke="sandybrown" />
  <path d="M 106,49 C 94,92 123,5 62,91" stroke-width="0.5" fill="none" stroke="brown" />
  <path d="M 95.2,62.09 C 91.45,59.65 83.56,63.98 80.23,66.22 C 76.91,68.46 75.1,71.3 72.17,74.23 C 69.25,77.15 68.44,77.45 68.45,77.76 C 80.62,70.85 89.3,65.87 95.2,62.09" fill="url(#RadialGradient3)" fill-opacity="1" />
  <path d="M 95.2,62.09 C 95.49,66.55 87.85,71.32 84.28,73.13 C 80.7,74.93 77.33,75.12 73.35,76.24 C 69.37,77.36 68.72,77.93 68.45,77.76 C 80.62,70.85 89.3,65.87 95.2,62.09" fill="url(#RadialGradient4)" fill-opacity="1" />
  <path d="M 103.82,57.04 C 103.41,56.49 95.46,62.26 95.2,62.09" stroke-width="0.5" fill="none" stroke="sandybrown" />
  <path d="M 96.25,51.59 C 99.24,47.54 94.2,41.45 89.96,37.29 C 85.72,33.14 79.71,29.25 75.99,27.3 C 72.26,25.34 71.45,23.53 71.05,23.77 C 80.46,33.91 92.05,47.39 96.25,51.59" fill="url(#RadialGradient3)" fill-opacity="1" />
  <path d="M 96.25,51.59 C 91.92,54.17 86.36,48.55 82.64,43.92 C 78.92,39.29 75.65,32.93 74.08,29.03 C 72.5,25.13 70.78,24.14 71.05,23.77 C 80.46,33.91 92.05,47.39 96.25,51.59" fill="url(#RadialGradient4)" fill-opacity="1" />
  <path d="M 102.87,58.91 C 103.42,58.31 95.97,51.96 96.25,51.59" stroke-width="0.5" fill="none" stroke="sandybrown" />
  <path d="M 100.46,44.6 C 103.85,41.6 108.83,31.2 108.1,26.72 C 107.37,22.23 100.24,16.45 99.27,12.89 C 98.31,9.34 97.96,9.4 97.61,9.39 C 98.58,16.58 100.36,33.7 100.46,44.6" fill="url(#RadialGradient3)" fill-opacity="1" />
  <path d="M 100.46,44.6 C 96.63,42.18 90.04,32.72 90.04,28.18 C 90.05,23.63 96.15,16.78 96.53,13.11 C 96.91,9.45 97.27,9.45 97.61,9.39 C 98.58,16.58 100.36,33.7 100.46,44.6" fill="url(#RadialGradient4)" fill-opacity="1" />
  <path d="M 101.04,51.82 C 101.59,51.77 100.12,44.66 100.46,44.6" stroke-width="0.5" fill="none" stroke="sandybrown" />
  <path d="M 92.46,60.64 C 88.86,62.4 87.51,65.41 86.57,70.13 C 85.63,74.84 87.18,76.77 88.03,78.57 C 88.88,80.36 88,81.69 88.41,81.9 C 90.37,73.3 91.24,66.12 92.46,60.64" fill="url(#RadialGradient3)" fill-opacity="1" />
  <path d="M 92.46,60.64 C 95.16,63.6 95.3,66.89 94.45,71.63 C 93.59,76.36 91.44,77.58 89.99,78.94 C 88.53,80.29 88.87,81.86 88.41,81.9 C 90.37,73.3 91.24,66.12 92.46,60.64" fill="url(#RadialGradient4)" fill-opacity="1" />
  <path d="M 93.81,53.55 C 93.31,53.52 92.92,60.59 92.46,60.64" stroke-width="0.5" fill="none" stroke="sandybrown" />
  <path d="M 79.77,58.32 C 77.75,54.81 72.22,53.32 69.45,53.28 C 66.67,53.24 61.07,56.21 58.97,56.98 C 56.88,57.76 54.82,57.69 54.79,57.89 C 60.34,58.05 72.14,57.92 79.77,58.32" fill="url(#RadialGradient3)" fill-opacity="1" />
  <path d="M 79.77,58.32 C 77.63,61.75 72.06,63.05 69.28,63 C 66.51,62.95 61.01,59.79 58.94,58.95 C 56.87,58.1 54.81,58.1 54.79,57.89 C 60.34,58.05 72.14,57.92 79.77,58.32" fill="url(#RadialGradient4)" fill-opacity="1" />
  <path d="M 88.1,58.46 C 88.11,57.86 79.79,58.53 79.77,58.32" stroke-width="0.5" fill="none" stroke="sandybrown" />
  <path d="M 83.21,70.53 C 80.91,71.84 80.2,78.4 80.25,81.36 C 80.3,84.32 82.62,87.74 83.54,90.06 C 84.47,92.38 84.3,93.54 84.48,93.56 C 83.74,85.91 83.47,73.48 83.21,70.53" fill="url(#RadialGradient3)" fill-opacity="1" />
  <path d="M 83.21,70.53 C 85.64,71.58 87.06,78.02 87.34,80.97 C 87.62,83.91 85.69,87.57 85.03,89.98 C 84.36,92.39 84.66,93.52 84.48,93.56 C 83.74,85.91 83.47,73.48 83.21,70.53" fill="url(#RadialGradient4)" fill-opacity="1" />
  <path d="M 82.85,64.04 C 82.43,64.09 83.39,70.49 83.21,70.53" stroke-width="0.5" fill="none" stroke="sandybrown" />
  <path d="M 73.23,68.85 C 72.52,66.41 69.85,64.45 66.89,64.9 C 63.93,65.36 60.23,68.73 59.28,69.3 C 58.33,69.87 57.43,70.13 57.36,70.24 C 61.79,69.49 66.3,69.65 73.23,68.85" fill="url(#RadialGradient3)" fill-opacity="1" />
  <path d="M 73.23,68.85 C 72.95,71.37 70.66,73.76 67.67,73.83 C 64.68,73.9 60.44,71.22 59.41,70.83 C 58.38,70.43 57.45,70.33 57.36,70.24 C 61.79,69.49 66.3,69.65 73.23,68.85" fill="url(#RadialGradient4)" fill-opacity="1" />
  <path d="M 79.18,68.33 C 79.14,67.92 73.32,68.94 73.23,68.85" stroke-width="0.5" fill="none" stroke="sandybrown" />
  <path d="M 75.66,78.33 C 73.74,79.8 73.25,83.19 73.58,85.66 C 73.9,88.13 76.2,90.37 76.63,91.99 C 77.06,93.61 77.39,94.36 77.5,94.4 C 76.68,90.73 75.99,83.3 75.66,78.33" fill="url(#RadialGradient3)" fill-opacity="1" />
  <path d="M 75.66,78.33 C 77.86,79.33 79.1,82.52 79.35,85 C 79.59,87.48 77.85,90.18 77.8,91.86 C 77.75,93.53 77.59,94.34 77.5,94.4 C 76.68,90.73 75.99,83.3 75.66,78.33" fill="url(#RadialGradient4)" fill-opacity="1" />
  <path d="M 75.09,73.38 C 74.77,73.46 75.75,78.27 75.66,78.33" stroke-width="0.5" fill="none" stroke="sandybrown" />
  <path d="M 67.17,79.72 C 65.88,77.82 62.74,77.63 60.69,77.84 C 58.64,78.05 58.22,79.97 57.26,80.55 C 56.3,81.12 55.99,81.14 55.97,81.25 C 61.06,80.5 62.73,80.09 67.17,79.72" fill="url(#RadialGradient3)" fill-opacity="1" />
  <path d="M 67.17,79.72 C 66.44,81.9 63.46,82.92 61.43,83.27 C 59.41,83.63 58.48,81.88 57.4,81.59 C 56.32,81.3 56.02,81.36 55.97,81.25 C 61.06,80.5 62.73,80.09 67.17,79.72" fill="url(#RadialGradient4)" fill-opacity="1" />
  <path d="M 70.57,79.25 C 70.51,78.98 67.22,79.83 67.17,79.72" stroke-width="0.5" fill="none" stroke="sandybrown" />
  <path d="M 67.8,86.99 C 66.5,87.75 65.91,89.26 66.08,90.66 C 66.25,92.05 68.19,94.04 68.55,94.83 C 68.91,95.63 69.05,96.41 69.22,96.44 C 68.78,92.52 68.15,89.49 67.8,86.99" fill="url(#RadialGradient3)" fill-opacity="1" />
  <path d="M 67.8,86.99 C 69.28,87.33 70.28,88.6 70.53,89.99 C 70.77,91.37 69.5,93.84 69.39,94.71 C 69.28,95.58 69.38,96.36 69.22,96.44 C 68.78,92.52 68.15,89.49 67.8,86.99" fill="url(#RadialGradient4)" fill-opacity="1" />
  <path d="M 67.3,83.65 C 67.03,83.72 67.96,86.91 67.8,86.99" stroke-width="0.5" fill="none" stroke="sandybrown" />
  <path d="M 62.01,88.74 C 61.34,87.46 60.18,87.43 58.82,87.63 C 57.45,87.83 56.95,89.01 56.08,89.37 C 55.21,89.73 55.02,89.76 55,89.87 C 57.75,89.63 58.86,89.32 62.01,88.74" fill="url(#RadialGradient3)" fill-opacity="1" />
  <path d="M 62.01,88.74 C 61.78,90.17 60.68,90.56 59.33,90.8 C 57.97,91.04 57.12,90.08 56.18,90.02 C 55.24,89.95 55.05,89.98 55,89.87 C 57.75,89.63 58.86,89.32 62.01,88.74" fill="url(#RadialGradient4)" fill-opacity="1" />
  <path d="M 63.82,88.45 C 63.77,88.25 62.06,88.85 62.01,88.74" stroke-width="0.5" fill="none" stroke="sandybrown" />
  <path d="M 62.37,93.2 C 61.3,93.56 62.15,95.87 62.19,96.62 C 62.22,97.36 63.01,98.92 63.17,99.27 C 63.33,99.62 63.45,100.16 63.53,100.15 C 63.31,98.5 62.92,95.55 62.37,93.2" fill="url(#RadialGradient3)" fill-opacity="1" />
  <path d="M 62.37,93.2 C 63.5,93.2 63.44,95.65 63.65,96.37 C 63.86,97.09 63.63,98.82 63.59,99.2 C 63.56,99.59 63.61,100.13 63.53,100.15 C 63.31,98.5 62.92,95.55 62.37,93.2" fill="url(#RadialGradient4)" fill-opacity="1" />
  <path d="M 62,91 C 61.9,91.03 62.45,93.17 62.37,93.2" stroke-width="0.5" fill="none" stroke="sandybrown" />
  <path d="M 67,96 C 157,137 142,105 138,117" stroke-width="0.5" fill="none" stroke="brown" />
  <path d="M 83.29,96.27 C 86.39,101.51 95.05,98.96 98.87,97.74 C 102.69,96.52 107.6,89.83 110.8,87 C 113.99,84.18 115.11,84.3 114.99,83.98 C 105.55,87.29 88.21,95.15 83.29,96.27" fill="url(#RadialGradient3)" fill-opacity="1" />
  <path d="M 83.29,96.27 C 82.05,90.32 90.17,86.36 93.81,84.69 C 97.45,83.01 105.59,84.64 109.85,84.57 C 114.11,84.5 114.86,83.66 114.99,83.98 C 105.55,87.29 88.21,95.15 83.29,96.27" fill="url(#RadialGradient4)" fill-opacity="1" />
  <path d="M 74.9,99.53 C 75.12,100.01 83.16,95.95 83.29,96.27" stroke-width="0.5" fill="none" stroke="sandybrown" />
  <path d="M 87.95,111.86 C 85.05,115.19 86.88,121.91 88.65,126.53 C 90.42,131.14 93.11,131.1 95.81,134.25 C 98.52,137.41 98.38,138.36 98.86,138.34 C 96.97,131.64 90.79,119.23 87.95,111.86" fill="url(#RadialGradient3)" fill-opacity="1" />
  <path d="M 87.95,111.86 C 92.35,112.18 95.78,118.24 97.78,122.76 C 99.78,127.28 97.84,129.15 98.15,133.29 C 98.46,137.44 99.22,138.01 98.86,138.34 C 96.97,131.64 90.79,119.23 87.95,111.86" fill="url(#RadialGradient4)" fill-opacity="1" />
  <path d="M 84.56,103.64 C 83.71,104 88.3,111.54 87.95,111.86" stroke-width="0.5" fill="none" stroke="sandybrown" />
  <path d="M 99.49,102.71 C 104.14,106.62 112.61,105.67 117.69,103.72 C 122.77,101.77 124.34,94 127.43,92.02 C 130.52,90.04 131.12,89.23 131.07,89.04 C 123.07,93.36 108.29,97.96 99.49,102.71" fill="url(#RadialGradient3)" fill-opacity="1" />
  <path d="M 99.49,102.71 C 99.82,96.65 106.32,91.13 111.21,88.76 C 116.11,86.39 122.85,90.56 126.41,89.66 C 129.97,88.76 130.97,88.87 131.07,89.04 C 123.07,93.36 108.29,97.96 99.49,102.71" fill="url(#RadialGradient4)" fill-opacity="1" />
  <path d="M 91.18,106.31 C 91.59,107.07 99.38,102.54 99.49,102.71" stroke-width="0.5" fill="none" stroke="sandybrown" />
  <path d="M 99.94,114.48 C 96.57,118.66 99.44,126.16 101.15,130.66 C 102.87,135.17 107.1,135 108.89,136.83 C 110.67,138.66 110.95,139.32 111.25,139.28 C 108.7,134.28 103.94,121.46 99.94,114.48" fill="url(#RadialGradient3)" fill-opacity="1" />
  <path d="M 99.94,114.48 C 105.32,114.67 109.09,121.76 111.37,126.01 C 113.65,130.26 110.74,133.34 110.95,135.89 C 111.16,138.44 111.47,139.09 111.25,139.28 C 108.7,134.28 103.94,121.46 99.94,114.48" fill="url(#RadialGradient4)" fill-opacity="1" />
  <path d="M 97.29,108.64 C 96.82,108.91 100.17,114.28 99.94,114.48" stroke-width="0.5" fill="none" stroke="sandybrown" />
  <path d="M 111.52,107.9 C 113.97,111.33 119.17,109.31 122.38,107.98 C 125.6,106.66 130.87,100.07 131.88,98.98 C 132.89,97.88 135.35,96.71 135.2,96.29 C 128.93,99.26 114.46,106 111.52,107.9" fill="url(#RadialGradient3)" fill-opacity="1" />
  <path d="M 111.52,107.9 C 110.31,103.85 115.09,100.99 118.11,99.26 C 121.12,97.52 129.56,97.39 131.04,97.26 C 132.52,97.13 134.95,95.91 135.2,96.29 C 128.93,99.26 114.46,106 111.52,107.9" fill="url(#RadialGradient4)" fill-opacity="1" />
  <path d="M 104.66,111.26 C 104.96,111.77 111.27,107.52 111.52,107.9" stroke-width="0.5" fill="none" stroke="sandybrown" />
  <path d="M 113.42,117.53 C 111.09,119.44 114.01,124.59 115.25,127.28 C 116.49,129.97 119.86,132.86 121.65,134.59 C 123.44,136.32 123.22,136.39 123.41,136.34 C 120.78,131.71 115.74,122.33 113.42,117.53" fill="url(#RadialGradient3)" fill-opacity="1" />
  <path d="M 113.42,117.53 C 116.31,116.67 118.94,121.97 120.47,124.51 C 122.01,127.04 122.51,131.46 122.94,133.91 C 123.37,136.36 123.55,136.22 123.41,136.34 C 120.78,131.71 115.74,122.33 113.42,117.53" fill="url(#RadialGradient4)" fill-opacity="1" />
  <path d="M 111.21,113.35 C 110.92,113.52 113.57,117.41 113.42,117.53" stroke-width="0.5" fill="none" stroke="sandybrown" />
  <path d="M 123.42,112.27 C 125.12,114.16 128.75,111.5 130.86,110.18 C 132.97,108.86 133.28,107.42 134.87,106.19 C 136.45,104.96 136.77,104.6 136.7,104.41 C 133.08,107.08 127.75,109.81 123.42,112.27" fill="url(#RadialGradient3)" fill-opacity="1" />
  <path d="M 123.42,112.27 C 122.58,109.88 126.66,107.97 128.83,106.75 C 131,105.53 132.41,105.96 134.25,105.15 C 136.09,104.35 136.56,104.26 136.7,104.41 C 133.08,107.08 127.75,109.81 123.42,112.27" fill="url(#RadialGradient4)" fill-opacity="1" />
  <path d="M 118.28,115.32 C 118.57,115.7 123.29,112.12 123.42,112.27" stroke-width="0.5" fill="none" stroke="sandybrown" />
  <path d="M 127.87,120.58 C 126.53,123.02 128.4,126.77 129.96,128.72 C 131.52,130.67 133.33,130.42 134.73,131.47 C 136.12,132.53 136.15,132.95 136.36,132.87 C 134.35,130.23 129.18,122.2 127.87,120.58" fill="url(#RadialGradient3)" fill-opacity="1" />
  <path d="M 127.87,120.58 C 130.63,120.19 133.47,123.27 134.74,125.42 C 136.01,127.56 135.14,129.17 135.63,130.85 C 136.12,132.53 136.5,132.7 136.36,132.87 C 134.35,130.23 129.18,122.2 127.87,120.58" fill="url(#RadialGradient4)" fill-opacity="1" />
  <path d="M 125.28,116.83 C 125.06,117.03 128.02,120.41 127.87,120.58" stroke-width="0.5" fill="none" stroke="sandybrown" />
  <path d="M 134.17,115.38 C 136.29,116.27 137.9,114.99 139.14,113.81 C 140.39,112.63 141.25,110.47 141.74,109.47 C 142.23,108.47 143.03,107.92 142.99,107.77 C 140.86,109.49 135.84,114.18 134.17,115.38" fill="url(#RadialGradient3)" fill-opacity="1" />
  <path d="M 134.17,115.38 C 133.6,113.15 135.11,111.75 136.46,110.69 C 137.81,109.63 140.07,109.11 141.13,108.76 C 142.2,108.42 142.86,107.72 142.99,107.77 C 140.86,109.49 135.84,114.18 134.17,115.38" fill="url(#RadialGradient4)" fill-opacity="1" />
  <path d="M 131.57,117.62 C 131.8,117.86 134.03,115.33 134.17,115.38" stroke-width="0.5" fill="none" stroke="sandybrown" />
  <path d="M 139.82,119.06 C 139.45,120.53 141.29,122.79 142.61,123.84 C 143.94,124.89 147.24,125.11 147.8,125.29 C 148.36,125.47 148.89,125.67 148.95,125.62 C 147.59,124.62 141.64,120.37 139.82,119.06" fill="url(#RadialGradient3)" fill-opacity="1" />
  <path d="M 139.82,119.06 C 141.09,118.24 143.82,119.26 145.24,120.19 C 146.65,121.11 147.91,124.17 148.26,124.64 C 148.62,125.12 148.97,125.56 148.95,125.62 C 147.59,124.62 141.64,120.37 139.82,119.06" fill="url(#RadialGradient4)" fill-opacity="1" />
  <path d="M 137.53,117.42 C 137.42,117.58 139.84,118.99 139.82,119.06" stroke-width="0.5" fill="none" stroke="sandybrown" />
  <path d="M 138.78,115.38 C 137.65,114.49 135.84,115.08 135.1,115.61 C 134.35,116.15 134.11,117.87 133.62,118.37 C 133.12,118.86 132.8,119.18 132.85,119.28 C 134.88,117.79 136.44,116.83 138.78,115.38" fill="url(#RadialGradient3)" fill-opacity="1" />
  <path d="M 138.78,115.38 C 139.16,116.78 137.9,118.21 137.11,118.68 C 136.32,119.15 134.65,118.68 134,118.94 C 133.34,119.2 132.92,119.37 132.85,119.28 C 134.88,117.79 136.44,116.83 138.78,115.38" fill="url(#RadialGradient4)" fill-opacity="1" />
  <path d="M 140.7,114.13 C 140.62,114.01 138.86,115.47 138.78,115.38" stroke-width="0.5" fill="none" stroke="sandybrown" />
  <path d="M 136.66,117.64 C 135.76,117.04 135.02,117.21 134,117.67 C 132.99,118.13 132.75,118.93 132.2,119.49 C 131.64,120.05 131.63,119.95 131.63,120.03 C 133.66,119.12 134.3,118.73 136.66,117.64" fill="url(#RadialGradient3)" fill-opacity="1" />
  <path d="M 136.66,117.64 C 136.55,118.72 135.96,119.18 134.96,119.68 C 133.96,120.18 133.19,119.85 132.4,119.93 C 131.62,120.01 131.69,120.08 131.63,120.03 C 133.66,119.12 134.3,118.73 136.66,117.64" fill="url(#RadialGradient4)" fill-opacity="1" />
  <path d="M 138,117 C 137.93,116.89 136.72,117.68 136.66,117.64" stroke-width="0.5" fill="none" stroke="sandybrown" />
  <path d="M 1,135 C 138,40 72,126 151,56" stroke-width="0.5" fill="none" stroke="brown" />
  <path d="M 18.18,116.5 C 23.47,115.5 26.63,110.01 27.75,104.11 C 28.87,98.22 24.19,97.3 24.1,93.2 C 24.02,89.11 23.83,89.25 23.58,89.03 C 22.4,94.91 19.15,106.5 18.18,116.5" fill="url(#RadialGradient3)" fill-opacity="1" />
  <path d="M 18.18,116.5 C 13.66,113.57 12.82,107.29 14.01,101.41 C 15.2,95.53 19.89,96.45 21.52,92.7 C 23.15,88.94 23.27,89.14 23.58,89.03 C 22.4,94.91 19.15,106.5 18.18,116.5" fill="url(#RadialGradient4)" fill-opacity="1" />
  <path d="M 16.63,124.35 C 17.18,124.43 17.87,116.61 18.18,116.5" stroke-width="0.5" fill="none" stroke="sandybrown" />
  <path d="M 38.14,117.02 C 38.05,122.05 51.83,123.77 56.6,125.08 C 61.36,126.4 67.62,125.53 71.65,125.57 C 75.68,125.62 75.63,125.8 75.77,125.22 C 67.1,123.28 50.86,118.95 38.14,117.02" fill="url(#RadialGradient3)" fill-opacity="1" />
  <path d="M 38.14,117.02 C 40.15,112.41 53.4,116.58 58.28,117.36 C 63.16,118.15 68.49,121.55 72.17,123.18 C 75.86,124.82 75.89,124.63 75.77,125.22 C 67.1,123.28 50.86,118.95 38.14,117.02" fill="url(#RadialGradient4)" fill-opacity="1" />
  <path d="M 30.42,115.34 C 30.31,116.2 38.26,116.43 38.14,117.02" stroke-width="0.5" fill="none" stroke="sandybrown" />
  <path d="M 47.9,95.63 C 53.39,96.08 58.27,83.3 59.34,79.83 C 60.41,76.36 56.18,72.5 55.84,69.61 C 55.5,66.73 56.11,65.17 55.62,64.89 C 53.34,77.39 50.79,82.35 47.9,95.63" fill="url(#RadialGradient3)" fill-opacity="1" />
  <path d="M 47.9,95.63 C 42.85,93.43 44.59,79.86 45.28,76.3 C 45.98,72.74 51.52,71.33 53.18,68.95 C 54.85,66.56 55.04,64.9 55.62,64.89 C 53.34,77.39 50.79,82.35 47.9,95.63" fill="url(#RadialGradient4)" fill-opacity="1" />
  <path d="M 45.26,106.18 C 46.03,106.29 47.33,95.65 47.9,95.63" stroke-width="0.5" fill="none" stroke="sandybrown" />
  <path d="M 63.84,100.91 C 64.02,105.98 70.63,109.11 75.33,110.14 C 80.04,111.18 87.06,110.05 90.43,109.95 C 93.8,109.85 95.2,110.43 95.38,110.18 C 86.1,107.62 73.96,103.44 63.84,100.91" fill="url(#RadialGradient3)" fill-opacity="1" />
  <path d="M 63.84,100.91 C 66.73,96.75 73.98,97.7 78.5,99.37 C 83.02,101.05 88.31,105.79 91.09,107.7 C 93.88,109.6 95.36,109.87 95.38,110.18 C 86.1,107.62 73.96,103.44 63.84,100.91" fill="url(#RadialGradient4)" fill-opacity="1" />
  <path d="M 57.69,99.11 C 57.6,99.62 63.83,100.61 63.84,100.91" stroke-width="0.5" fill="none" stroke="sandybrown" />
  <path d="M 74.26,85.09 C 77.6,84.13 81.45,83.36 83.05,79.51 C 84.66,75.67 82.59,68.95 82.61,65.99 C 82.63,63.02 83.3,61.87 83.11,61.72 C 79.35,69.95 75.02,81.67 74.26,85.09" fill="url(#RadialGradient3)" fill-opacity="1" />
  <path d="M 74.26,85.09 C 72.4,82.16 70.02,79.03 71.37,75.09 C 72.72,71.15 78.72,67.48 80.67,65.25 C 82.61,63.02 82.87,61.71 83.11,61.72 C 79.35,69.95 75.02,81.67 74.26,85.09" fill="url(#RadialGradient4)" fill-opacity="1" />
  <path d="M 71.56,92.23 C 72,92.39 74.02,85.08 74.26,85.09" stroke-width="0.5" fill="none" stroke="sandybrown" />
  <path d="M 91.68,90.82 C 91.2,93.97 97.08,99.12 99.26,100.09 C 101.44,101.06 107.66,102.15 110.14,102.59 C 112.62,103.04 112.85,103.68 113.08,103.42 C 110.55,101.9 98.44,94.49 91.68,90.82" fill="url(#RadialGradient3)" fill-opacity="1" />
  <path d="M 91.68,90.82 C 94.2,88.87 101.56,91.52 103.46,92.95 C 105.36,94.39 109.34,99.3 110.93,101.25 C 112.53,103.21 113.19,103.09 113.08,103.42 C 110.55,101.9 98.44,94.49 91.68,90.82" fill="url(#RadialGradient4)" fill-opacity="1" />
  <path d="M 85.56,87.22 C 85.32,87.66 91.79,90.49 91.68,90.82" stroke-width="0.5" fill="none" stroke="sandybrown" />
  <path d="M 103.16,83.15 C 105.89,84.14 108.91,83.92 110.7,82.17 C 112.49,80.43 112.79,76.85 113.27,75.85 C 113.74,74.85 114.86,74 114.78,73.76 C 111.76,75.57 105.78,80.84 103.16,83.15" fill="url(#RadialGradient3)" fill-opacity="1" />
  <path d="M 103.16,83.15 C 102.76,80.27 103.61,77.37 105.69,75.98 C 107.77,74.6 111.34,75.05 112.41,74.8 C 113.49,74.54 114.56,73.62 114.78,73.76 C 111.76,75.57 105.78,80.84 103.16,83.15" fill="url(#RadialGradient4)" fill-opacity="1" />
  <path d="M 99.29,86.28 C 99.55,86.58 102.94,83.01 103.16,83.15" stroke-width="0.5" fill="none" stroke="sandybrown" />
  <path d="M 116.76,85.97 C 116.93,87.82 118.96,90.62 121.2,91.71 C 123.44,92.81 125.98,90.87 127.35,90.79 C 128.72,90.71 129.06,90.88 129.13,90.8 C 123.99,89.13 120.26,87.3 116.76,85.97" fill="url(#RadialGradient3)" fill-opacity="1" />
  <path d="M 116.76,85.97 C 118.14,84.73 121.53,84.05 123.92,84.76 C 126.31,85.47 126.86,88.62 127.81,89.61 C 128.76,90.6 129.13,90.71 129.13,90.8 C 123.99,89.13 120.26,87.3 116.76,85.97" fill="url(#RadialGradient4)" fill-opacity="1" />
  <path d="M 113.29,84.61 C 113.18,84.91 116.77,85.87 116.76,85.97" stroke-width="0.5" fill="none" stroke="sandybrown" />
  <path d="M 125.81,73.57 C 127.56,73.51 128.3,70.16 128.79,68.16 C 129.28,66.15 128.43,63.58 128.06,62.83 C 127.68,62.07 127.96,61.12 127.88,61.06 C 127.25,66.17 125.99,71.17 125.81,73.57" fill="url(#RadialGradient3)" fill-opacity="1" />
  <path d="M 125.81,73.57 C 124.18,72.95 124.55,69.54 124.73,67.49 C 124.91,65.43 126.54,63.27 127.14,62.67 C 127.74,62.08 127.78,61.09 127.88,61.06 C 127.25,66.17 125.99,71.17 125.81,73.57" fill="url(#RadialGradient4)" fill-opacity="1" />
  <path d="M 125.2,77.29 C 125.43,77.32 125.71,73.61 125.81,73.57" stroke-width="0.5" fill="none" stroke="sandybrown" />
  <path d="M 139.65,68.96 C 140.07,70.42 143.64,71.42 145.05,71.48 C 146.46,71.54 148.26,70.49 149.12,70.28 C 149.99,70.08 150.49,70.21 150.56,70.05 C 148.32,69.85 143.83,69.58 139.65,68.96" fill="url(#RadialGradient3)" fill-opacity="1" />
  <path d="M 139.65,68.96 C 140.35,67.62 144.05,67.34 145.44,67.56 C 146.83,67.78 148.39,69.17 149.2,69.55 C 150.01,69.92 150.52,69.89 150.56,70.05 C 148.32,69.85 143.83,69.58 139.65,68.96" fill="url(#RadialGradient4)" fill-opacity="1" />
  <path d="M 136.29,68.63 C 136.29,68.84 139.61,68.8 139.65,68.96" stroke-width="0.5" fill="none" stroke="sandybrown" />
  <path d="M 146.53,58 C 147.94,57.64 147.74,55.33 147.72,54.18 C 147.71,53.03 147.61,50.95 147.38,50.02 C 147.16,49.08 147.35,48.65 147.2,48.63 C 146.98,50.45 146.55,54.78 146.53,58" fill="url(#RadialGradient3)" fill-opacity="1" />
  <path d="M 146.53,58 C 145.19,57.44 145.72,55.18 145.9,54.05 C 146.07,52.91 146.47,50.87 146.82,49.98 C 147.18,49.09 147.05,48.63 147.2,48.63 C 146.98,50.45 146.55,54.78 146.53,58" fill="url(#RadialGradient4)" fill-opacity="1" />
  <path d="M 146.39,60.05 C 146.53,60.06 146.38,58 146.53,58" stroke-width="0.5" fill="none" stroke="sandybrown" />
  <path d="M 153.22,56.14 C 153.54,57.09 155.22,56.94 156.14,57.06 C 157.06,57.19 158.94,56.91 159.51,56.75 C 160.08,56.59 160.42,56.69 160.45,56.59 C 157.85,56.46 156,56.32 153.22,56.14" fill="url(#RadialGradient3)" fill-opacity="1" />
  <path d="M 153.22,56.14 C 153.65,55.24 155.3,55.6 156.23,55.58 C 157.16,55.57 158.99,56.09 159.54,56.32 C 160.08,56.55 160.43,56.48 160.45,56.59 C 157.85,56.46 156,56.32 153.22,56.14" fill="url(#RadialGradient4)" fill-opacity="1" />
  <path d="M 151,56 C 151.01,56.18 153.21,56.03 153.22,56.14" stroke-width="0.5" fill="none" stroke="sandybrown" />
</svg>
